<svg xmlns="http://www.w3.org/2000/svg" width="396.818" height="356.653" viewBox="0 0 396.818 356.653">
  <g id="Grupo_9977" data-name="Grupo 9977" transform="translate(-777.995 -1401.531)">
    <g id="Grupo_9976" data-name="Grupo 9976" transform="translate(780 1403.031)">
      <g id="Grupo_9975" data-name="Grupo 9975">
        <g id="Grupo_9956" data-name="Grupo 9956" transform="translate(0 45.012)">
          <g id="Grupo_9955" data-name="Grupo 9955" transform="translate(48.097 1.625)">
            <g id="Grupo_9954" data-name="Grupo 9954">
              <g id="Grupo_9953" data-name="Grupo 9953">
                <g id="Grupo_9952" data-name="Grupo 9952">
                  <g id="Grupo_9951" data-name="Grupo 9951">
                    <circle id="Elipse_619" data-name="Elipse 619" cx="129.206" cy="129.206" r="129.206" fill="#92e0ff"/>
                  </g>
                </g>
              </g>
            </g>
          </g>
          <path id="Trazado_20275" data-name="Trazado 20275" stroke="#0c6bc2" d="M3387.242,1485.233a177.305,177.305,0,0,0-1.119-260.635" fill="none" transform="translate(-3089.161 -1224.598)" stroke-linecap="round" stroke-linejoin="round" stroke-width="4" stroke-dasharray="127.576"/>
          <path id="Trazado_20276" data-name="Trazado 20276" stroke="#0c6bc2" d="M1974.685,3397.08a176.575,176.575,0,0,0,79.243,14.571q2.228-.1,4.441-.263" fill="none" transform="translate(-1868.319 -3103.716)" stroke-linecap="round" stroke-linejoin="round" stroke-width="4" stroke-dasharray="127.576"/>
          <path id="Trazado_20277" data-name="Trazado 20277" stroke="#0c6bc2" d="M1238.276,1269.923A176.828,176.828,0,0,0,1187.2,1402.94q.279,5.951.941,11.788" fill="none" transform="translate(-1187 -1263.802)" stroke-linecap="round" stroke-linejoin="round" stroke-width="4" stroke-dasharray="127.576"/>
        </g>
        <g id="Grupo_9963" data-name="Grupo 9963" transform="translate(181.436 171.303)">
          <path id="Trazado_20278" data-name="Trazado 20278" d="M2733.345,2219.046h-194.1c-4.771,0-8.639-1.766-8.639-3.946v-51.319c0-2.179,3.868-3.946,8.639-3.946h194.1c4.771,0,8.639,1.766,8.639,3.946V2215.1C2741.984,2217.28,2738.116,2219.046,2733.345,2219.046Z" transform="translate(-2530.608 -2159.836)" fill="#c1f7f8" stroke="#0b6bbe" stroke-linecap="round" stroke-linejoin="round" stroke-width="4"/>
          <g id="Grupo_9962" data-name="Grupo 9962" transform="translate(15.661 49.849)">
            <g id="Grupo_9961" data-name="Grupo 9961">
              <path id="Trazado_20282" data-name="Trazado 20282" d="M2672.529,2654.986s-.137-4.262-.417-6.882a26.262,26.262,0,0,0-4.54-12.513c-15.384-21.128-14.906-26.828-18.975-43.708-.952-3.948-1.863-8.3-1.863-8.3a6.293,6.293,0,0,1,4.473-7.644c5.641-1.732,8.664,4.506,9.746,7.963,4.9,15.676,9.79,18.286,9.79,18.286h0v-63.309c0-3.875.923-9.886,7.6-9.886,5.969,0,7.636,5.1,7.636,9.636v37.055c0-4.535,3.363-9.393,8.608-8.593a7.521,7.521,0,0,1,6.63,7.811v1.274c0-4.209,4.843-5.91,7.682-5.717a7.687,7.687,0,0,1,7.555,7.782v4.622c0-4.337,2.9-7.42,7.91-7.235,4.184.155,6.295,3.586,6.295,7.568v4.982c0,5.265-.439,16.723-1.383,21.9-2.775,15.228-7.155,21.786-10.835,26.969-2.95,4.156-3.168,9.241-3.529,14.324-.054.769-.041,3.615-.041,3.615" transform="translate(-2646.586 -2528.991)" fill="#fff" stroke="#0b6bbe" stroke-linecap="round" stroke-linejoin="round" stroke-width="4"/>
            </g>
            <line id="Línea_44" data-name="Línea 44" y1="3.811" transform="translate(54.631 45.658)" fill="#fff" stroke="#0b6bbe" stroke-linecap="round" stroke-linejoin="round" stroke-width="4"/>
            <line id="Línea_45" data-name="Línea 45" y2="2.287" transform="translate(69.869 50.28)" fill="#fff" stroke="#0b6bbe" stroke-linecap="round" stroke-linejoin="round" stroke-width="4"/>
          </g>
        </g>
        <g id="Grupo_9973" data-name="Grupo 9973" transform="translate(60.781 0)">
          <g id="Grupo_9968" data-name="Grupo 9968">
            <g id="Grupo_9967" data-name="Grupo 9967">
              <g id="Grupo_9966" data-name="Grupo 9966">
                <g id="Grupo_9965" data-name="Grupo 9965">
                  <path id="Trazado_20283" data-name="Trazado 20283" d="M1969.8,1009.293H1777.863V902.835a11.571,11.571,0,0,1,11.546-11.569h168.818a11.576,11.576,0,0,1,11.569,11.569Z" transform="translate(-1758.856 -891.266)" fill="#fff" stroke="#0b6bbe" stroke-linecap="round" stroke-linejoin="round" stroke-width="3"/>
                  <path id="Trazado_20284" data-name="Trazado 20284" d="M1864.427,1801.373H1639.709a2.6,2.6,0,0,1-1.834-4.444l18.238-24.658h191.932l18.215,24.658A2.6,2.6,0,0,1,1864.427,1801.373Z" transform="translate(-1637.106 -1653.303)" fill="#fff" stroke="#0b6bbe" stroke-linecap="round" stroke-linejoin="round" stroke-width="3"/>
                  <path id="Trazado_20285" data-name="Trazado 20285" d="M1848.046,1765.3l18.215,25.6a2.6,2.6,0,0,1-1.834,4.444H1639.709a2.6,2.6,0,0,1-1.834-4.444l18.238-25.6" transform="translate(-1637.106 -1647.278)" fill="#fff" stroke="#0b6bbe" stroke-linecap="round" stroke-linejoin="round" stroke-width="3"/>
                  <path id="Trazado_20286" data-name="Trazado 20286" d="M2353.36,1926.071l-2.966-9.2a.889.889,0,0,0-.759-.436h-42.9a.889.889,0,0,0-.76.436l-2.966,9.2Z" transform="translate(-2213.085 -1778.001)" fill="#c1f7f8" stroke="#0b6bbe" stroke-linecap="round" stroke-linejoin="round" stroke-width="3"/>
                  <g id="Grupo_9964" data-name="Grupo 9964" transform="translate(22.062 125.357)">
                    <path id="Trazado_20287" data-name="Trazado 20287" d="M3155.443,1819.587" transform="translate(-2972.474 -1819.587)" fill="#fff" stroke="#0b6bbe" stroke-linecap="round" stroke-linejoin="round" stroke-width="3"/>
                    <path id="Trazado_20288" data-name="Trazado 20288" d="M1823.457,1819.587" transform="translate(-1820.354 -1819.587)" fill="#fff" stroke="#0b6bbe" stroke-linecap="round" stroke-linejoin="round" stroke-width="3"/>
                    <line id="Línea_46" data-name="Línea 46" x2="186.072" transform="translate(0 2.716)" fill="#fff" stroke="#0b6bbe" stroke-linecap="round" stroke-linejoin="round" stroke-width="3"/>
                  </g>
                  <path id="Trazado_20289" data-name="Trazado 20289" d="M1969.8,902.835v106.458H1777.863V902.835a11.571,11.571,0,0,1,11.546-11.569h168.818A11.576,11.576,0,0,1,1969.8,902.835Z" transform="translate(-1758.856 -891.266)" fill="#c1f7f8" stroke="#0b6bbe" stroke-linecap="round" stroke-linejoin="round" stroke-width="3"/>
                  <rect id="Rectángulo_2514" data-name="Rectángulo 2514" width="173.066" height="98.133" rx="29.345" transform="translate(28.433 10.849)" stroke-width="3" stroke="#0b6bbe" stroke-linecap="round" stroke-linejoin="round" fill="#fff"/>
                </g>
              </g>
            </g>
          </g>
          <g id="Grupo_9972" data-name="Grupo 9972" transform="translate(48.459 31.812)">
            <g id="Grupo_9971" data-name="Grupo 9971">
              <g id="Grupo_9970" data-name="Grupo 9970">
                <g id="Grupo_9969" data-name="Grupo 9969">
                  <path id="Trazado_20290" data-name="Trazado 20290" d="M2002.882,1306.625a6.924,6.924,0,0,1-6.9-7.4c.544-8.049,1.672-15.8,5.083-20.425,2.181-2.954,5.613-6.314,9.177-6.306q4.384.011,10.431.023c3.733,0,7.25,3.582,9.464,6.731,3.225,4.585,4.269,12.171,4.777,20a6.921,6.921,0,0,1-6.9,7.377Z" transform="translate(-1995.968 -1252.824)" fill="#64bdfa" stroke="#0b6bc0" stroke-linejoin="round" stroke-width="3"/>
                  <ellipse id="Elipse_622" data-name="Elipse 622" cx="10.464" cy="10.833" rx="10.464" ry="10.833" transform="translate(8.738)" fill="#fff" stroke="#0b6bbe" stroke-linecap="round" stroke-linejoin="round" stroke-width="3"/>
                </g>
              </g>
            </g>
            <line id="Línea_47" data-name="Línea 47" x2="71.882" transform="translate(61.127 4.792)" fill="#fff" stroke="#0b6bbe" stroke-linecap="round" stroke-linejoin="round" stroke-width="4"/>
            <line id="Línea_48" data-name="Línea 48" x2="71.882" transform="translate(61.127 19.169)" fill="#fff" stroke="#0b6bbe" stroke-linecap="round" stroke-linejoin="round" stroke-width="4"/>
            <line id="Línea_49" data-name="Línea 49" x2="71.882" transform="translate(61.127 33.545)" fill="#fff" stroke="#0b6bbe" stroke-linecap="round" stroke-linejoin="round" stroke-width="4"/>
            <line id="Línea_50" data-name="Línea 50" x2="71.882" transform="translate(61.127 47.922)" fill="#fff" stroke="#0b6bbe" stroke-linecap="round" stroke-linejoin="round" stroke-width="4"/>
          </g>
        </g>
        <g id="Grupo_9974" data-name="Grupo 9974" transform="translate(15.034 165.227)">
          <path id="Trazado_20291" data-name="Trazado 20291" d="M1640.68,2508l-39.9,46.169a.937.937,0,0,1-1.417.154L1566.5,2529.1l9.479-12.705,21.391,16.276a.937.937,0,0,0,1.417-.154l29.281-34.525Z" transform="translate(-1530.285 -2446.254)" fill="#64bdfa" stroke="#0b6bc0" stroke-linejoin="round" stroke-width="4"/>
          <path id="Trazado_20292" data-name="Trazado 20292" d="M1371.638,2159.836a73.242,73.242,0,0,0-73.3,73.3" transform="translate(-1298.335 -2153.759)" fill="none" stroke="#0b6bbe" stroke-linecap="round" stroke-linejoin="round" stroke-width="4"/>
          <path id="Trazado_20293" data-name="Trazado 20293" d="M1847.717,2290.379a56.494,56.494,0,0,1,10.025,3.185,56.974,56.974,0,0,1-22.156,109.465c-.379,0-.495.008-.872,0" transform="translate(-1762.283 -2266.675)" fill="none" stroke="#0b6bbe" stroke-linecap="round" stroke-linejoin="round" stroke-width="4"/>
          <path id="Trazado_20294" data-name="Trazado 20294" d="M1465.257,2393.643a56.487,56.487,0,0,1-11.189-3.425,56.975,56.975,0,0,1,22.156-109.465" transform="translate(-1402.922 -2258.348)" fill="none" stroke="#0b6bbe" stroke-linecap="round" stroke-linejoin="round" stroke-width="4"/>
          <path id="Trazado_20295" data-name="Trazado 20295" d="M1664.362,2759.648v-6.89l-26.595,15.354,26.595,15.355v-7.491h.872a73.242,73.242,0,0,0,73.3-73.3" transform="translate(-1591.931 -2623.295)" fill="none" stroke="#0b6bbe" stroke-linecap="round" stroke-linejoin="round" stroke-width="4"/>
          <path id="Trazado_20296" data-name="Trazado 20296" d="M1841.174,2120.914v-6.076l26.595,15.355-26.595,15.354v-8.3" transform="translate(-1767.871 -2114.837)" fill="none" stroke="#0b6bbe" stroke-linecap="round" stroke-linejoin="round" stroke-width="4"/>
        </g>
      </g>
    </g>
    <path id="Trazado_20297" data-name="Trazado 20297" d="M15.7-.3l-4-5.776H7.289V-.3H2.49V-21.033h8.975a11.519,11.519,0,0,1,4.784.918,7.107,7.107,0,0,1,3.125,2.607,7.181,7.181,0,0,1,1.1,4,7.038,7.038,0,0,1-1.111,3.984A7.04,7.04,0,0,1,16.2-6.963L20.855-.3Zm-.089-13.211a3.284,3.284,0,0,0-1.126-2.681,5.04,5.04,0,0,0-3.288-.933H7.289V-9.9H11.2a4.984,4.984,0,0,0,3.288-.948A3.294,3.294,0,0,0,15.612-13.509Zm23.934,5.3q0,.089-.089,1.244H27.4a3.755,3.755,0,0,0,1.54,2.34,5.1,5.1,0,0,0,3.021.859,6.118,6.118,0,0,0,2.207-.37A5.345,5.345,0,0,0,35.962-5.3l2.459,2.666Q36.169-.061,31.845-.061a10.4,10.4,0,0,1-4.769-1.052,7.709,7.709,0,0,1-3.2-2.918,8.039,8.039,0,0,1-1.126-4.236,8.144,8.144,0,0,1,1.111-4.221,7.782,7.782,0,0,1,3.051-2.932,8.958,8.958,0,0,1,4.34-1.052,8.886,8.886,0,0,1,4.236,1.007,7.351,7.351,0,0,1,2.977,2.888A8.612,8.612,0,0,1,39.546-8.207Zm-8.264-4.769a3.98,3.98,0,0,0-2.636.889,3.783,3.783,0,0,0-1.3,2.429h7.85a3.821,3.821,0,0,0-1.3-2.414A3.9,3.9,0,0,0,31.282-12.976Zm27.785-3.258v13.27q0,4.384-2.281,6.517T50.121,5.685a16.669,16.669,0,0,1-4.384-.563A9.584,9.584,0,0,1,42.3,3.493L44.137.176a7.558,7.558,0,0,0,2.547,1.318,10.136,10.136,0,0,0,3.081.489A5,5,0,0,0,53.305.9a4.309,4.309,0,0,0,1.14-3.273v-.681A6.466,6.466,0,0,1,49.41-1.068,8.456,8.456,0,0,1,45.4-2.031a7.337,7.337,0,0,1-2.888-2.71A7.578,7.578,0,0,1,41.442-8.77,7.578,7.578,0,0,1,42.508-12.8a7.337,7.337,0,0,1,2.888-2.71,8.456,8.456,0,0,1,4.014-.963,6.325,6.325,0,0,1,5.273,2.281v-2.044ZM50.328-4.86a4.256,4.256,0,0,0,3.007-1.081A3.672,3.672,0,0,0,54.5-8.77a3.672,3.672,0,0,0-1.17-2.829,4.256,4.256,0,0,0-3.007-1.081A4.309,4.309,0,0,0,47.307-11.6,3.65,3.65,0,0,0,46.122-8.77a3.65,3.65,0,0,0,1.185,2.829A4.309,4.309,0,0,0,50.328-4.86ZM63.362-16.234h4.621V-.3H63.362Zm2.31-2.222A2.931,2.931,0,0,1,63.6-19.2a2.4,2.4,0,0,1-.8-1.837,2.4,2.4,0,0,1,.8-1.837,2.931,2.931,0,0,1,2.073-.741,3,3,0,0,1,2.073.711,2.279,2.279,0,0,1,.8,1.777,2.515,2.515,0,0,1-.8,1.911A2.9,2.9,0,0,1,65.672-18.456ZM77.639-.061a15.481,15.481,0,0,1-3.88-.489,10.138,10.138,0,0,1-3.021-1.229L72.278-5.1a9.694,9.694,0,0,0,2.577,1.111,10.8,10.8,0,0,0,2.962.43q2.933,0,2.932-1.451a1.027,1.027,0,0,0-.8-.977,11.846,11.846,0,0,0-2.459-.5,23.718,23.718,0,0,1-3.229-.681,5.009,5.009,0,0,1-2.207-1.363,3.874,3.874,0,0,1-.933-2.784A4.362,4.362,0,0,1,72-14a5.624,5.624,0,0,1,2.547-1.822,10.88,10.88,0,0,1,3.954-.652,15.52,15.52,0,0,1,3.362.37,9.4,9.4,0,0,1,2.77,1.022l-1.54,3.288A9.2,9.2,0,0,0,78.5-12.976a4.671,4.671,0,0,0-2.222.415,1.219,1.219,0,0,0-.741,1.066,1.059,1.059,0,0,0,.8,1.037,14.159,14.159,0,0,0,2.547.563,27.269,27.269,0,0,1,3.2.7,4.806,4.806,0,0,1,2.162,1.348,3.824,3.824,0,0,1,.918,2.725,4.208,4.208,0,0,1-.889,2.636A5.673,5.673,0,0,1,81.682-.7,11.547,11.547,0,0,1,77.639-.061ZM98.285-1.068a4.75,4.75,0,0,1-1.674.755,8.462,8.462,0,0,1-2.088.252,6.2,6.2,0,0,1-4.4-1.451,5.554,5.554,0,0,1-1.555-4.265v-6.546H86.111v-3.555h2.459v-3.88H93.19v3.88h3.969v3.555H93.19v6.487a2.176,2.176,0,0,0,.518,1.555,1.921,1.921,0,0,0,1.466.548,2.97,2.97,0,0,0,1.866-.592Zm7.02-13.063a5.139,5.139,0,0,1,2.236-1.748,8.3,8.3,0,0,1,3.244-.592v4.265q-.77-.059-1.037-.059a4.236,4.236,0,0,0-3.11,1.111,4.489,4.489,0,0,0-1.126,3.332V-.3h-4.621V-16.234h4.414Zm15.67,14.07a9.556,9.556,0,0,1-4.517-1.052,7.817,7.817,0,0,1-3.125-2.918,8.039,8.039,0,0,1-1.126-4.236,8.039,8.039,0,0,1,1.126-4.236,7.817,7.817,0,0,1,3.125-2.918,9.556,9.556,0,0,1,4.517-1.052,9.468,9.468,0,0,1,4.5,1.052,7.841,7.841,0,0,1,3.11,2.918,8.039,8.039,0,0,1,1.126,4.236,8.039,8.039,0,0,1-1.126,4.236,7.841,7.841,0,0,1-3.11,2.918A9.468,9.468,0,0,1,120.975-.061Zm0-3.792a3.849,3.849,0,0,0,2.918-1.2,4.472,4.472,0,0,0,1.14-3.214,4.472,4.472,0,0,0-1.14-3.214,3.849,3.849,0,0,0-2.918-1.2,3.9,3.9,0,0,0-2.932,1.2,4.438,4.438,0,0,0-1.155,3.214,4.438,4.438,0,0,0,1.155,3.214A3.9,3.9,0,0,0,120.975-3.853Z" transform="translate(1006.077 1611.634)" fill="#0f6bbe"/>
  </g>
</svg>
