<svg xmlns="http://www.w3.org/2000/svg" width="1140" height="370.006" viewBox="0 0 1140 370.006">
  <g id="Grupo_10026" data-name="Grupo 10026" transform="translate(-390 -855.994)">
    <rect id="Rectángulo_2513" data-name="Rectángulo 2513" width="1140" height="124" transform="translate(390 1081)" fill="#5f3bbf"/>
    <text id="Son_múltiples_los_beneficios_que_se_obtienen_con_la_constitución_de_la_S.A.S_algunos_son_los_siguientes." data-name="Son múltiples los beneficios que se obtienen con la constitución de la S.A.S, algunos son los siguientes." transform="translate(643 1109)" fill="#fff" font-size="18" font-family="OpenSans-SemiBold, Open Sans" font-weight="600"><tspan x="17.403" y="19">Son múltiples los beneficios que se obtienen con la constitución de la </tspan><tspan x="175.834" y="49">S.A.S, algunos son los siguientes.</tspan></text>
    <path id="Polígono_6" data-name="Polígono 6" d="M16,0,32,22H0Z" transform="translate(976 1226) rotate(180)" fill="#5f3bbf"/>
    <g id="Grupo_9949" data-name="Grupo 9949" transform="translate(81 25.5)">
      <g id="Grupo_9948" data-name="Grupo 9948" transform="translate(682 830.494)">
        <circle id="Elipse_616" data-name="Elipse 616" cx="64.544" cy="64.544" r="64.544" transform="translate(118.252 149.986) rotate(-80.71)" fill="#f1f7f8" opacity="0.85"/>
        <path id="Trazado_20210" data-name="Trazado 20210" d="M1630.247,394.58c-4.075-15-17.108-24.168-35.511-25.47v7.267a1.062,1.062,0,1,1-2.123,0V369c0-.012-.653-.028-.984-.035l-1.3-.029.083,73.628,1.3-.032c16.924-.423,30.12-7.651,36.2-19.832,0,0,3.5-8.277,3.587-13.019A109.2,109.2,0,0,0,1630.247,394.58Z" transform="translate(-1370.235 -314.801)" fill="#03abf2"/>
        <path id="Trazado_20211" data-name="Trazado 20211" d="M1584.17,311.7a6.309,6.309,0,1,1,6.308-6.31A6.316,6.316,0,0,1,1584.17,311.7Zm0-10.717a4.408,4.408,0,1,0,4.406,4.407A4.413,4.413,0,0,0,1584.17,300.988Z" transform="translate(-1366.591 -294.39)" fill="#243640"/>
        <path id="Trazado_20212" data-name="Trazado 20212" d="M1595.467,519.024a2.112,2.112,0,1,1-2.112-2.112A2.112,2.112,0,0,1,1595.467,519.024Z" transform="translate(-1370.501 -358.044)" fill="#243640"/>
        <path id="Trazado_20213" data-name="Trazado 20213" d="M1520.446,328.973a2.112,2.112,0,1,1-2.112-2.113A2.111,2.111,0,0,1,1520.446,328.973Z" transform="translate(-1348.579 -302.506)" fill="#03abf2"/>
        <path id="Trazado_20214" data-name="Trazado 20214" d="M1454.758,380.8h-12.043a1.268,1.268,0,0,1,0-2.536h12.043a1.268,1.268,0,0,1,0,2.536Z" transform="translate(-1326.728 -317.529)" fill="#243640"/>
        <path id="Trazado_20215" data-name="Trazado 20215" d="M1459.428,370.058h-5.071a1.268,1.268,0,1,1,0-2.535h5.071a1.268,1.268,0,0,1,0,2.535Z" transform="translate(-1330.13 -314.389)" fill="#243640"/>
        <path id="Trazado_20216" data-name="Trazado 20216" d="M1338.233,508.862h-10.141a1.268,1.268,0,1,1,0-2.535h10.141a1.268,1.268,0,0,1,0,2.535Z" transform="translate(-1293.232 -354.951)" fill="#243640"/>
        <path id="Trazado_20217" data-name="Trazado 20217" d="M1462.072,349.288a1.266,1.266,0,0,1-.424-.073l-8.761-3.1a1.268,1.268,0,1,1,.847-2.39l8.76,3.1a1.268,1.268,0,0,1-.422,2.463Z" transform="translate(-1329.824 -307.414)" fill="#243640"/>
        <path id="Trazado_20218" data-name="Trazado 20218" d="M1655.094,387.921a1.291,1.291,0,0,1-.181-.013,1.269,1.269,0,0,1-1.077-1.434l3.868-27.157c-.285-.562-.858-1.674-1.287-2.409a1.267,1.267,0,0,1,2.189-1.278c.634,1.085,1.506,2.83,1.543,2.9l.177.354-3.979,27.943A1.269,1.269,0,0,1,1655.094,387.921Z" transform="translate(-1388.789 -310.73)" fill="#243640"/>
        <path id="Trazado_20219" data-name="Trazado 20219" d="M1667.092,388.854a1.268,1.268,0,0,1-1.268-1.264c0-.2-.057-20.545.125-27.849l.007-.3,2-3.8a1.267,1.267,0,1,1,2.244,1.178l-1.721,3.277c-.171,7.508-.115,27.282-.115,27.484a1.267,1.267,0,0,1-1.263,1.271Z" transform="translate(-1392.294 -310.719)" fill="#243640"/>
        <path id="Trazado_20220" data-name="Trazado 20220" d="M1472.888,559.424c-3.121,0-15.766-.115-15.893-.117l-1.058-.011-.181-1.041c-.116-.67-11.588-66.568-19.24-96.17-.08,0-.165,0-.251,0-1.838,14.876-10.033,55.559-19.357,88.8.271.14.527.268.778.393.584.291,1.136.567,1.711.924a4.205,4.205,0,0,1,1.681,4.448,2.931,2.931,0,0,1-2.535,2.413c-2.588.357-17.014-.021-17.626-.038l-1.4-.037.18-1.391c.077-.6,7.771-60.211,13.315-100.978l.116-3.007.115-16.008a1.268,1.268,0,0,1,1.268-1.258h.009a1.268,1.268,0,0,1,1.258,1.277l-.117,16.049-.13,3.229c-5.07,37.281-11.976,91.053-13.173,100.3,4.814.113,14.017.517,15.836.265.248-.025.4-1.318.418-1.392a1.688,1.688,0,0,0-.548-1.718c-.477-.3-.954-.534-1.507-.809-.5-.252-1.078-.538-1.764-.924l-.87-.488.271-.961c9.6-34.006,18.06-76.195,19.663-90.3l.067-.6.5-.326a4.371,4.371,0,0,1,2.54-.393c.16.006.3.016.391.01l1.121-.163.249,1.1c7.152,27.233,18.112,88.195,19.631,96.869,3.045.028,11.514-.093,14.333-.088a3.609,3.609,0,0,0,.232-1.22,2,2,0,0,0-.837-1.678,8.239,8.239,0,0,0-2.082-1.166c-.311-.142-.684-.313-1.145-.528l-.61-.285-.105-.667c-3.079-19.549-8.081-55.5-11.07-76.973-.874-6.279-1.578-11.328-2.012-14.383a1.268,1.268,0,0,1,2.511-.357c.434,3.057,1.137,8.109,2.011,14.391,2.953,21.227,7.876,56.592,10.958,76.261l.517.236a10.636,10.636,0,0,1,2.547,1.442,4.552,4.552,0,0,1,1.738,4.673,2.93,2.93,0,0,1-2.181,2.368l-.227.019Z" transform="translate(-1314.474 -334.501)" fill="#243640"/>
        <path id="Trazado_20221" data-name="Trazado 20221" d="M1447.058,335.451a1.268,1.268,0,0,1-.331-2.491l3.3-.894-.07-5.79.936-.263c.03-.009,3.428-1.014,3.623-3.424a64.743,64.743,0,0,0-1.345-17.755,1.267,1.267,0,1,1,2.465-.592,66.15,66.15,0,0,1,1.406,18.55c-.249,3.1-3.029,4.688-4.528,5.322l.073,5.886-5.2,1.407A1.267,1.267,0,0,1,1447.058,335.451Z" transform="translate(-1327.997 -295.612)" fill="#243640"/>
        <path id="Trazado_20222" data-name="Trazado 20222" d="M1426.382,309.446a1.265,1.265,0,0,1-1.248-1.066,16.277,16.277,0,0,1,1.729-9.477c2.491-4.428,8.284-6.724,14.1-5.6a11.007,11.007,0,0,1,8.529,7.568l.139.406-.136.408c-1.312,3.931-7.053,4.965-12.332,5.625a2.349,2.349,0,0,0-1.747.941,1.268,1.268,0,1,1-2.485-.5c.288-1.442,1.973-2.713,3.918-2.956,4.368-.546,8.928-1.4,10.081-3.542a8.5,8.5,0,0,0-6.448-5.461c-4.758-.92-9.444.861-11.4,4.332a13.886,13.886,0,0,0-1.445,7.854,1.27,1.27,0,0,1-1.055,1.448A1.377,1.377,0,0,1,1426.382,309.446Z" transform="translate(-1321.926 -292.618)" fill="#243640"/>
        <path id="Trazado_20223" data-name="Trazado 20223" d="M1448.522,471.254a1.268,1.268,0,0,1-.183-2.522l8.136-1.2a1.268,1.268,0,0,1,.37,2.508l-8.137,1.2A1.174,1.174,0,0,1,1448.522,471.254Z" transform="translate(-1328.425 -343.611)" fill="#243640"/>
        <path id="Trazado_20224" data-name="Trazado 20224" d="M1667.131,470.432a1.234,1.234,0,0,1-.191-.013l-4.718-.708a1.267,1.267,0,1,1,.375-2.507l4.72.708a1.268,1.268,0,0,1-.186,2.521Z" transform="translate(-1390.928 -343.514)" fill="#243640"/>
        <path id="Trazado_20225" data-name="Trazado 20225" d="M1427.954,344.8a1.268,1.268,0,0,1-.493-2.436l2.6-1.094.147-11.866a1.267,1.267,0,0,1,1.267-1.251h.016a1.268,1.268,0,0,1,1.253,1.283l-.168,13.526-4.128,1.738A1.259,1.259,0,0,1,1427.954,344.8Z" transform="translate(-1322.414 -302.883)" fill="#243640"/>
        <path id="Trazado_20226" data-name="Trazado 20226" d="M1431.184,327.046a1.219,1.219,0,0,1-.161-.01,6.134,6.134,0,0,1-5.337-3.82,4.632,4.632,0,0,1,7-5.324,1.268,1.268,0,0,1-1.435,2.091,2.094,2.094,0,0,0-3.167,2.408c.455,1.326,1.98,1.97,3.254,2.129a1.268,1.268,0,0,1-.155,2.525Z" transform="translate(-1322.048 -299.649)" fill="#243640"/>
        <path id="Trazado_20227" data-name="Trazado 20227" d="M1440.5,449.759h-18.38a1.268,1.268,0,1,1,0-2.535h18.38a1.268,1.268,0,0,1,0,2.535Z" transform="translate(-1320.709 -337.679)" fill="#243640"/>
        <path id="Trazado_20228" data-name="Trazado 20228" d="M1696.478,463.406a1.268,1.268,0,0,1-1.265-1.2l-.708-13.921a1.267,1.267,0,1,1,2.531-.129l.709,13.921a1.268,1.268,0,0,1-1.2,1.331Z" transform="translate(-1400.677 -337.599)" fill="#243640"/>
        <path id="Trazado_20229" data-name="Trazado 20229" d="M1631.755,367.386a1.281,1.281,0,0,1-.206-.016,1.268,1.268,0,0,1-1.046-1.456c.3-1.843,1.986-11.142,5.584-13.171a110.853,110.853,0,0,1,13.412-5.754,1.268,1.268,0,1,1,.851,2.388,110.779,110.779,0,0,0-13.02,5.574c-1.871,1.057-3.658,7.287-4.327,11.373A1.267,1.267,0,0,1,1631.755,367.386Z" transform="translate(-1381.97 -308.367)" fill="#243640"/>
        <path id="Trazado_20230" data-name="Trazado 20230" d="M1667.036,567.541c-2.241,0-4.168-.04-5.022-.157a2.693,2.693,0,0,1-2.586-2.157,4.032,4.032,0,0,1,1.536-4.335,19,19,0,0,1,1.672-.929c.285-.145.573-.292.885-.461-1.457-12.774-3.38-27.521-5.6-44.541-1.777-13.635-3.785-29.056-5.73-44.908-.074,0-.147,0-.218,0-6.235,29.661-17.679,95.6-17.8,96.267l-.3.945-1.054.011c-.128,0-12.766.117-15.889.117h-.047l-.226-.019a3.087,3.087,0,0,1-2.281-2.464,4.4,4.4,0,0,1,1.574-4.562,10.166,10.166,0,0,1,2.493-1.454l.462-.216c1.458-13.424,4.357-34.215,6.921-52.6,2.371-17.005,4.065-31.689,4.645-38.016a1.267,1.267,0,1,1,2.524.231c-.585,6.386-2.282,21.1-4.659,38.135-2.607,18.689-5.56,39.869-6.988,53.223l-.074.7-.639.3c-.449.215-.814.385-1.119.528a7.733,7.733,0,0,0-2.007,1.155,1.852,1.852,0,0,0-.722,1.637,3.648,3.648,0,0,0,.483,1.365c2.8,0,11.283.116,14.333.089,1.525-8.664,12.323-69.691,18.091-96.9l.246-1.162,1.175.171c.07.008.193-.008.354-.015a4.439,4.439,0,0,1,2.532.383l.511.321.075.6c1.977,16.163,3.941,31.227,5.839,45.8,2.268,17.406,4.228,32.437,5.7,45.424l.093.824-.718.416c-.667.386-1.227.673-1.721.925a16.347,16.347,0,0,0-1.459.805,1.563,1.563,0,0,0-.439,1.605c.013.058.142.563.413.587,1.878.257,10.259.1,14.617-.013-.33-8.919-2.374-62.524-5.152-100.225a1.267,1.267,0,1,1,2.527-.186c3.03,41.079,5.184,101,5.206,101.6l.046,1.275-1.275.037C1677.9,567.715,1671.769,567.541,1667.036,567.541Z" transform="translate(-1377.227 -342.471)" fill="#243640"/>
        <path id="Trazado_20231" data-name="Trazado 20231" d="M1659.086,338.854a1.265,1.265,0,0,1-.943-.419,8.684,8.684,0,0,0-3.037-2.137l-.95-.355.133-1.008a34.934,34.934,0,0,0,.2-5.231c-2.772-1.885-4.367-5.708-4.746-11.381-.777-11.633.677-14.756.844-15.073a1.268,1.268,0,1,1,2.241,1.187h0s-1.275,2.922-.555,13.717c.34,5.1,1.743,8.452,4.061,9.709l.624.339.036.711a40.115,40.115,0,0,1-.091,5.427,11.28,11.28,0,0,1,3.125,2.4,1.268,1.268,0,0,1-.941,2.116Z" transform="translate(-1387.53 -295.41)" fill="#243640"/>
        <g id="Grupo_9943" data-name="Grupo 9943" transform="translate(202.354 48.03)">
          <path id="Trazado_20232" data-name="Trazado 20232" d="M1565.362,445.23l-.1-84.9,20.276-.023.1,84.9Z" transform="translate(-1565.264 -360.311)" fill="#03abf2"/>
          <path id="Trazado_20233" data-name="Trazado 20233" d="M1611.821,441.886h-5.7a1.268,1.268,0,0,1,0-2.535h5.7a1.268,1.268,0,1,1,0,2.535Z" transform="translate(-1576.832 -383.408)" fill="#fff"/>
          <path id="Trazado_20234" data-name="Trazado 20234" d="M1619.578,419.5H1608.8a1.268,1.268,0,0,1,0-2.535h10.776a1.268,1.268,0,0,1,0,2.535Z" transform="translate(-1577.617 -376.866)" fill="#fff"/>
          <path id="Trazado_20235" data-name="Trazado 20235" d="M1612.456,398.9h-6.339a1.268,1.268,0,0,1,0-2.535h6.339a1.268,1.268,0,1,1,0,2.535Z" transform="translate(-1576.832 -370.847)" fill="#fff"/>
        </g>
        <path id="Trazado_20236" data-name="Trazado 20236" d="M1666.611,308.525a1.269,1.269,0,0,1-1.265-1.207c-.022-.18-.268-1.27-2.628-1.27-.641,0-1.265.007-1.869.015-4.707.055-8.774.1-10.287-3.838l-.134-.349.077-.367a11.756,11.756,0,0,1,8.946-8.651c6.521-1.586,12.053,1.72,13.948,5.635a15.968,15.968,0,0,1,1.355,8.275,1.268,1.268,0,0,1-2.513-.34,13.559,13.559,0,0,0-1.124-6.831c-1.166-2.411-5.2-5.7-11.066-4.276a9.4,9.4,0,0,0-6.972,6.329c.962,1.866,3.383,1.927,7.741,1.876.614-.008,1.249-.015,1.9-.015,3.943,0,5.1,2.41,5.16,3.685a1.266,1.266,0,0,1-1.205,1.326Z" transform="translate(-1387.797 -292.451)" fill="#243640"/>
        <path id="Trazado_20237" data-name="Trazado 20237" d="M1682.481,344.8a1.265,1.265,0,0,1-.621-.164l-3.444-1.937-.269-13.419a1.268,1.268,0,0,1,2.535-.05l.24,11.971,2.181,1.227a1.268,1.268,0,0,1-.623,2.373Z" transform="translate(-1395.897 -302.835)" fill="#243640"/>
        <path id="Trazado_20238" data-name="Trazado 20238" d="M1676.783,326.814a1.267,1.267,0,0,1-.156-2.525c2.168-.274,2.675-1.181,2.869-1.841a2.259,2.259,0,0,0-1.491-2.715,2.02,2.02,0,0,0-1.839.239,1.267,1.267,0,0,1-1.466-2.067,4.589,4.589,0,0,1,4.116-.574,4.817,4.817,0,0,1,3.113,5.831c-.418,1.428-1.623,3.219-4.983,3.643A1.242,1.242,0,0,1,1676.783,326.814Z" transform="translate(-1394.734 -299.649)" fill="#243640"/>
        <path id="Trazado_20239" data-name="Trazado 20239" d="M1646.268,409.616a1.266,1.266,0,0,1-1.043-.549l-2.01-2.917a1.268,1.268,0,1,1,2.087-1.439l1.554,2.256,26.6-4.386.57-24.079a1.267,1.267,0,0,1,1.268-1.237h.029a1.268,1.268,0,0,1,1.238,1.3l-.6,25.13a1.265,1.265,0,0,1-1.06,1.22l-28.433,4.688A1.265,1.265,0,0,1,1646.268,409.616Z" transform="translate(-1385.623 -317.235)" fill="#243640"/>
        <path id="Trazado_20240" data-name="Trazado 20240" d="M1634.26,427.726a1.268,1.268,0,0,1-.29-2.5l6.013-1.421a1.267,1.267,0,1,1,.582,2.467l-6.013,1.42A1.251,1.251,0,0,1,1634.26,427.726Z" transform="translate(-1382.702 -330.826)" fill="#243640"/>
        <path id="Trazado_20241" data-name="Trazado 20241" d="M1655.47,433.648a1.267,1.267,0,0,1-1.251-1.083l-.713-4.841a1.267,1.267,0,1,1,2.508-.37l.713,4.842a1.272,1.272,0,0,1-1.257,1.452Z" transform="translate(-1388.693 -331.556)" fill="#243640"/>
        <path id="Trazado_20242" data-name="Trazado 20242" d="M1448.019,428.06a1.225,1.225,0,0,1-.285-.033,1.266,1.266,0,0,1-.951-1.518l.824-3.6a1.268,1.268,0,0,1,2.471.567l-.825,3.6A1.266,1.266,0,0,1,1448.019,428.06Z" transform="translate(-1328.278 -330.287)" fill="#243640"/>
        <path id="Trazado_20243" data-name="Trazado 20243" d="M1660.232,340.712a10.091,10.091,0,0,1-2.853-.4,1.268,1.268,0,0,1,.777-2.414,7.105,7.105,0,0,0,5.109-.477,1.267,1.267,0,1,1,1.277,2.189A8.513,8.513,0,0,1,1660.232,340.712Z" transform="translate(-1389.571 -305.543)" fill="#243640"/>
        <g id="Grupo_9944" data-name="Grupo 9944" transform="translate(324.151 27.926)">
          <path id="Trazado_20244" data-name="Trazado 20244" d="M1738.3,338.549a.951.951,0,0,1,0-1.9l6.708-.008h0a.951.951,0,1,1,0,1.9l-6.708.008Z" transform="translate(-1737.348 -333.29)" fill="#03abf2"/>
          <path id="Trazado_20245" data-name="Trazado 20245" d="M1743.04,340.515a.95.95,0,0,1-.951-.95l-.009-6.707a.952.952,0,0,1,.95-.951h0a.952.952,0,0,1,.951.949l.008,6.707a.952.952,0,0,1-.949.952Z" transform="translate(-1738.731 -331.907)" fill="#03abf2"/>
        </g>
        <g id="Grupo_9945" data-name="Grupo 9945" transform="translate(169.865 166.815)">
          <path id="Trazado_20246" data-name="Trazado 20246" d="M1520.322,536.076a.949.949,0,0,1-.673-1.621l6.019-6.037a.95.95,0,1,1,1.345,1.343L1521,535.8A.944.944,0,0,1,1520.322,536.076Z" transform="translate(-1519.364 -528.139)" fill="#243640"/>
          <path id="Trazado_20247" data-name="Trazado 20247" d="M1526.345,536.072a.952.952,0,0,1-.672-.278l-6.034-6.019a.951.951,0,0,1,1.343-1.345l6.034,6.018a.951.951,0,0,1-.672,1.624Z" transform="translate(-1519.361 -528.143)" fill="#243640"/>
        </g>
        <path id="Trazado_20248" data-name="Trazado 20248" d="M1339.3,454.784c-5.877,0-7.962-5.227-7.962-9.7v-33.2a5.626,5.626,0,0,0-1.563-4.309,5.748,5.748,0,0,0-4.053-1.355c-1.065.076-4.553.83-4.774,7.325-.082,2.445.05,23.554.057,24.863a5,5,0,0,1-1.144,3.648,5.567,5.567,0,0,1-4.4,1.682,3.891,3.891,0,0,1-2.885-1.182,6.593,6.593,0,0,1-1.459-4.424c-.01-.688-.127-9.5,0-12.284a1.763,1.763,0,0,0-.436-1.406,3.538,3.538,0,0,0-2.339-.718h-27.712a1.268,1.268,0,0,1,0-2.535h27.622a6.007,6.007,0,0,1,4.211,1.447,4.23,4.23,0,0,1,1.188,3.328c-.129,2.758,0,12.069,0,12.162,0,.023,0,.046,0,.069a4.228,4.228,0,0,0,.757,2.608,1.344,1.344,0,0,0,1.053.4,3.225,3.225,0,0,0,2.481-.807,2.529,2.529,0,0,0,.534-1.769c0-.042-.008-.1-.008-.142-.006-.915-.143-22.465-.055-25.026.3-8.833,5.987-9.686,7.125-9.768a8.165,8.165,0,0,1,5.963,2.029,8.04,8.04,0,0,1,2.371,6.165v33.2c0,1.681.391,7.167,5.426,7.167,2.644,0,5.348-.974,5.348-8.195V423.979a1.224,1.224,0,0,1,.016-.2c.285-1.809,2.078-5.209,6.826-5.209h.091c3.058.028,9.682-.13,9.749-.132h.032a1.268,1.268,0,0,1,.029,2.535c-.273.006-6.73.162-9.834.132h-.067c-3.494,0-4.2,2.493-4.306,2.988v19.959C1347.181,451.173,1344.529,454.784,1339.3,454.784Z" transform="translate(-1279.363 -324.951)" fill="#03abf2"/>
        <path id="Trazado_20249" data-name="Trazado 20249" d="M1386.28,397.186h-2.535a.951.951,0,1,1,0-1.9h2.535a.951.951,0,0,1,0,1.9Z" transform="translate(-1309.588 -322.501)" fill="#243640"/>
        <g id="Grupo_9946" data-name="Grupo 9946" transform="translate(123.119 48.474)">
          <path id="Trazado_20250" data-name="Trazado 20250" d="M1538.049,386.178c-.115-1.132-.2-2.593.708-2.535h9.508v12.042h-13.31c-.7,0-1.268-3.753-1.268-4.453s3.753-.56,4.453-.56" transform="translate(-1476.801 -367.573)" fill="#03abf2"/>
          <path id="Trazado_20251" data-name="Trazado 20251" d="M1548,453.893h-15.211V441.851H1548Z" transform="translate(-1476.539 -384.583)" fill="#03abf2"/>
          <path id="Trazado_20252" data-name="Trazado 20252" d="M1453.933,397.622c2.872-17.445,17.845-27.533,39.257-28.015l1.3-.029-.081,73.78-1.3-.032c-18.718-.465-34.956-8.8-37.935-23.794C1454.1,414.151,1452.384,407.035,1453.933,397.622Z" transform="translate(-1453.314 -363.464)" fill="#03abf2"/>
          <path id="Trazado_20253" data-name="Trazado 20253" d="M1528.086,446.037l-20.313-.023.094-85.075,20.315.023Z" transform="translate(-1469.229 -360.939)" fill="#03abf2"/>
          <path id="Trazado_20254" data-name="Trazado 20254" d="M1494.121,444.386h-6.338a1.268,1.268,0,1,1,0-2.535h6.338a1.268,1.268,0,1,1,0,2.535Z" transform="translate(-1463.016 -384.583)" fill="#fff"/>
          <path id="Trazado_20255" data-name="Trazado 20255" d="M1490.5,422h-10.776a1.268,1.268,0,0,1,0-2.535H1490.5a1.268,1.268,0,0,1,0,2.535Z" transform="translate(-1460.661 -378.041)" fill="#fff"/>
          <path id="Trazado_20256" data-name="Trazado 20256" d="M1494.121,401.4h-6.338a1.268,1.268,0,1,1,0-2.535h6.338a1.268,1.268,0,1,1,0,2.535Z" transform="translate(-1463.016 -372.022)" fill="#fff"/>
        </g>
        <path id="Trazado_20257" data-name="Trazado 20257" d="M1301.779,444.386h-9.507a1.268,1.268,0,0,1,0-2.535h9.507a1.268,1.268,0,1,1,0,2.535Z" transform="translate(-1282.765 -336.109)" fill="#03abf2"/>
        <g id="Grupo_9947" data-name="Grupo 9947" transform="translate(311.22 136.866)">
          <path id="Trazado_20258" data-name="Trazado 20258" d="M1721.49,490.2a1.964,1.964,0,1,1,1.964-1.963A1.965,1.965,0,0,1,1721.49,490.2Zm0-3.358a1.4,1.4,0,1,0,1.4,1.4A1.4,1.4,0,0,0,1721.49,486.843Z" transform="translate(-1719.209 -485.957)" fill="#243640"/>
          <path id="Trazado_20259" data-name="Trazado 20259" d="M1721.359,490.388a2.281,2.281,0,1,1,2.28-2.279A2.283,2.283,0,0,1,1721.359,490.388Zm0-3.358a1.079,1.079,0,1,0,1.077,1.079A1.08,1.08,0,0,0,1721.359,487.029Z" transform="translate(-1719.078 -485.826)" fill="#243640"/>
        </g>
        <path id="Trazado_20260" data-name="Trazado 20260" d="M1774.471,361.237a1.18,1.18,0,1,1-1.179-1.179A1.18,1.18,0,0,1,1774.471,361.237Z" transform="translate(-1423.356 -312.207)" fill="#243640"/>
        <path id="Trazado_20261" data-name="Trazado 20261" d="M1739.679,451.823c-5.65,0-8.516-3.885-8.516-11.548V418.567c-.093-.544-.771-3.324-4.637-3.324h-.076c-3.392.032-11.5.047-11.5.047l-.008-2.535s8.1-.016,11.486-.047h.1c5.11,0,6.921,3.659,7.164,5.606a1.329,1.329,0,0,1,.008.157v21.8c0,7.989,3.2,9.013,5.981,9.013,5.626,0,6.063-6.043,6.063-7.9V405.33a8.589,8.589,0,0,1,2.54-6.586,8.882,8.882,0,0,1,6.487-2.2c1.232.088,7.4,1.009,7.725,10.507.062,1.8.023,9.383-.015,16.714-.02,4.064-.039,7.95-.039,10.467,0,1.559.534,3.419,3.077,3.419a1.875,1.875,0,0,0,1.447-.554,5.021,5.021,0,0,0,.963-3.137V421.8a5.684,5.684,0,0,1,1.679-4.342,6.328,6.328,0,0,1,4.407-1.527h25.738a1.268,1.268,0,0,1,0,2.535h-25.773c-.029,0-.057,0-.084,0a3.889,3.889,0,0,0-2.566.857,3.273,3.273,0,0,0-.865,2.479v12.119a7.44,7.44,0,0,1-1.674,4.942,4.435,4.435,0,0,1-3.27,1.326c-3.41,0-5.612-2.337-5.612-5.954,0-2.52.019-6.41.04-10.48.035-6.966.076-14.861.016-16.614-.248-7.328-4.519-8-5.374-8.064a6.482,6.482,0,0,0-4.579,1.529,6.171,6.171,0,0,0-1.73,4.729v36.063C1748.277,446.2,1746.025,451.823,1739.679,451.823Z" transform="translate(-1406.649 -322.863)" fill="#03abf2"/>
        <path id="Trazado_20262" data-name="Trazado 20262" d="M1810.022,434.908h-5.334a1.268,1.268,0,0,1,0-2.535h5.334a1.268,1.268,0,0,1,0,2.535Z" transform="translate(-1432.505 -333.34)" fill="#03abf2"/>
        <path id="Trazado_20263" data-name="Trazado 20263" d="M1640.16,413.863a1.267,1.267,0,0,1-.536-.119l-2.654-1.239a1.267,1.267,0,0,1,1.071-2.3l2.315,1.079,43.533-6.17c.185-5.168.966-27.927.669-38.859-.108-3.973-.21-7.724-11.661-12.929a1.267,1.267,0,1,1,1.048-2.308c11.945,5.429,13,9.894,13.146,15.168.338,12.4-.7,39.808-.709,40.083a1.267,1.267,0,0,1-1.089,1.207l-44.955,6.371A1.157,1.157,0,0,1,1640.16,413.863Z" transform="translate(-1383.651 -309.533)" fill="#243640"/>
        <path id="Trazado_20264" data-name="Trazado 20264" d="M1506.617,413.449a1.062,1.062,0,0,1-1.062-1.062V360.012a1.062,1.062,0,1,1,2.123,0v52.375A1.062,1.062,0,0,1,1506.617,413.449Z" transform="translate(-1345.462 -311.884)" fill="#fff"/>
        <path id="Trazado_20265" data-name="Trazado 20265" d="M1443.272,409.616a1.219,1.219,0,0,1-.2-.017l-5.266-.852-.076-.015-36.308-8.163a1.266,1.266,0,0,1-.986-1.332c.017-.233,1.807-23.463,5.689-39.962.689-2.932,1.6-5.93,4.495-7.558a55.08,55.08,0,0,1,8.072-3.34c.8-.282,1.543-.547,2.205-.795a1.268,1.268,0,0,1,.891,2.374c-.675.253-1.439.523-2.248.81a54.164,54.164,0,0,0-7.676,3.16c-1.809,1.018-2.569,2.945-3.27,5.929-3.361,14.278-5.138,33.709-5.541,38.483l35.2,7.913,4.911.794,2.746-.961c.508-1.045,1.352-2.855,1.822-4.14a12.811,12.811,0,0,0-1.87-.625,1.268,1.268,0,0,1,.616-2.46,9.524,9.524,0,0,1,3.657,1.632,1.267,1.267,0,0,1,.333,1.2,42.658,42.658,0,0,1-2.515,5.982,1.269,1.269,0,0,1-.714.63l-3.54,1.239A1.275,1.275,0,0,1,1443.272,409.616Z" transform="translate(-1314.742 -308.538)" fill="#243640"/>
        <path id="Trazado_20266" data-name="Trazado 20266" d="M1445.9,407.2a1.287,1.287,0,0,1-.367-.053L1421.812,400a1.266,1.266,0,0,1-.889-1.389l2.495-17.924a1.267,1.267,0,1,1,2.51.35l-2.346,16.849,22.289,6.709,4.452-1.521a1.268,1.268,0,0,1,.82,2.4l-4.838,1.652A1.245,1.245,0,0,1,1445.9,407.2Z" transform="translate(-1320.727 -317.917)" fill="#243640"/>
      </g>
    </g>
  </g>
</svg>
