<svg xmlns="http://www.w3.org/2000/svg" width="1140" height="317.143" viewBox="0 0 1140 317.143">
  <g id="Grupo_10023" data-name="Grupo 10023" transform="translate(-390 -1490.857)">
    <rect id="Rectángulo_2298" data-name="Rectángulo 2298" width="1140" height="124" transform="translate(390 1663)" fill="#5f3bbf"/>
    <text id="Los_documentos_requeridos_para_este_proceso_son_los_siguientes:_" data-name="Los documentos requeridos para este proceso son los siguientes: " transform="translate(618 1708)" fill="#fff" font-size="18" font-family="OpenSans-SemiBold, Open Sans" font-weight="600"><tspan x="59.599" y="19">Los documentos requeridos para este proceso son los siguientes: </tspan></text>
    <path id="Polígono_5" data-name="Polígono 5" d="M16,0,32,22H0Z" transform="translate(976 1808) rotate(180)" fill="#5f3bbf"/>
    <g id="Grupo_9882" data-name="Grupo 9882" transform="translate(735.321 1283.274)">
      <path id="Trazado_20033" data-name="Trazado 20033" d="M311.973,350.429a51.656,51.656,0,1,1-51.656-51.656A51.657,51.657,0,0,1,311.973,350.429Z" transform="translate(-43.178 -36.805)" fill="#f1f7f8" opacity="0.85"/>
      <path id="Trazado_20035" data-name="Trazado 20035" d="M256.408,488.321H163.294a1.1,1.1,0,0,1-.946-.537l-6.627-11.062a1.1,1.1,0,0,1,.946-1.671h85.767a1.1,1.1,0,0,1,.933.515l2.163,3.427,10.871-.063h.006a1.1,1.1,0,0,1,.007,2.206l-11.484.066h-.006a1.1,1.1,0,0,1-.933-.514l-2.165-3.432H158.615l5.3,8.858h92.488a1.1,1.1,0,1,1,0,2.206Z" transform="translate(-21.749 -107.951)" fill="#243640"/>
      <path id="Trazado_20036" data-name="Trazado 20036" d="M417.627,488.321H324.512a1.1,1.1,0,1,1,0-2.206H417l5.3-8.858H339.095l-2.165,3.432a1.1,1.1,0,0,1-.933.514h-.007l-11.483-.066a1.1,1.1,0,0,1,.006-2.206h.007l10.871.063,2.163-3.427a1.1,1.1,0,0,1,.933-.515h85.766a1.1,1.1,0,0,1,.946,1.671l-6.626,11.062A1.1,1.1,0,0,1,417.627,488.321Z" transform="translate(-89.491 -107.951)" fill="#243640"/>
      <path id="Trazado_20037" data-name="Trazado 20037" d="M202.887,306.769a1.86,1.86,0,1,1-1.86-1.86A1.86,1.86,0,0,1,202.887,306.769Z" transform="translate(-39.347 -39.281)" fill="#405059"/>
      <path id="Trazado_20038" data-name="Trazado 20038" d="M214.818,306.769a1.979,1.979,0,1,1-1.977-1.86A1.921,1.921,0,0,1,214.818,306.769Z" transform="translate(-44.068 -39.281)" fill="#405059"/>
      <path id="Trazado_20039" data-name="Trazado 20039" d="M227.238,306.769a1.859,1.859,0,1,1-1.859-1.86A1.86,1.86,0,0,1,227.238,306.769Z" transform="translate(-49.176 -39.281)" fill="#405059"/>
      <path id="Trazado_20040" data-name="Trazado 20040" d="M439.881,402.091a1.193,1.193,0,0,1-1.193-1.193V300.2c0-5.083-3.083-10.229-8.975-10.229H405.29a1.193,1.193,0,1,1,0-2.386h24.423c6.477,0,11.361,5.423,11.361,12.614V400.9A1.193,1.193,0,0,1,439.881,402.091Z" transform="translate(-122.057 -32.288)" fill="#243640"/>
      <path id="Trazado_20041" data-name="Trazado 20041" d="M186.29,401.5A1.193,1.193,0,0,1,185.1,400.3V300.2c0-6.72,6.143-12.614,13.146-12.614h16.673a1.193,1.193,0,0,1,0,2.386H198.243c-5.632,0-10.761,4.876-10.761,10.229V400.3A1.193,1.193,0,0,1,186.29,401.5Z" transform="translate(-33.668 -32.288)" fill="#243640"/>
      <path id="Trazado_20042" data-name="Trazado 20042" d="M200.127,468.692a1.1,1.1,0,0,1-1.1-1.1V454.941a1.1,1.1,0,0,1,2.207,0v12.648A1.1,1.1,0,0,1,200.127,468.692Z" transform="translate(-39.289 -99.39)" fill="#243640"/>
      <path id="Trazado_20043" data-name="Trazado 20043" d="M203.989,259.519a4.155,4.155,0,1,1,4.154-4.156A4.161,4.161,0,0,1,203.989,259.519Zm0-6.1a1.948,1.948,0,1,0,1.947,1.947A1.95,1.95,0,0,0,203.989,253.416Z" transform="translate(-39.615 -17.608)" fill="#243640"/>
      <path id="Trazado_20044" data-name="Trazado 20044" d="M504.519,458.654a4.154,4.154,0,1,1,4.154-4.156A4.161,4.161,0,0,1,504.519,458.654Zm0-6.1a1.948,1.948,0,1,0,1.947,1.947A1.95,1.95,0,0,0,504.519,452.552Z" transform="translate(-160.911 -97.98)" fill="#243640"/>
      <path id="Trazado_20045" data-name="Trazado 20045" d="M110.732,438.494a1.952,1.952,0,1,1-1.78-2.109A1.951,1.951,0,0,1,110.732,438.494Z" transform="translate(-2.081 -92.342)" fill="#03abf2"/>
      <path id="Trazado_20046" data-name="Trazado 20046" d="M337.01,223.587a1.952,1.952,0,1,1-1.78-2.111A1.95,1.95,0,0,1,337.01,223.587Z" transform="translate(-93.408 -5.605)" fill="#03abf2"/>
      <path id="Trazado_20047" data-name="Trazado 20047" d="M489.377,422.576a1.952,1.952,0,1,1-1.78-2.112A1.95,1.95,0,0,1,489.377,422.576Z" transform="translate(-154.904 -85.917)" fill="#243640"/>
      <path id="Trazado_20048" data-name="Trazado 20048" d="M419.487,235.335l-7.2-7.2,7.2-7.2,7.2,7.2Zm-4.083-7.2,4.083,4.083,4.084-4.083-4.084-4.082Z" transform="translate(-125.362 -5.386)" fill="#243640"/>
      <path id="Trazado_20049" data-name="Trazado 20049" d="M140.9,413.855l-7.2-7.2,7.2-7.2,7.2,7.2Zm-4.083-7.2,4.083,4.083,4.083-4.083-4.083-4.082Z" transform="translate(-12.924 -77.438)" fill="#03abf2"/>
      <g id="Grupo_9873" data-name="Grupo 9873" transform="translate(101.679 254.011)">
        <path id="Trazado_20050" data-name="Trazado 20050" d="M102.782,296.625a1.1,1.1,0,0,1,0-2.207L113.5,294.4h0a1.1,1.1,0,0,1,0,2.207l-10.717.014Z" transform="translate(-101.679 -289.053)" fill="#243640"/>
        <path id="Trazado_20051" data-name="Trazado 20051" d="M111.769,298.354a1.1,1.1,0,0,1-1.1-1.1l-.013-10.717a1.1,1.1,0,0,1,1.1-1.1h0a1.1,1.1,0,0,1,1.1,1.1l.013,10.717a1.1,1.1,0,0,1-1.1,1.1Z" transform="translate(-105.301 -285.431)" fill="#243640"/>
      </g>
      <g id="Grupo_9875" data-name="Grupo 9875" transform="translate(132.344 218.668)">
        <path id="Trazado_20052" data-name="Trazado 20052" d="M154.29,294.572a1.192,1.192,0,0,1-1.193-1.193v-38.3l9.542-7.29V227.776a1.193,1.193,0,1,1,2.386,0v21.19l-9.542,7.29v37.124A1.193,1.193,0,0,1,154.29,294.572Z" transform="translate(-153.097 -226.336)" fill="#3a4a53"/>
        <g id="Grupo_9874" data-name="Grupo 9874" transform="translate(5.056)">
          <path id="Trazado_20053" data-name="Trazado 20053" d="M161.575,231.992l.97.9,4.444-4.782,4.445,4.782.97-.9-5.415-5.823Z" transform="translate(-161.575 -226.169)" fill="#3a4a53"/>
        </g>
      </g>
      <g id="Grupo_9876" data-name="Grupo 9876" transform="translate(333.344 309.038)">
        <path id="Trazado_20054" data-name="Trazado 20054" d="M491.224,388.038a1.1,1.1,0,0,1,0-2.207l9.7-.012h0a1.1,1.1,0,0,1,0,2.207l-9.7.012Z" transform="translate(-490.121 -380.975)" fill="#03abf2"/>
        <path id="Trazado_20055" data-name="Trazado 20055" d="M499.357,389.6a1.1,1.1,0,0,1-1.1-1.1l-.011-9.7a1.1,1.1,0,0,1,1.1-1.1h0a1.1,1.1,0,0,1,1.1,1.1l.011,9.7a1.1,1.1,0,0,1-1.1,1.105Z" transform="translate(-493.399 -377.697)" fill="#03abf2"/>
      </g>
      <g id="Grupo_9878" data-name="Grupo 9878" transform="translate(329.632 242.174)">
        <path id="Trazado_20056" data-name="Trazado 20056" d="M490.29,299.578a1.192,1.192,0,0,1-1.193-1.193V266.776a1.193,1.193,0,0,1,2.386,0v31.609A1.193,1.193,0,0,1,490.29,299.578Z" transform="translate(-485.996 -265.583)" fill="#03abf2"/>
        <g id="Grupo_9877" data-name="Grupo 9877" transform="translate(0 0.23)">
          <path id="Trazado_20057" data-name="Trazado 20057" d="M483.9,270.822l.808.753,3.7-3.985,3.7,3.985.808-.753-4.513-4.852Z" transform="translate(-483.897 -265.969)" fill="#03abf2"/>
        </g>
      </g>
      <g id="Grupo_9880" data-name="Grupo 9880" transform="translate(180.396 207.583)">
        <path id="Trazado_20058" data-name="Trazado 20058" d="M240.29,227.86a1.192,1.192,0,0,1-1.193-1.193V208.776a1.193,1.193,0,1,1,2.386,0v17.892A1.193,1.193,0,0,1,240.29,227.86Z" transform="translate(-235.859 -207.583)" fill="#03abf2"/>
        <g id="Grupo_9879" data-name="Grupo 9879" transform="translate(0 0.236)">
          <path id="Trazado_20059" data-name="Trazado 20059" d="M233.668,212.831l.808.752,3.7-3.985,3.7,3.985.808-.752-4.513-4.852Z" transform="translate(-233.668 -207.979)" fill="#03abf2"/>
        </g>
      </g>
      <path id="Trazado_20060" data-name="Trazado 20060" d="M504.29,329.089A1.192,1.192,0,0,1,503.1,327.9V314.776a1.193,1.193,0,1,1,2.386,0V327.9A1.193,1.193,0,0,1,504.29,329.089Z" transform="translate(-162.014 -42.782)" fill="#03abf2"/>
      <path id="Trazado_20061" data-name="Trazado 20061" d="M140.29,343.824a1.192,1.192,0,0,1-1.193-1.193V318.776a1.193,1.193,0,0,1,2.386,0v23.856A1.193,1.193,0,0,1,140.29,343.824Z" transform="translate(-15.102 -44.397)" fill="#243640"/>
      <g id="Grupo_9881" data-name="Grupo 9881" transform="translate(243.992 284.245)">
        <path id="Trazado_20062" data-name="Trazado 20062" d="M406.655,379.39a1.1,1.1,0,0,1-.7-1.96L418,367.643l-.342-5.325a1.1,1.1,0,0,1,2.2-.141l.414,6.46-12.92,10.5A1.1,1.1,0,0,1,406.655,379.39Z" transform="translate(-366.636 -346.223)" fill="#03abf2"/>
        <path id="Trazado_20063" data-name="Trazado 20063" d="M424.525,347.927a1.1,1.1,0,0,1-.663-1.986l2.259-1.694-3.778-5.031-2.256,1.7a1.1,1.1,0,0,1-1.326-1.764l4.02-3.024,6.43,8.562-4.025,3.018A1.1,1.1,0,0,1,424.525,347.927Z" transform="translate(-371.789 -336.125)" fill="#03abf2"/>
        <path id="Trazado_20064" data-name="Trazado 20064" d="M341.4,385.615a1.1,1.1,0,0,1-1.057-1.418l3.673-12.369a1.1,1.1,0,0,1,.394-.568l41.43-31.183a1.1,1.1,0,0,1,1.554.23l7.7,10.5a1.1,1.1,0,0,1-.214,1.524l-40.815,31.7a1.106,1.106,0,0,1-.553.225l-11.984,1.352A1.084,1.084,0,0,1,341.4,385.615Zm4.627-12.81-3.1,10.423,10.02-1.131,39.724-30.849-6.4-8.736Z" transform="translate(-340.3 -337.631)" fill="#03abf2"/>
        <path id="Trazado_20065" data-name="Trazado 20065" d="M353.615,401.565a1.1,1.1,0,0,1-.872-.426l-4.647-5.987a1.1,1.1,0,1,1,1.743-1.353l4.646,5.985a1.1,1.1,0,0,1-.871,1.78Z" transform="translate(-343.353 -359.231)" fill="#03abf2"/>
      </g>
      <path id="Trazado_20066" data-name="Trazado 20066" d="M292.655,410.678h0c-1.747,0-1.963-2.01-2.1-3.264-.048-.427-.126-.911-.246-1.507h-.009c-.964,0-3.052,1.777-4.429,3.477a1.1,1.1,0,1,1-1.715-1.375c.652-.807,4.044-4.8,6.752-4.214,1.5.329,1.7,2.041,1.84,3.29.008.07.017.148.026.23.943-1.6,2.219-4.207,3.3-6.425,2.782-5.695,3.664-7.3,4.573-7.707a1.1,1.1,0,0,1,.853-.024c2.217.856,2.323,4.618,2.231,10.259-.02,1.282-.041,2.511.014,3.343a17.735,17.735,0,0,0,5.473-3.1,1.1,1.1,0,0,1,1.35,1.746c-2.4,1.85-6.691,4.706-8.559,3.057a1.105,1.105,0,0,1-.352-.61,26.3,26.3,0,0,1-.132-4.469c.028-1.728.094-5.808-.41-7.473-.8,1.322-2.068,3.924-3.058,5.95-2.118,4.335-3.583,7.351-4.61,8.394A1.213,1.213,0,0,1,292.655,410.678Z" transform="translate(-73.546 -74.869)" fill="#03abf2"/>
      <rect id="Rectángulo_2504" data-name="Rectángulo 2504" width="2.207" height="4.872" transform="translate(203.13 263.789) rotate(-89.292)" fill="#03abf2"/>
      <path id="Trazado_20067" data-name="Trazado 20067" d="M269.218,274.9H257.29a1.193,1.193,0,1,1,0-2.386h9.542V261.776a1.193,1.193,0,0,1,2.386,0Z" transform="translate(-62.324 -21.391)" fill="#03abf2"/>
      <rect id="Rectángulo_2505" data-name="Rectángulo 2505" width="22.204" height="2.207" transform="translate(224.13 248.38)" fill="#03abf2"/>
      <rect id="Rectángulo_2506" data-name="Rectángulo 2506" width="44.616" height="2.207" transform="translate(212 269.219)" fill="#03abf2"/>
      <rect id="Rectángulo_2507" data-name="Rectángulo 2507" width="48.345" height="2.207" transform="translate(212 261.642)" fill="#03abf2"/>
      <rect id="Rectángulo_2508" data-name="Rectángulo 2508" width="23.705" height="2.207" transform="translate(226.173 276.795)" fill="#03abf2"/>
      <rect id="Rectángulo_2509" data-name="Rectángulo 2509" width="9.373" height="2.207" transform="translate(212 276.795)" fill="#03abf2"/>
      <rect id="Rectángulo_2510" data-name="Rectángulo 2510" width="44.616" height="2.207" transform="translate(212 294.817)" fill="#03abf2"/>
      <rect id="Rectángulo_2511" data-name="Rectángulo 2511" width="23.705" height="2.207" transform="translate(226.173 302.393)" fill="#03abf2"/>
      <rect id="Rectángulo_2512" data-name="Rectángulo 2512" width="9.373" height="2.207" transform="translate(212 302.393)" fill="#03abf2"/>
      <path id="Trazado_20068" data-name="Trazado 20068" d="M248.419,366.176h-2.207V268.144l15.906-18.81,73.246.154.4,55.024-2.207.016-.387-52.839-70.033-.147-14.721,17.409Z" transform="translate(-58.334 -16.851)" fill="#03abf2"/>
      <path id="Trazado_20069" data-name="Trazado 20069" d="M342.253,433.531h-79.97v-2.206h77.764V415.605h2.207Z" transform="translate(-64.82 -83.959)" fill="#03abf2"/>
      <path id="Trazado_20070" data-name="Trazado 20070" d="M433.2,371.217a1.1,1.1,0,0,1-1.1-1.1V304.985H410.37a1.1,1.1,0,0,1,0-2.207H433.2a1.1,1.1,0,0,1,1.1,1.1v66.233A1.1,1.1,0,0,1,433.2,371.217Z" transform="translate(-124.144 -38.421)" fill="#243640"/>
      <path id="Trazado_20071" data-name="Trazado 20071" d="M448.651,436.824a1.1,1.1,0,0,1-1.1-1.1V425.548a1.1,1.1,0,0,1,2.207,0v10.173A1.1,1.1,0,0,1,448.651,436.824Z" transform="translate(-139.594 -87.527)" fill="#243640"/>
      <path id="Trazado_20072" data-name="Trazado 20072" d="M200.7,404.165a1.1,1.1,0,0,1-1.1-1.1V340.685a1.1,1.1,0,0,1,2.207,0v62.377A1.1,1.1,0,0,1,200.7,404.165Z" transform="translate(-39.518 -53.275)" fill="#243640"/>
      <path id="Trazado_20073" data-name="Trazado 20073" d="M390.738,340.612l6.8,11.563-40.13,32.161L348.58,372.31Z" transform="translate(-99.65 -53.691)" fill="#03abf2" opacity="0.73"/>
    </g>
  </g>
</svg>
