<svg xmlns="http://www.w3.org/2000/svg" width="369.948" height="358.123" viewBox="0 0 369.948 358.123">
  <g id="Grupo_10022" data-name="Grupo 10022" transform="translate(-5166.521 -465.086)">
    <g id="Grupo_10011" data-name="Grupo 10011" transform="translate(5168.521 467.675)">
      <g id="Grupo_10010" data-name="Grupo 10010" transform="translate(49.573 37.159)">
        <g id="Grupo_10009" data-name="Grupo 10009">
          <g id="Grupo_10008" data-name="Grupo 10008">
            <g id="Grupo_10007" data-name="Grupo 10007">
              <g id="Grupo_10006" data-name="Grupo 10006">
                <g id="Grupo_10005" data-name="Grupo 10005">
                  <g id="Grupo_10004" data-name="Grupo 10004">
                    <circle id="Elipse_624" data-name="Elipse 624" cx="133.401" cy="133.401" r="133.401" fill="#92e0ff"/>
                  </g>
                </g>
              </g>
            </g>
          </g>
        </g>
      </g>
      <path id="Trazado_20390" data-name="Trazado 20390" stroke="#0c6bc2" d="M5265.562,490.976a183.268,183.268,0,0,0-90.821,209.056" fill="none" transform="translate(-5168.521 -481.996)" stroke-linecap="round" stroke-linejoin="round" stroke-width="4" stroke-dasharray="46.154"/>
      <path id="Trazado_20391" data-name="Trazado 20391" stroke="#0c6bc2" d="M5908.237,547.728a183.629,183.629,0,0,0-92.675-80.053" fill="none" transform="translate(-5566.205 -467.675)" stroke-linecap="round" stroke-linejoin="round" stroke-width="4" stroke-dasharray="46.154"/>
      <path id="Trazado_20392" data-name="Trazado 20392" stroke="#0c6bc2" d="M6075.38,969.156a182.3,182.3,0,0,0,16.462-75.957q0-5.383-.308-10.692" fill="none" transform="translate(-5725.894 -722.639)" stroke-linecap="round" stroke-linejoin="round" stroke-width="4" stroke-dasharray="46.154"/>
      <path id="Trazado_20393" data-name="Trazado 20393" stroke="#0c6bc2" d="M5446.21,1342.321a183.774,183.774,0,0,0,124.435,9.971" fill="none" transform="translate(-5339.194 -1005.249)" stroke-linecap="round" stroke-linejoin="round" stroke-width="4" stroke-dasharray="46.154"/>
    </g>
    <g id="Grupo_10017" data-name="Grupo 10017" transform="translate(5187.591 472.962)">
      <g id="Grupo_10015" data-name="Grupo 10015" transform="translate(14.954)">
        <path id="Trazado_20394" data-name="Trazado 20394" d="M5586.2,481.395H5507.76c-11.436,0-20.706,8.254-20.706,18.437v32.162c-1.224,14.5,1.358,20.944,14.089,21.219l2.448.149v19.775c0,2.277,3.007,3.5,4.939,2.009l14.045-20.029a4.125,4.125,0,0,1,3.377-1.756H5586.2c11.436,0,20.706-8.255,20.706-18.437V499.832C5606.9,489.649,5597.631,481.395,5586.2,481.395Z" transform="translate(-5398.153 -481.395)" fill="#fff" stroke="#0b6bc0" stroke-linecap="round" stroke-linejoin="round" stroke-width="3"/>
        <g id="Grupo_10014" data-name="Grupo 10014" transform="translate(0 45.953)">
          <ellipse id="Elipse_625" data-name="Elipse 625" cx="24.138" cy="24.226" rx="24.138" ry="24.226" transform="translate(24.715)" fill="#fff" stroke="#0b6bc0" stroke-linecap="round" stroke-linejoin="round" stroke-width="3"/>
          <g id="Grupo_10013" data-name="Grupo 10013" transform="translate(0 58.774)">
            <g id="Grupo_10012" data-name="Grupo 10012">
              <path id="Trazado_20395" data-name="Trazado 20395" d="M5354.066,780.062c-.521-20.1-20.706-26.761-31.253-26.761h-.389l-34.525-.157c-.071,0-.146,0-.22,0l-.407.007c-16.945.376-30.611,13.612-30.463,29.5l.651,70.4c.055,5.992,5.4,10.8,11.792,10.753a11.879,11.879,0,0,0,9.868-5.2v96.375c0,7.751,5.311,13.987,13.755,14.036,11.41.067,13.3-11.793,13.3-11.793s2.031,10.546,12.335,11.825c8.355,1.037,15.632-4.328,15.632-12.148V860.7a12.065,12.065,0,0,0,8.682,3.6h.067c6.457-.034,11.662-4.918,11.626-10.908Z" transform="translate(-5256.808 -753.145)" fill="#fff" stroke="#0b6bc0" stroke-linecap="round" stroke-linejoin="round" stroke-width="3"/>
            </g>
            <line id="Línea_51" data-name="Línea 51" x1="0.087" y2="70.33" transform="translate(22.313 35.134)" fill="#fff" stroke="#0b6bc0" stroke-linecap="round" stroke-linejoin="round" stroke-width="3"/>
            <line id="Línea_52" data-name="Línea 52" y2="72.42" transform="translate(77.332 35.134)" fill="#fff" stroke="#0b6bc0" stroke-linecap="round" stroke-linejoin="round" stroke-width="3"/>
            <line id="Línea_53" data-name="Línea 53" y2="99.732" transform="translate(49.364 104.35)" fill="#fff" stroke="#0b6bc0" stroke-linecap="round" stroke-linejoin="round" stroke-width="3"/>
          </g>
        </g>
        <circle id="Elipse_626" data-name="Elipse 626" cx="6.251" cy="6.251" r="6.251" transform="matrix(0.987, -0.16, 0.16, 0.987, 169.997, 31.593)" fill="#64bdfa" stroke="#0b6bc0" stroke-linejoin="round" stroke-width="3"/>
        <circle id="Elipse_627" data-name="Elipse 627" cx="6.251" cy="6.251" r="6.251" transform="translate(141.168 32.115) rotate(-13.282)" fill="#64bdfa" stroke="#0b6bc0" stroke-linejoin="round" stroke-width="3"/>
        <circle id="Elipse_628" data-name="Elipse 628" cx="6.251" cy="6.251" r="6.251" transform="matrix(0.987, -0.16, 0.16, 0.987, 113.035, 31.594)" fill="#64bdfa" stroke="#0b6bc0" stroke-linejoin="round" stroke-width="3"/>
      </g>
      <g id="Grupo_10016" data-name="Grupo 10016" transform="translate(0 202.914)">
        <rect id="Rectángulo_2516" data-name="Rectángulo 2516" width="53.299" height="48.676" rx="4.57" transform="translate(0 12.873)" stroke-width="3" stroke="#0b6bc0" stroke-linecap="round" stroke-linejoin="round" fill="#c8f2ff"/>
        <path id="Trazado_20396" data-name="Trazado 20396" d="M5271.3,1061.742l-5.487,13.453-1.072,2.772c-1.606,4.185-5.044,6.9-8.853,6.9h-22.477c-3.79,0-7.211-2.687-8.829-6.836l-1.121-2.9L5218,1061.742" transform="translate(-5218.004 -1041.002)" fill="none" stroke="#0b6bc0" stroke-linecap="round" stroke-linejoin="round" stroke-width="3"/>
        <path id="Rectángulo_2517" data-name="Rectángulo 2517" d="M4.4,0H16.77a4.4,4.4,0,0,1,4.4,4.4v8.478a0,0,0,0,1,0,0H0a0,0,0,0,1,0,0V4.4A4.4,4.4,0,0,1,4.4,0Z" transform="translate(15.78)" fill="#fff" stroke="#0b6bc0" stroke-linecap="round" stroke-linejoin="round" stroke-width="3"/>
      </g>
    </g>
    <g id="Grupo_10021" data-name="Grupo 10021" transform="translate(5337.893 576.131)">
      <path id="Trazado_20397" data-name="Trazado 20397" d="M5690.808,1045.589v79.66a5.64,5.64,0,0,0,5.641,5.64h53.044a5.64,5.64,0,0,1,5.64,5.641h0a5.64,5.64,0,0,1-5.64,5.64h-68.456v-96.58a3.916,3.916,0,0,1,3.916-3.916h1.938A3.916,3.916,0,0,1,5690.808,1045.589Z" transform="translate(-5652.896 -928.922)" fill="#64bdfa" stroke="#0b6bc0" stroke-linejoin="round" stroke-width="3"/>
      <g id="Grupo_10018" data-name="Grupo 10018" transform="translate(52.913 69.002)">
        <circle id="Elipse_629" data-name="Elipse 629" cx="29.008" cy="29.008" r="29.008" transform="translate(47.778 56.463) rotate(-76.717)" stroke-width="3" stroke="#0b6bc0" stroke-linecap="round" stroke-linejoin="round" fill="#fff"/>
        <path id="Trazado_20398" data-name="Trazado 20398" d="M5826.505,1173.78l-16.623,22.444c-2.7,4.132-51.528,1.122-51.528,1.122-7.852-1.114-13.836-8.141-12.951-16.021.915-8.145,8.51-12.871,16.42-12.729l29.011.576a9.192,9.192,0,0,0,8.808-6.012s11.386-26.3,17.679-34.337l.061-.079a26.022,26.022,0,0,1,18.543-9.746c23.83-1.572,34.8,12.592,36.176,31.2l3.871,49.93H5761.658" transform="translate(-5745.317 -1045.375)" fill="#fff" stroke="#0b6bc0" stroke-linecap="round" stroke-linejoin="round" stroke-width="3"/>
      </g>
      <path id="Trazado_20399" data-name="Trazado 20399" d="M5613.413,1306.882a5.075,5.075,0,0,1,4.861-5.262l128.7-.518.786,11.02H5618.273A5.068,5.068,0,0,1,5613.413,1306.882Z" transform="translate(-5611.333 -1088.372)" fill="#fff" stroke="#0b6bc0" stroke-linecap="round" stroke-linejoin="round" stroke-width="3"/>
      <rect id="Rectángulo_2518" data-name="Rectángulo 2518" width="39.592" height="39.592" transform="translate(39.592 39.592) rotate(180)" stroke-width="3" stroke="#0b6bc0" stroke-linecap="round" stroke-linejoin="round" fill="#fff"/>
      <g id="Grupo_10019" data-name="Grupo 10019" transform="translate(72.465)">
        <rect id="Rectángulo_2519" data-name="Rectángulo 2519" width="39.592" height="39.592" transform="translate(39.592 39.592) rotate(180)" stroke-width="3" stroke="#0b6bc0" stroke-linecap="round" stroke-linejoin="round" fill="#c8f2ff"/>
        <path id="Trazado_20400" data-name="Trazado 20400" d="M5822.972,766.405l8.111,8.106L5850.7,749.1" transform="translate(-5812.596 -749.102)" fill="none" stroke="#0b6bc0" stroke-linecap="round" stroke-linejoin="round" stroke-width="3"/>
      </g>
      <g id="Grupo_10020" data-name="Grupo 10020" transform="translate(145.967)">
        <rect id="Rectángulo_2520" data-name="Rectángulo 2520" width="39.592" height="39.592" transform="translate(39.592 39.592) rotate(180)" stroke-width="3" stroke="#0b6bc0" stroke-linecap="round" stroke-linejoin="round" fill="#c8f2ff"/>
        <path id="Trazado_20401" data-name="Trazado 20401" d="M6013.7,766.405l8.11,9.353,19.615-26.656" transform="translate(-6003.323 -749.102)" fill="none" stroke="#0b6bc0" stroke-linecap="round" stroke-linejoin="round" stroke-width="3"/>
      </g>
    </g>
  </g>
</svg>
