<svg xmlns="http://www.w3.org/2000/svg" width="426.413" height="448.809" viewBox="0 0 426.413 448.809">
  <g id="Grupo_10003" data-name="Grupo 10003" transform="translate(-704.001 -1076.422)">
    <g id="Grupo_10002" data-name="Grupo 10002" transform="translate(704.001 1076.422)">
      <path id="Trazado_20298" data-name="Trazado 20298" d="M675.9,2110.818a2.963,2.963,0,1,1-2.7-3.2A2.961,2.961,0,0,1,675.9,2110.818Z" transform="translate(-613.633 -1735.263)" fill="#33408f"/>
      <path id="Trazado_20299" data-name="Trazado 20299" d="M868.037,1069.165a2.963,2.963,0,1,1-2.7-3.2A2.962,2.962,0,0,1,868.037,1069.165Z" transform="translate(-766.483 -906.597)" fill="#03abf2"/>
      <path id="Trazado_20300" data-name="Trazado 20300" d="M2274.818,1680a2.963,2.963,0,1,1-2.7-3.2A2.964,2.964,0,0,1,2274.818,1680Z" transform="translate(-1885.619 -1392.536)" fill="#33408f"/>
      <circle id="Elipse_623" data-name="Elipse 623" cx="105.17" cy="105.17" r="105.17" transform="translate(68.905 219.744) rotate(-45)" fill="#f1f7f8" opacity="0.85"/>
      <g id="Grupo_9982" data-name="Grupo 9982" transform="translate(285.022 194.766)">
        <path id="Trazado_20301" data-name="Trazado 20301" d="M1818.818,1266.3a1.567,1.567,0,0,1-1.567-1.567V1240.71a1.567,1.567,0,1,1,3.134,0v24.026A1.567,1.567,0,0,1,1818.818,1266.3Z" transform="translate(-1811.339 -1239.143)" fill="#03abf2"/>
        <g id="Grupo_9981" data-name="Grupo 9981" transform="translate(0 0.066)">
          <path id="Trazado_20302" data-name="Trazado 20302" d="M1788.335,1247.278l1.3,1.211,5.96-6.414,5.963,6.414,1.3-1.211-7.263-7.81Z" transform="translate(-1788.335 -1239.468)" fill="#03abf2"/>
        </g>
      </g>
      <path id="Trazado_20303" data-name="Trazado 20303" d="M950.33,2131.771a1.568,1.568,0,0,1-1.567-1.567V2104.09a1.567,1.567,0,1,1,3.134,0V2130.2A1.567,1.567,0,0,1,950.33,2131.771Z" transform="translate(-835.409 -1731.221)" fill="#33408f"/>
      <path id="Trazado_20304" data-name="Trazado 20304" d="M1001.417,1125.347a1.567,1.567,0,0,1-1.567-1.567v-26.115a1.567,1.567,0,1,1,3.134,0v26.115A1.567,1.567,0,0,1,1001.417,1125.347Z" transform="translate(-876.05 -930.58)" fill="#03abf2"/>
      <path id="Trazado_20305" data-name="Trazado 20305" d="M822.612,1946.812a1.567,1.567,0,0,1-1.567-1.567v-25.07a1.567,1.567,0,0,1,3.134,0v25.07A1.567,1.567,0,0,1,822.612,1946.812Z" transform="translate(-733.805 -1584.911)" fill="#03abf2"/>
      <path id="Trazado_20306" data-name="Trazado 20306" d="M935,1224.274a1.567,1.567,0,0,1-1.567-1.567v-17.758a1.567,1.567,0,1,1,3.134,0v17.758A1.567,1.567,0,0,1,935,1224.274Z" transform="translate(-823.217 -1015.928)" fill="#03abf2"/>
      <path id="Trazado_20307" data-name="Trazado 20307" d="M1757.513,1373.471a1.567,1.567,0,0,1-1.567-1.567v-18.8a1.567,1.567,0,1,1,3.134,0v18.8A1.567,1.567,0,0,1,1757.513,1373.471Z" transform="translate(-1477.547 -1133.788)" fill="#03abf2"/>
      <path id="Trazado_20308" data-name="Trazado 20308" d="M1875.014,2273.771a1.567,1.567,0,0,1-1.567-1.566v-25.07a1.567,1.567,0,0,1,3.134,0v25.07A1.567,1.567,0,0,1,1875.014,2273.771Z" transform="translate(-1571.022 -1845.018)" fill="#33408f"/>
      <g id="Grupo_9984" data-name="Grupo 9984" transform="translate(133.201 331.608)">
        <path id="Trazado_20309" data-name="Trazado 20309" d="M1047.4,2012.85a1.567,1.567,0,0,1-1.567-1.567v-58.944l12.535-11.066v-31.315a1.567,1.567,0,0,1,3.134,0v32.729l-12.535,11.066v57.53A1.567,1.567,0,0,1,1047.4,2012.85Z" transform="translate(-1045.829 -1908.391)" fill="#03abf2"/>
        <g id="Grupo_9983" data-name="Grupo 9983" transform="translate(6.525 0.135)">
          <path id="Trazado_20310" data-name="Trazado 20310" d="M1077.739,1916.859l1.3,1.212,5.962-6.415,5.961,6.415,1.3-1.212-7.262-7.81Z" transform="translate(-1077.739 -1909.049)" fill="#03abf2"/>
        </g>
      </g>
      <path id="Trazado_20311" data-name="Trazado 20311" d="M2250.7,1927.669a1.568,1.568,0,0,1-1.567-1.567v-13.58a1.567,1.567,0,0,1,3.134,0v13.58A1.567,1.567,0,0,1,2250.7,1927.669Z" transform="translate(-1869.893 -1578.824)" fill="#33408f"/>
      <g id="Grupo_9985" data-name="Grupo 9985" transform="translate(332.563 398.444)">
        <path id="Trazado_20312" data-name="Trazado 20312" d="M2022.672,2247.591a1.776,1.776,0,0,1-1.259-3.03l8.752-8.775a1.777,1.777,0,0,1,2.516,2.51l-8.752,8.773A1.775,1.775,0,0,1,2022.672,2247.591Z" transform="translate(-2020.885 -2235.265)" fill="#33408f"/>
        <path id="Trazado_20313" data-name="Trazado 20313" d="M2031.392,2247.619a1.765,1.765,0,0,1-1.255-.518l-8.773-8.752a1.775,1.775,0,1,1,2.507-2.513l8.773,8.752a1.774,1.774,0,0,1-1.253,3.031Z" transform="translate(-2020.842 -2235.305)" fill="#33408f"/>
      </g>
      <g id="Grupo_9986" data-name="Grupo 9986" transform="translate(76.129 226.396)">
        <path id="Trazado_20314" data-name="Trazado 20314" d="M768.534,1406.158a1.776,1.776,0,0,1-1.257-3.03l8.753-8.774a1.776,1.776,0,1,1,2.514,2.509l-8.753,8.774A1.771,1.771,0,0,1,768.534,1406.158Z" transform="translate(-766.747 -1393.832)" fill="#33408f"/>
        <path id="Trazado_20315" data-name="Trazado 20315" d="M777.255,1406.186a1.768,1.768,0,0,1-1.254-.519l-8.774-8.752a1.776,1.776,0,0,1,2.508-2.514l8.774,8.752a1.776,1.776,0,0,1-1.254,3.033Z" transform="translate(-766.706 -1393.872)" fill="#33408f"/>
      </g>
      <g id="Grupo_9988" data-name="Grupo 9988" transform="translate(341.509 297.773)">
        <path id="Trazado_20316" data-name="Trazado 20316" d="M2108.27,1831.612a1.567,1.567,0,0,1-1.567-1.567v-40.278l-13.58-11.066v-32.223a1.567,1.567,0,0,1,3.134,0v30.736l13.58,11.066v41.765A1.567,1.567,0,0,1,2108.27,1831.612Z" transform="translate(-2087.29 -1744.503)" fill="#03abf2"/>
        <g id="Grupo_9987" data-name="Grupo 9987" transform="translate(0 0)">
          <path id="Trazado_20317" data-name="Trazado 20317" d="M2064.6,1750.726l1.3,1.21,5.959-6.412,5.964,6.412,1.3-1.21-7.263-7.81Z" transform="translate(-2064.596 -1742.916)" fill="#03abf2"/>
        </g>
      </g>
      <path id="Trazado_20318" data-name="Trazado 20318" d="M1868.314,1993.933a8.467,8.467,0,1,1,8.469-8.467A8.476,8.476,0,0,1,1868.314,1993.933Zm0-13.382a4.915,4.915,0,1,0,4.917,4.915A4.921,4.921,0,0,0,1868.314,1980.551Z" transform="translate(-1560.203 -1631.363)" fill="#03abf2"/>
      <path id="Trazado_20319" data-name="Trazado 20319" d="M833.227,2332.727a7.953,7.953,0,1,1,7.953-7.953A7.962,7.962,0,0,1,833.227,2332.727Zm0-12.354a4.4,4.4,0,1,0,4.4,4.4A4.405,4.405,0,0,0,833.227,2320.373Z" transform="translate(-737.171 -1901.702)" fill="#33408f"/>
      <path id="Trazado_20320" data-name="Trazado 20320" d="M1709.013,1040.408l-7.906-7.9,7.906-7.905,7.906,7.905Zm-2.883-7.9,2.883,2.882,2.883-2.882-2.883-2.883Z" transform="translate(-1433.921 -873.701)" fill="#33408f"/>
      <path id="Trazado_20321" data-name="Trazado 20321" d="M641.709,1755.3l-7.907-7.9,7.907-7.906,7.907,7.906Zm-2.884-7.9,2.884,2.881,2.884-2.881-2.884-2.885Z" transform="translate(-584.848 -1442.42)" fill="#33408f"/>
      <path id="Trazado_20322" data-name="Trazado 20322" d="M1588.021,1491.3a1.769,1.769,0,0,1-1.253-.518c-.416-.414-41.6-41.427-52.362-48.36-7.435-4.787-21.62-6.706-21.763-6.725a1.776,1.776,0,1,1,.465-3.521c.612.081,15.114,2.04,23.219,7.26,10.156,6.539,44.725,40.668,51.752,47.641L1636.8,1443l1.279-8.634a1.776,1.776,0,1,1,3.513.52l-1.373,9.264a1.764,1.764,0,0,1-.565,1.057l-50.44,45.638A1.774,1.774,0,0,1,1588.021,1491.3Z" transform="translate(-1282.765 -1197.93)" fill="#33408f"/>
      <path id="Trazado_20323" data-name="Trazado 20323" d="M1711.425,1548.189c-4.138,0-8.447-1.787-12.588-5.368-19.323-12.258-32.419-20.867-32.549-20.953a1.776,1.776,0,0,1,1.953-2.967c.13.086,13.253,8.714,32.612,20.992a1.835,1.835,0,0,1,.216.161c7.082,6.177,14.108,6.118,19.786-.168,2.469-2.732,3.952-4.452,6.2-7.053,4.87-5.641,13.021-15.081,41.616-46.932a1.778,1.778,0,0,1,.661-.462l21.844-8.751a1.776,1.776,0,1,1,1.32,3.3l-21.459,8.6c-28.349,31.578-36.448,40.958-41.294,46.571-2.262,2.62-3.756,4.352-6.251,7.114C1719.928,1546.212,1715.772,1548.189,1711.425,1548.189Z" transform="translate(-1405.585 -1233.25)" fill="#33408f"/>
      <path id="Trazado_20324" data-name="Trazado 20324" d="M624.164,1566.516a13.749,13.749,0,0,1-11.326-5.917c-4.927-6.392-5.782-7.341-20.085-23.183-6.167-6.831-14.823-16.42-27.37-30.4l-21.46-8.6a1.776,1.776,0,1,1,1.321-3.3l21.844,8.75a1.787,1.787,0,0,1,.661.462c12.694,14.139,21.43,23.816,27.641,30.7,14.39,15.94,15.251,16.9,20.262,23.4a10.652,10.652,0,0,0,7.371,4.472c6.218.675,12.289-4.378,12.35-4.429a1.486,1.486,0,0,1,.162-.122l50.809-33.7a1.775,1.775,0,1,1,1.963,2.958l-50.732,33.649C636.769,1561.92,630.9,1566.516,624.164,1566.516Z" transform="translate(-512.459 -1247.919)" fill="#33408f"/>
      <path id="Trazado_20325" data-name="Trazado 20325" d="M1462.272,1854.962c-.6,0-.984-.008-1.1-.01a1.568,1.568,0,0,1-1.534-1.567v-36.214a1.567,1.567,0,0,1,3.134,0v34.649c5.875-.061,27.152-.853,38.124-8.954-5.951-12.586-8.936-21.679-11.611-42.661-1.716-13.445-.4-43.748-.347-45.031a1.567,1.567,0,0,1,3.132.139c-.014.312-1.357,31.317.324,44.495,2.7,21.177,5.711,29.975,11.87,42.842a1.57,1.57,0,0,1-.414,1.885C1491.938,1854.381,1467.793,1854.962,1462.272,1854.962Z" transform="translate(-1241.823 -1453.704)" fill="#33408f"/>
      <path id="Trazado_20326" data-name="Trazado 20326" d="M1253.168,1795.932a1.7,1.7,0,0,1-.249-.017,146.138,146.138,0,0,1-26.353-6.214,1.776,1.776,0,0,1-1.116-2.132c.085-.312,8.41-31.382,10-49.2,1.686-18.949-4.057-54.579-4.115-54.937a1.776,1.776,0,0,1,3.505-.571c.241,1.479,5.874,36.426,4.148,55.824-1.424,15.981-7.92,41.488-9.679,48.194a149.32,149.32,0,0,0,24.105,5.523,1.775,1.775,0,0,1-.245,3.534Z" transform="translate(-1055.473 -1396.179)" fill="#33408f"/>
      <path id="Trazado_20327" data-name="Trazado 20327" d="M1451.156,1158.578h-7.836a1.567,1.567,0,0,1,0-3.134h6.269v-18.5a1.567,1.567,0,0,1,1.294-1.543c.365-.066,9.034-1.741,9.707-9.994,1.338-16.386-3-37.3-3.038-37.511a1.567,1.567,0,1,1,3.067-.644c.184.872,4.472,21.564,3.095,38.41-.628,7.687-6.871,11.355-10.991,12.524v18.828A1.567,1.567,0,0,1,1451.156,1158.578Z" transform="translate(-1227.598 -922.551)" fill="#33408f"/>
      <path id="Trazado_20328" data-name="Trazado 20328" d="M1116.84,1097.046q-.079,0-.159-.007a1.775,1.775,0,0,1-1.612-1.926c1.485-16.781,11.554-23.9,20.437-30.173,5.93-4.191,11.056-7.814,12.884-13.66,1.21-7.214.174-13.69-.83-19.953-.9-5.613-1.746-10.915-.909-16.281,3.349-17.964,17.337-26.9,36.493-23.365,6.1,1.124,14.412,4.76,19.378,15.7l.323.709-.3.718c-7.612,17.974-36.071,13.275-37.279,13.066a1.776,1.776,0,0,1,.6-3.5c.262.045,26.066,4.295,33.084-10.245-3.466-7.135-9.138-11.608-16.449-12.955-17.274-3.18-29.365,4.472-32.349,20.472-.742,4.76.063,9.792.916,15.12,1.005,6.275,2.143,13.387.805,21.225l-.052.218c-2.152,7.072-8.035,11.229-14.264,15.631-8.656,6.117-17.608,12.443-18.948,27.586A1.776,1.776,0,0,1,1116.84,1097.046Z" transform="translate(-967.704 -846.909)" fill="#33408f"/>
      <path id="Trazado_20329" data-name="Trazado 20329" d="M738.7,1358.753a1.77,1.77,0,0,1-1.2-.471l-49.41-45.636a1.774,1.774,0,0,1-.534-.945l-2.058-9.951a1.775,1.775,0,1,1,3.477-.719l1.943,9.393,47.761,44.112c7.109-6.849,42.125-40.41,52.27-46.943,8.041-5.177,24.629-8.9,25.331-9.055l8.574-2.015-.283-33.066a1.774,1.774,0,1,1,3.549-.031l.3,34.486a1.777,1.777,0,0,1-1.37,1.744L817.065,1302c-.187.042-16.693,3.745-24.2,8.579-10.778,6.94-52.513,47.269-52.933,47.675A1.769,1.769,0,0,1,738.7,1358.753Z" transform="translate(-625.939 -1062.294)" fill="#33408f"/>
      <path id="Trazado_20330" data-name="Trazado 20330" d="M1336.742,1206.058c-.059,0-.117,0-.176-.009-5.276-.519-8.719-2.779-10.236-6.718a8.885,8.885,0,0,1,4.986-11.515,8.769,8.769,0,0,1,7.9.854,1.776,1.776,0,1,1-1.935,2.978,5.213,5.213,0,0,0-4.694-.517,5.328,5.328,0,0,0-2.946,6.924c1.008,2.619,3.384,4.078,7.267,4.459a1.776,1.776,0,0,1-.17,3.543Z" transform="translate(-1135.291 -1003.09)" fill="#33408f"/>
      <path id="Trazado_20331" data-name="Trazado 20331" d="M1584.2,1642.458a1.777,1.777,0,0,1-.58-3.456c.38-.133,9.416-3.434,8.928-13.59-.465-9.661-7.049-13.706-7.116-13.745a1.775,1.775,0,0,1,1.822-3.048c.339.2,8.287,5.082,8.842,16.621.616,12.857-11.2,17.079-11.319,17.119A1.784,1.784,0,0,1,1584.2,1642.458Z" transform="translate(-1339.502 -1338.105)" fill="#33408f"/>
      <path id="Trazado_20332" data-name="Trazado 20332" d="M1363.36,1474.179a1.768,1.768,0,0,1-1.279-.547l-27.9-29.038a1.776,1.776,0,0,1,2.563-2.46l27.9,29.038a1.777,1.777,0,0,1-1.281,3.007Z" transform="translate(-1141.628 -1205.429)" fill="#33408f"/>
      <path id="Trazado_20333" data-name="Trazado 20333" d="M1471.9,1465.773a1.8,1.8,0,0,1-.477-.065,1.778,1.778,0,0,1-1.235-2.188l8.378-30.066a1.776,1.776,0,0,1,3.422.954l-8.377,30.066A1.778,1.778,0,0,1,1471.9,1465.773Z" transform="translate(-1250.166 -1197.923)" fill="#33408f"/>
      <path id="Trazado_20334" data-name="Trazado 20334" d="M1658.475,2255.5a1.575,1.575,0,0,1-.2-.01,1.775,1.775,0,0,1-1.569-1.96c2.255-20.3,3.285-40.824-4.384-53.439a1.776,1.776,0,1,1,3.034-1.846c8.222,13.525,7.2,34.753,4.88,55.677A1.777,1.777,0,0,1,1658.475,2255.5Z" transform="translate(-1394.906 -1806.693)" fill="#33408f"/>
      <path id="Trazado_20335" data-name="Trazado 20335" d="M1220,2259.5a1.773,1.773,0,0,1-1.765-1.6c-.137-1.412-.286-2.879-.439-4.391-1.646-16.24-3.694-36.452,2.118-50.01a1.776,1.776,0,1,1,3.264,1.4c-5.449,12.712-3.368,33.253-1.848,48.251.153,1.518.3,2.991.439,4.407a1.774,1.774,0,0,1-1.6,1.938A1.616,1.616,0,0,1,1220,2259.5Z" transform="translate(-1048.048 -1810.695)" fill="#33408f"/>
      <path id="Trazado_20336" data-name="Trazado 20336" d="M1379.41,1681.428a1.776,1.776,0,0,1-.242-3.536c.387-.055,9.57-1.489,9.8-10.709a16.04,16.04,0,0,0-1.315-7.653c-.168-.392-.308-.728-.4-1.028a1.776,1.776,0,0,1,3.385-1.075c.066.206.168.435.284.7a19.444,19.444,0,0,1,1.6,9.142c-.248,9.813-8.526,13.539-12.866,14.139A2,2,0,0,1,1379.41,1681.428Z" transform="translate(-1176.591 -1376.147)" fill="#33408f"/>
      <path id="Trazado_20337" data-name="Trazado 20337" d="M1472.04,1594.967a1.777,1.777,0,0,1-1.775-1.744l-.144-7.807a1.776,1.776,0,0,1,1.743-1.808,1.8,1.8,0,0,1,1.809,1.743l.143,7.807a1.776,1.776,0,0,1-1.745,1.808Z" transform="translate(-1250.164 -1318.408)" fill="#33408f"/>
      <g id="Grupo_10001" data-name="Grupo 10001" transform="translate(0 0)">
        <g id="Grupo_9990" data-name="Grupo 9990" transform="translate(70.252 51.323)">
          <path id="Trazado_20338" data-name="Trazado 20338" d="M766.415,581.029a1.566,1.566,0,0,1-1.567-1.567v-38.65a1.567,1.567,0,0,1,3.134,0v38.65A1.566,1.566,0,0,1,766.415,581.029Z" transform="translate(-759.351 -538.911)" fill="#03abf2"/>
          <g id="Grupo_9989" data-name="Grupo 9989">
            <path id="Trazado_20339" data-name="Trazado 20339" d="M737.965,545.42l1.3,1.211,5.96-6.414,5.962,6.414,1.3-1.211-7.263-7.81Z" transform="translate(-737.965 -537.61)" fill="#03abf2"/>
          </g>
        </g>
        <g id="Grupo_9992" data-name="Grupo 9992" transform="translate(263.924 0)">
          <path id="Trazado_20340" data-name="Trazado 20340" d="M1716.643,312.943a1.567,1.567,0,0,1-1.567-1.567V290.485a1.567,1.567,0,1,1,3.134,0v20.892A1.567,1.567,0,0,1,1716.643,312.943Z" transform="translate(-1708.958 -288.445)" fill="#03abf2"/>
          <g id="Grupo_9991" data-name="Grupo 9991">
            <path id="Trazado_20341" data-name="Trazado 20341" d="M1685.153,294.413l1.3,1.211,5.961-6.414,5.962,6.414,1.3-1.211-7.263-7.81Z" transform="translate(-1685.153 -286.603)" fill="#03abf2"/>
          </g>
        </g>
        <g id="Grupo_9993" data-name="Grupo 9993" transform="translate(150.378 16.128)">
          <path id="Trazado_20342" data-name="Trazado 20342" d="M1131.655,377.284a1.776,1.776,0,0,1-1.257-3.03l8.234-8.253a1.776,1.776,0,0,1,2.516,2.508l-8.236,8.253A1.769,1.769,0,0,1,1131.655,377.284Z" transform="translate(-1129.87 -365.479)" fill="#03abf2"/>
          <path id="Trazado_20343" data-name="Trazado 20343" d="M1139.865,377.307a1.772,1.772,0,0,1-1.255-.519l-8.253-8.233a1.776,1.776,0,1,1,2.507-2.515l8.255,8.233a1.776,1.776,0,0,1-1.255,3.033Z" transform="translate(-1129.836 -365.513)" fill="#03abf2"/>
        </g>
        <g id="Grupo_9995" data-name="Grupo 9995" transform="translate(189.338 13.072)">
          <path id="Trazado_20344" data-name="Trazado 20344" d="M1418.1,719.806a1.776,1.776,0,0,1-.329-3.521l17.426-3.3a1.776,1.776,0,0,1,.661,3.49l-17.425,3.3A1.8,1.8,0,0,1,1418.1,719.806Z" transform="translate(-1396.707 -638.853)" fill="#03abf2"/>
          <path id="Trazado_20345" data-name="Trazado 20345" d="M1418.1,758.016a1.776,1.776,0,0,1-.329-3.521l17.426-3.3a1.776,1.776,0,0,1,.661,3.49l-17.425,3.3A1.811,1.811,0,0,1,1418.1,758.016Z" transform="translate(-1396.707 -669.251)" fill="#03abf2"/>
          <path id="Trazado_20346" data-name="Trazado 20346" d="M1339.721,423.012a1.777,1.777,0,0,1-1.776-1.776v-5.592a1.525,1.525,0,0,1,.013-.2c.015-.18.383-4.908-5.542-9.52-7.516-5.345-12.042-14.606-12.042-24.727a30.641,30.641,0,1,1,61.282,0c0,12.194-4.242,19.872-14.638,26.487-5.248,3.942-4.937,10.564-4.933,10.631a1.776,1.776,0,0,1-1.532,1.859L1339.963,423A1.75,1.75,0,0,1,1339.721,423.012Zm1.776-7.295V419.2l17.083-2.344a16.533,16.533,0,0,1,6.37-12.065c.035-.026.071-.05.108-.074,9.389-5.957,13.047-12.553,13.047-23.524a27.089,27.089,0,1,0-54.178,0c0,8.974,3.966,17.153,10.611,21.879C1341.684,408.634,1341.568,414.723,1341.5,415.717Z" transform="translate(-1320.374 -350.535)" fill="#03abf2"/>
          <g id="Grupo_9994" data-name="Grupo 9994" transform="translate(20.026 11.995)">
            <path id="Trazado_20347" data-name="Trazado 20347" d="M1428.673,458.019h-2.793c-4.451,0-7.565-2.734-7.565-6.649a7.871,7.871,0,0,1,7.565-7.953h10.031a1.51,1.51,0,0,1,0,3.02H1425.88a4.875,4.875,0,0,0-4.542,4.933c0,2.675,2.348,3.631,4.542,3.631h2.793a1.509,1.509,0,1,1,0,3.018Z" transform="translate(-1418.315 -436.421)" fill="#03abf2"/>
            <path id="Trazado_20348" data-name="Trazado 20348" d="M1431.95,514.671H1420.6a1.51,1.51,0,1,1,0-3.02h11.349c2.2,0,4.542-.953,4.542-3.628a2.16,2.16,0,0,1,.016-.225,3.794,3.794,0,0,0-.771-3.179,5,5,0,0,0-3.786-1.533h-4.111a1.509,1.509,0,1,1,0-3.018h4.111a8.034,8.034,0,0,1,6.074,2.58,6.755,6.755,0,0,1,1.489,5.487C1439.452,511.99,1436.361,514.671,1431.95,514.671Z" transform="translate(-1418.931 -481.488)" fill="#03abf2"/>
            <path id="Trazado_20349" data-name="Trazado 20349" d="M1459.56,418.493a1.507,1.507,0,0,1-1.507-1.509V410.71a1.509,1.509,0,1,1,3.017,0v6.273A1.51,1.51,0,0,1,1459.56,418.493Z" transform="translate(-1449.928 -409.201)" fill="#03abf2"/>
            <path id="Trazado_20350" data-name="Trazado 20350" d="M1459.56,569.549a1.509,1.509,0,0,1-1.507-1.513v-6.27a1.509,1.509,0,1,1,3.017,0v6.27A1.513,1.513,0,0,1,1459.56,569.549Z" transform="translate(-1449.928 -529.369)" fill="#03abf2"/>
          </g>
        </g>
        <path id="Trazado_20351" data-name="Trazado 20351" d="M1709.026,539.443a7.1,7.1,0,1,1,7.1-7.1A7.109,7.109,0,0,1,1709.026,539.443Zm0-10.652a3.55,3.55,0,1,0,3.552,3.55A3.553,3.553,0,0,0,1709.026,528.791Z" transform="translate(-1434.572 -476.445)" fill="#03abf2"/>
        <g id="Grupo_9996" data-name="Grupo 9996" transform="translate(355.357 163.672)">
          <path id="Trazado_20352" data-name="Trazado 20352" d="M2173.305,1320.468l-13.2-.007.01-20.22,13.2.009Zm-9.646-3.557,6.1,0,.01-13.115-6.1,0Z" transform="translate(-2154.424 -1256.655)" fill="#03abf2"/>
          <path id="Trazado_20353" data-name="Trazado 20353" d="M2248.382,1259.083l-13.2-.009.021-36.007,13.2.006Zm-9.648-3.558,6.1,0,.016-28.906-6.1,0Z" transform="translate(-2214.148 -1195.26)" fill="#03abf2"/>
          <path id="Trazado_20354" data-name="Trazado 20354" d="M2327.755,1274.92l-13.2-.006.021-32.5,13.2.009Zm-9.646-3.557,6.1,0,.014-25.4-6.094,0Z" transform="translate(-2277.294 -1210.651)" fill="#03abf2"/>
          <path id="Trazado_20355" data-name="Trazado 20355" d="M2404.977,1234.006l-13.2-.007.024-43.027,13.2.007Zm-9.648-3.557,6.1,0,.021-35.924-6.1,0Z" transform="translate(-2338.724 -1169.728)" fill="#03abf2"/>
          <path id="Trazado_20356" data-name="Trazado 20356" d="M2156.785,1118.443a1.776,1.776,0,0,1-1.247-3.041l16.018-15.78a1.775,1.775,0,0,1,1.832-.412l18.78,6.555,23.936-18.325a1.775,1.775,0,0,1,2.158,2.82l-24.7,18.907a1.777,1.777,0,0,1-1.665.267l-18.639-6.506-15.23,15A1.774,1.774,0,0,1,2156.785,1118.443Z" transform="translate(-2150.369 -1087.073)" fill="#03abf2"/>
          <rect id="Rectángulo_2515" data-name="Rectángulo 2515" width="71.056" height="3.552" transform="translate(0 60.709)" fill="#03abf2"/>
        </g>
        <path id="Trazado_20357" data-name="Trazado 20357" d="M423.613,1225.252a1.775,1.775,0,0,1-1.255-.519l-8.018-8a21.862,21.862,0,1,1,10.377-1.6l.665,8.192a1.777,1.777,0,0,1-1.769,1.92Zm-7.331-48.7a18.359,18.359,0,0,0-1.052,36.687,1.778,1.778,0,0,1,1.152.516l5.07,5.057-.382-4.716a1.775,1.775,0,0,1,1.193-1.824,18.189,18.189,0,0,0,6.948-4.326,18.358,18.358,0,0,0-12.929-31.395Z" transform="translate(-394.384 -991.76)" fill="#03abf2"/>
        <path id="Trazado_20358" data-name="Trazado 20358" d="M450.389,1268.677a2.368,2.368,0,1,1-1.469-3.013A2.368,2.368,0,0,1,450.389,1268.677Z" transform="translate(-435.274 -1065.373)" fill="#03abf2"/>
        <path id="Trazado_20359" data-name="Trazado 20359" d="M493.077,1269.564a2.367,2.367,0,1,1-1.464-3.008A2.367,2.367,0,0,1,493.077,1269.564Z" transform="translate(-469.233 -1066.081)" fill="#03abf2"/>
        <path id="Trazado_20360" data-name="Trazado 20360" d="M535.406,1268.869a2.367,2.367,0,1,1-1.469-3.006A2.369,2.369,0,0,1,535.406,1268.869Z" transform="translate(-502.907 -1065.531)" fill="#03abf2"/>
        <path id="Trazado_20361" data-name="Trazado 20361" d="M631.267,1223.668a1.776,1.776,0,0,1-1.58-.961l-4.693-9.09a1.773,1.773,0,0,1-.106-1.38,18.365,18.365,0,0,0-15.519-24.111,1.776,1.776,0,0,1,.368-3.533,21.916,21.916,0,0,1,18.748,28.046l4.358,8.439a1.776,1.776,0,0,1-1.576,2.59Z" transform="translate(-564.145 -1000.972)" fill="#03abf2"/>
        <path id="Trazado_20362" data-name="Trazado 20362" d="M581.6,1361.282a21.9,21.9,0,0,1-5.019-.586,1.776,1.776,0,1,1,.813-3.457,18.188,18.188,0,0,0,11.469-1.026,12.842,12.842,0,0,0,5.633-3.867,1.782,1.782,0,0,1,1.594-.6l9.518,1.357a1.776,1.776,0,0,1-.5,3.516l-8.584-1.224a16.572,16.572,0,0,1-6.252,4.075A21.8,21.8,0,0,1,581.6,1361.282Z" transform="translate(-538.239 -1133.945)" fill="#03abf2"/>
        <g id="Grupo_9997" data-name="Grupo 9997" transform="translate(94.933 47.483)">
          <path id="Trazado_20363" data-name="Trazado 20363" d="M884.319,599.93a6.619,6.619,0,0,1-1.645-.205,5.509,5.509,0,0,1-3.7-2.966l-19.805-41.525c-1.369-2.873.146-6.255,3.524-7.867l2.153-1.026a1.776,1.776,0,0,1,1.528,3.206l-2.152,1.026c-1.318.629-2.415,1.941-1.847,3.132l19.806,41.526a2.016,2.016,0,0,0,1.373,1.054,3.506,3.506,0,0,0,2.338-.275l46.6-22.223a4.045,4.045,0,0,0,1.848-1.77,2.032,2.032,0,0,0,.147-1.733l-19.8-41.524a1.617,1.617,0,0,0-1.3-.839,4.454,4.454,0,0,0-2.563.429l-1.886.9a1.776,1.776,0,0,1-1.528-3.206l1.886-.9a7.966,7.966,0,0,1,4.676-.726,5.1,5.1,0,0,1,3.918,2.813l19.805,41.525a5.5,5.5,0,0,1-.185,4.865,7.657,7.657,0,0,1-3.489,3.372l-46.6,22.223A7.221,7.221,0,0,1,884.319,599.93Z" transform="translate(-858.67 -523.199)" fill="#03abf2"/>
          <path id="Trazado_20364" data-name="Trazado 20364" d="M895.466,590.191a1.776,1.776,0,0,1-.771-3.376l50.347-24.241a1.776,1.776,0,1,1,1.54,3.2l-50.347,24.241A1.772,1.772,0,0,1,895.466,590.191Z" transform="translate(-886.528 -553.49)" fill="#03abf2"/>
          <path id="Trazado_20365" data-name="Trazado 20365" d="M928.344,698.487a1.776,1.776,0,0,1-.766-3.379L972.1,673.875a1.776,1.776,0,0,1,1.528,3.206l-44.521,21.233A1.777,1.777,0,0,1,928.344,698.487Z" transform="translate(-912.684 -642.035)" fill="#03abf2"/>
          <path id="Trazado_20366" data-name="Trazado 20366" d="M984.42,694.591a1.776,1.776,0,0,1-1.6-1.012l-18.481-38.749a1.776,1.776,0,1,1,3.206-1.529l18.481,38.749a1.776,1.776,0,0,1-1.6,2.541Z" transform="translate(-942.592 -625.001)" fill="#03abf2"/>
          <path id="Trazado_20367" data-name="Trazado 20367" d="M1081.227,650.223a1.775,1.775,0,0,1-1.6-1.011l-18.481-38.749a1.776,1.776,0,0,1,3.206-1.529l18.481,38.749a1.776,1.776,0,0,1-1.6,2.54Z" transform="translate(-1019.605 -589.705)" fill="#03abf2"/>
          <path id="Trazado_20368" data-name="Trazado 20368" d="M901.09,599.379a4.085,4.085,0,0,1-3.666-2.311l-2.351-4.932a4.068,4.068,0,0,1,1.914-5.412l.909-.433a4.033,4.033,0,0,1,1.745-.4,4.084,4.084,0,0,1,3.667,2.313l2.349,4.93a4.059,4.059,0,0,1-1.916,5.412l-.9.432A4.02,4.02,0,0,1,901.09,599.379Zm-1.45-9.932a.507.507,0,0,0-.218.051l-.905.432a.51.51,0,0,0-.239.679l2.35,4.93a.49.49,0,0,0,.677.24l.9-.432a.507.507,0,0,0,.242-.677l-2.35-4.931A.508.508,0,0,0,899.641,589.447Z" transform="translate(-887.316 -572.182)" fill="#03abf2"/>
          <path id="Trazado_20369" data-name="Trazado 20369" d="M1048.664,532.309A4.081,4.081,0,0,1,1045,530l-2.351-4.928a4.066,4.066,0,0,1,1.918-5.413l.9-.432a4.033,4.033,0,0,1,1.747-.4,4.078,4.078,0,0,1,3.668,2.315l2.35,4.926a4.058,4.058,0,0,1-1.918,5.412l-.9.432A4.028,4.028,0,0,1,1048.664,532.309Zm-1.449-9.93a.5.5,0,0,0-.217.05l-.9.431a.509.509,0,0,0-.242.679l2.351,4.928a.49.49,0,0,0,.677.24l.906-.433a.5.5,0,0,0,.24-.676l-2.351-4.929A.5.5,0,0,0,1047.215,522.378Z" transform="translate(-1004.715 -518.827)" fill="#03abf2"/>
          <path id="Trazado_20370" data-name="Trazado 20370" d="M975.295,565.1a4.08,4.08,0,0,1-3.666-2.313l-2.35-4.93a4.066,4.066,0,0,1,1.916-5.412l.907-.432a4.034,4.034,0,0,1,1.745-.4,4.08,4.08,0,0,1,3.666,2.313l2.351,4.93a4.058,4.058,0,0,1-1.918,5.411l-.9.432A4.036,4.036,0,0,1,975.295,565.1Zm-1.449-9.931a.5.5,0,0,0-.218.05l-.9.431a.51.51,0,0,0-.241.678l2.35,4.93a.491.491,0,0,0,.678.24l.9-.432a.507.507,0,0,0,.241-.677l-2.35-4.93A.507.507,0,0,0,973.846,555.17Z" transform="translate(-946.348 -544.914)" fill="#03abf2"/>
          <path id="Trazado_20371" data-name="Trazado 20371" d="M958.992,593.642a1.776,1.776,0,0,1-.765-3.379l3.3-1.572a1.776,1.776,0,0,1,1.528,3.206l-3.3,1.572A1.769,1.769,0,0,1,958.992,593.642Z" transform="translate(-937.065 -574.269)" fill="#03abf2"/>
          <path id="Trazado_20372" data-name="Trazado 20372" d="M1007.365,565.751a1.776,1.776,0,0,1-.765-3.379l4.123-1.966a1.776,1.776,0,0,1,1.528,3.206l-4.123,1.966A1.768,1.768,0,0,1,1007.365,565.751Z" transform="translate(-975.548 -551.767)" fill="#03abf2"/>
          <path id="Trazado_20373" data-name="Trazado 20373" d="M1061.756,744.4a1.771,1.771,0,0,1-.682-.137l-5.811-2.421a1.776,1.776,0,1,1,1.365-3.279l3.776,1.572,1.542-8.482a1.776,1.776,0,1,1,3.494.636l-1.936,10.651a1.778,1.778,0,0,1-1.747,1.458Z" transform="translate(-1014.195 -686.979)" fill="#03abf2"/>
          <path id="Trazado_20374" data-name="Trazado 20374" d="M926.906,711.954a1.776,1.776,0,0,1-.766-3.379l5.772-2.753a1.776,1.776,0,0,1,1.529,3.206l-5.772,2.753A1.781,1.781,0,0,1,926.906,711.954Z" transform="translate(-911.54 -667.45)" fill="#03abf2"/>
          <path id="Trazado_20375" data-name="Trazado 20375" d="M1161.924,729.467a1.776,1.776,0,0,1-.765-3.379l2.475-1.18a1.776,1.776,0,0,1,1.528,3.206l-2.475,1.18A1.772,1.772,0,0,1,1161.924,729.467Z" transform="translate(-1098.504 -682.633)" fill="#03abf2"/>
        </g>
        <g id="Grupo_9999" data-name="Grupo 9999" transform="translate(350.018 113.03)">
          <g id="Grupo_9998" data-name="Grupo 9998" transform="translate(0 5.809)">
            <path id="Trazado_20376" data-name="Trazado 20376" d="M2125.862,907.141a19.667,19.667,0,1,1,17.93-11.571A19.514,19.514,0,0,1,2125.862,907.141Zm.019-35.785a16.115,16.115,0,0,0-6.643,30.8,15.978,15.978,0,0,0,6.624,1.434,16.114,16.114,0,0,0,6.645-30.8A15.988,15.988,0,0,0,2125.88,871.357Z" transform="translate(-2106.209 -867.805)" fill="#03abf2"/>
          </g>
          <path id="Trazado_20377" data-name="Trazado 20377" d="M2164.633,940.019l-5.186-10.314a1.776,1.776,0,1,1,3.173-1.6l3.57,7.1,12.447-6.458a1.776,1.776,0,0,1,1.636,3.152Z" transform="translate(-2148.411 -909.192)" fill="#03abf2"/>
          <path id="Trazado_20378" data-name="Trazado 20378" d="M2229.572,845.342a1.773,1.773,0,0,1-.73-.158l-5.292-2.393a1.776,1.776,0,1,1,1.463-3.237l5.292,2.393a1.776,1.776,0,0,1-.732,3.394Z" transform="translate(-2198.725 -839.397)" fill="#03abf2"/>
        </g>
        <path id="Trazado_20379" data-name="Trazado 20379" d="M576.142,850.811,549.97,827.481l32.591-36.557,26.173,23.332Zm-21.157-23.618,20.87,18.6,27.864-31.254-20.87-18.6Z" transform="translate(-518.157 -687.805)" fill="#03abf2"/>
        <path id="Trazado_20380" data-name="Trazado 20380" d="M597.063,992.309,576.011,973.54a1.776,1.776,0,0,1,2.364-2.651l18.4,16.405,29.045-32.581a1.776,1.776,0,0,1,2.651,2.364Z" transform="translate(-538.401 -817.632)" fill="#03abf2"/>
        <path id="Trazado_20381" data-name="Trazado 20381" d="M555.615,830.514a1.776,1.776,0,0,1-.247-3.534l28.077-3.985.749-28.347a1.776,1.776,0,0,1,3.55.094l-.828,31.348L555.866,830.5A1.781,1.781,0,0,1,555.615,830.514Z" transform="translate(-521.237 -689.393)" fill="#03abf2"/>
        <path id="Trazado_20382" data-name="Trazado 20382" d="M671.218,970.633h-.048a1.775,1.775,0,0,1-1.728-1.822l.649-24.519a1.8,1.8,0,0,1,1.822-1.728,1.775,1.775,0,0,1,1.728,1.822l-.649,24.519A1.775,1.775,0,0,1,671.218,970.633Z" transform="translate(-613.2 -808.438)" fill="#03abf2"/>
        <path id="Trazado_20383" data-name="Trazado 20383" d="M700.893,902.969a1.776,1.776,0,0,1-.247-3.534l24.283-3.446a1.776,1.776,0,1,1,.5,3.516l-24.283,3.446A1.764,1.764,0,0,1,700.893,902.969Z" transform="translate(-636.81 -771.373)" fill="#03abf2"/>
        <g id="Grupo_10000" data-name="Grupo 10000" transform="translate(278.165 49.661)">
          <path id="Trazado_20384" data-name="Trazado 20384" d="M1791.125,607.594a8.608,8.608,0,0,1-5.078-1.656l-27.669-20.078a8.689,8.689,0,0,1-1.926-12.123l29.573-40.677a8.677,8.677,0,0,1,12.121-1.924l4.464,3.224a1.776,1.776,0,0,1-2.081,2.879l-4.466-3.227a5.125,5.125,0,0,0-7.163,1.134l-12.774,17.608-16.8,23.073a5.135,5.135,0,0,0,1.141,7.159l27.671,20.078a5.126,5.126,0,0,0,7.159-1.139l29.575-40.677a5.122,5.122,0,0,0-1.141-7.159l-4.715-3.34a1.776,1.776,0,0,1,2.052-2.9l4.731,3.351a8.677,8.677,0,0,1,1.946,12.133l-29.577,40.677a8.621,8.621,0,0,1-5.66,3.473A8.8,8.8,0,0,1,1791.125,607.594Z" transform="translate(-1754.799 -529.478)" fill="#03abf2"/>
          <path id="Trazado_20385" data-name="Trazado 20385" d="M1983.85,555.351a1.776,1.776,0,0,1-1.041-.337l-18.537-13.406a1.776,1.776,0,0,1-.4-2.479l5.384-7.446a1.777,1.777,0,0,1,2.481-.4l3.45,2.5a7.7,7.7,0,0,1,11.509,8.325l3.577,2.586a1.777,1.777,0,0,1,.4,2.48l-5.384,7.445a1.772,1.772,0,0,1-1.157.713A1.817,1.817,0,0,1,1983.85,555.351Zm-16.057-15.581,15.659,11.325,3.3-4.567-3.193-2.308a1.775,1.775,0,0,1-.578-2.173,4.152,4.152,0,0,0-1.347-5.061,4.229,4.229,0,0,0-5.229.3,1.773,1.773,0,0,1-2.242.132l-3.069-2.22Z" transform="translate(-1920.856 -530.647)" fill="#03abf2"/>
          <path id="Trazado_20386" data-name="Trazado 20386" d="M1859.151,759.529a1.772,1.772,0,0,1-1.041-.338l-19.4-14.046a1.776,1.776,0,1,1,2.083-2.877l19.4,14.046a1.776,1.776,0,0,1-1.043,3.214Z" transform="translate(-1820.964 -698.491)" fill="#03abf2"/>
          <path id="Trazado_20387" data-name="Trazado 20387" d="M1950.808,633.97a1.772,1.772,0,0,1-1.041-.338l-19.406-14.046a1.776,1.776,0,0,1,2.083-2.877l19.406,14.046a1.776,1.776,0,0,1-1.042,3.214Z" transform="translate(-1893.88 -598.604)" fill="#03abf2"/>
          <path id="Trazado_20388" data-name="Trazado 20388" d="M1884.45,716.875a1.766,1.766,0,0,1-1.028-.329l-15.177-10.8a1.776,1.776,0,1,1,2.059-2.894l15.177,10.8a1.776,1.776,0,0,1-1.03,3.223Z" transform="translate(-1844.453 -667.143)" fill="#03abf2"/>
          <path id="Trazado_20389" data-name="Trazado 20389" d="M1917.3,674.554a1.767,1.767,0,0,1-1.036-.335l-14.718-10.6a1.776,1.776,0,1,1,2.075-2.882l14.718,10.6a1.776,1.776,0,0,1-1.039,3.217Z" transform="translate(-1870.95 -633.63)" fill="#03abf2"/>
        </g>
      </g>
    </g>
  </g>
</svg>
