<svg xmlns="http://www.w3.org/2000/svg" width="360.337" height="313.091" viewBox="0 0 360.337 313.091">
  <g id="Grupo_9871" data-name="Grupo 9871" transform="translate(-747.733 -239.002)">
    <circle id="Elipse_614" data-name="Elipse 614" cx="76.172" cy="76.172" r="76.172" transform="translate(805.205 505.043) rotate(-78.221)" fill="#d9f0f8" opacity="0.49"/>
    <g id="Grupo_9848" data-name="Grupo 9848">
      <g id="Grupo_9847" data-name="Grupo 9847">
        <path id="Trazado_19983" data-name="Trazado 19983" d="M1033.129,407.887a29.266,29.266,0,1,1,29.265-29.266A29.3,29.3,0,0,1,1033.129,407.887Zm0-54.533a25.266,25.266,0,1,0,25.265,25.267A25.3,25.3,0,0,0,1033.129,353.354Z" fill="#03abf2"/>
      </g>
      <path id="Trazado_19984" data-name="Trazado 19984" d="M1031.6,387.211l-13.123-10.619a2,2,0,0,1,2.515-3.11l9.975,8.072,13.678-17.343a2,2,0,1,1,3.14,2.476Z" fill="#03abf2"/>
      <path id="Trazado_19985" data-name="Trazado 19985" d="M1036.275,344.45h-9a2,2,0,0,1,0-4h9a2,2,0,0,1,0,4Z" fill="#03abf2"/>
    </g>
    <g id="Grupo_9850" data-name="Grupo 9850">
      <path id="Trazado_19986" data-name="Trazado 19986" d="M830.275,387.45a2,2,0,0,1-2-2v-55a2,2,0,0,1,4,0v55A2,2,0,0,1,830.275,387.45Z" fill="#1c428c"/>
      <g id="Grupo_9849" data-name="Grupo 9849">
        <path id="Trazado_19987" data-name="Trazado 19987" d="M821.616,336.8l1.465,1.364,6.713-7.224,6.715,7.224,1.465-1.364-8.18-8.8Z" fill="#1c428c"/>
      </g>
    </g>
    <g id="Grupo_9851" data-name="Grupo 9851">
      <path id="Trazado_19988" data-name="Trazado 19988" d="M1024.276,291.539a1.5,1.5,0,0,1,0-3l15.8-.021h0a1.5,1.5,0,0,1,0,3l-15.8.021Z" fill="#1c428c"/>
      <path id="Trazado_19989" data-name="Trazado 19989" d="M1032.187,299.43a1.5,1.5,0,0,1-1.5-1.5l-.019-15.8a1.5,1.5,0,0,1,1.5-1.5,1.532,1.532,0,0,1,1.5,1.5l.019,15.8a1.5,1.5,0,0,1-1.5,1.5Z" fill="#1c428c"/>
    </g>
    <path id="Trazado_19990" data-name="Trazado 19990" d="M788.537,323.7a6.609,6.609,0,1,1,6.609-6.607A6.613,6.613,0,0,1,788.537,323.7Zm0-10.779a4.171,4.171,0,1,0,4.171,4.172A4.174,4.174,0,0,0,788.537,312.92Z" fill="#03abf2"/>
    <g id="Grupo_9853" data-name="Grupo 9853">
      <path id="Trazado_19991" data-name="Trazado 19991" d="M935.275,269.45a2,2,0,0,1-2-2v-26a2,2,0,0,1,4,0v26A2,2,0,0,1,935.275,269.45Z" fill="#03abf2"/>
      <g id="Grupo_9852" data-name="Grupo 9852">
        <path id="Trazado_19992" data-name="Trazado 19992" d="M926.616,247.8l1.465,1.364,6.713-7.224,6.715,7.224,1.465-1.364-8.18-8.8Z" fill="#03abf2"/>
      </g>
    </g>
    <g id="Grupo_9854" data-name="Grupo 9854">
      <path id="Trazado_19993" data-name="Trazado 19993" d="M764.855,513.374a1.125,1.125,0,0,1,0-2.25l10.4-.014h0a1.125,1.125,0,0,1,0,2.25l-10.4.014Z" fill="#1c428c"/>
      <path id="Trazado_19994" data-name="Trazado 19994" d="M770.062,518.568a1.124,1.124,0,0,1-1.125-1.123l-.012-10.4a1.125,1.125,0,1,1,2.25,0l.012,10.4a1.125,1.125,0,0,1-1.124,1.127Z" fill="#1c428c"/>
    </g>
    <g id="Grupo_9856" data-name="Grupo 9856">
      <path id="Trazado_19995" data-name="Trazado 19995" d="M861.275,361.45a2,2,0,0,1-2-2V298.264l14-10.75V258.45a2,2,0,0,1,4,0v31.036l-14,10.75V359.45A2,2,0,0,1,861.275,361.45Z" fill="#1c428c"/>
      <g id="Grupo_9855" data-name="Grupo 9855">
        <path id="Trazado_19996" data-name="Trazado 19996" d="M865.1,266.555l1.758,1.637,8.055-8.669,8.058,8.669,1.758-1.637L874.917,256Z" fill="#1c428c"/>
      </g>
    </g>
    <g id="Grupo_9858" data-name="Grupo 9858">
      <path id="Trazado_19997" data-name="Trazado 19997" d="M999.523,310.174a1.99,1.99,0,0,1-1.178-.386l-29.07-21.273V257.45a2,2,0,1,1,4,0v29.035l27.431,20.075a2,2,0,0,1-1.183,3.614Z" fill="#1c428c"/>
      <g id="Grupo_9857" data-name="Grupo 9857">
        <path id="Trazado_19998" data-name="Trazado 19998" d="M961.854,265.555l1.758,1.637,8.056-8.669,8.058,8.669,1.758-1.637L971.668,255Z" fill="#1c428c"/>
      </g>
    </g>
    <g id="Grupo_9859" data-name="Grupo 9859">
      <path id="Trazado_19999" data-name="Trazado 19999" d="M808.3,488.639A41.305,41.305,0,0,1,772.123,427.4a2,2,0,0,1,3.5,1.934,37.316,37.316,0,1,0,12.573-13.4,2,2,0,1,1-2.155-3.37A41.285,41.285,0,1,1,808.3,488.639Z" fill="#03abf2"/>
      <path id="Trazado_20000" data-name="Trazado 20000" d="M808.333,474.362a27.4,27.4,0,0,1-4.364-.351,27.023,27.023,0,0,1-20.422-37.52,2,2,0,1,1,3.664,1.6,23.023,23.023,0,0,0,17.4,31.966,23,23,0,1,0-7.409-42.875,2,2,0,0,1-1.927-3.505,27.007,27.007,0,1,1,13.062,50.681Z" fill="#03abf2"/>
      <path id="Trazado_20001" data-name="Trazado 20001" d="M808.213,462.141a14.932,14.932,0,0,1-2.4-.194,14.752,14.752,0,0,1-12.289-12.456,2,2,0,0,1,3.957-.583A10.807,10.807,0,1,0,809.9,436.672a2,2,0,1,1,.637-3.949,14.8,14.8,0,0,1-2.326,29.418Z" fill="#03abf2"/>
      <path id="Trazado_20002" data-name="Trazado 20002" d="M807.595,449.031a1.99,1.99,0,0,1-1.376-.55L774.225,418.1a2,2,0,1,1,2.754-2.9l31.994,30.377a2,2,0,0,1-1.378,3.45Z" fill="#03abf2"/>
      <path id="Trazado_20003" data-name="Trazado 20003" d="M776.411,418.994a2,2,0,0,1-1.36-.534l-16.105-14.936a2,2,0,0,1-.512-2.171l4.1-10.9a2,2,0,0,1,3.232-.761l16.106,14.936a2,2,0,0,1,.512,2.171l-4.1,10.9a2,2,0,0,1-1.872,1.295Zm-13.76-17.489,12.937,12,2.579-6.853-12.937-12Z" fill="#03abf2"/>
      <path id="Trazado_20004" data-name="Trazado 20004" d="M765.838,425.955a2,2,0,0,1-1.36-.534l-16.105-14.938a2,2,0,0,1,.256-3.134l10.315-6.828a2,2,0,0,1,2.464.2l16.107,14.934a2,2,0,0,1-.256,3.134l-10.317,6.833A1.993,1.993,0,0,1,765.838,425.955ZM752.959,409.28l13.086,12.139,6.885-4.559-13.089-12.136Z" fill="#03abf2"/>
      <path id="Trazado_20005" data-name="Trazado 20005" d="M759.62,403.379a1.993,1.993,0,0,1-1.351-.526l-4.365-4a2,2,0,0,1,2.7-2.949l4.365,4a2,2,0,0,1-1.351,3.475Z" fill="#03abf2"/>
    </g>
    <path id="Trazado_20006" data-name="Trazado 20006" d="M905.275,278.45a2,2,0,0,1-2-2v-16a2,2,0,0,1,4,0v16A2,2,0,0,1,905.275,278.45Z" fill="#1c428c"/>
    <path id="Trazado_20007" data-name="Trazado 20007" d="M830.275,532.449a2,2,0,0,1-2-2v-23a2,2,0,0,1,4,0v23A2,2,0,0,1,830.275,532.449Z" fill="#1c428c"/>
    <path id="Trazado_20008" data-name="Trazado 20008" d="M1035.275,549.449a2,2,0,0,1-2-2v-17a2,2,0,0,1,4,0v17A2,2,0,0,1,1035.275,549.449Z" fill="#1c428c"/>
    <g id="Grupo_9860" data-name="Grupo 9860">
      <path id="Trazado_20009" data-name="Trazado 20009" d="M899.03,488.8a2,2,0,0,1-2-2v-19.91a2,2,0,0,1,4,0V486.8A2,2,0,0,1,899.03,488.8Z" fill="#5f3bbf"/>
    </g>
    <g id="Grupo_9866" data-name="Grupo 9866">
      <path id="Trazado_20010" data-name="Trazado 20010" d="M1028.936,509.565h-17.863V482.46h17.863Zm-13.863-4h9.863V486.46h-9.863Z" fill="#03abf2"/>
      <g id="Grupo_9865" data-name="Grupo 9865">
        <path id="Trazado_20011" data-name="Trazado 20011" d="M1106.07,509.643h-99.35a2,2,0,0,1,0-4h99.35a2,2,0,0,1,0,4Z" fill="#03abf2"/>
        <path id="Trazado_20012" data-name="Trazado 20012" d="M1076.3,509.565h-18.441V460.511H1076.3Zm-14.441-4H1072.3V464.511h-10.441Z" fill="#03abf2"/>
        <path id="Trazado_20013" data-name="Trazado 20013" d="M1052.042,509.565h-17.863V469.753h17.863Zm-13.863-4h9.863V473.753h-9.863Z" fill="#03abf2"/>
        <path id="Trazado_20014" data-name="Trazado 20014" d="M1100.561,509.565h-19.017v-57.14h19.017Zm-15.017-4h11.017v-49.14h-11.017Z" fill="#03abf2"/>
        <g id="Grupo_9863" data-name="Grupo 9863">
          <g id="Grupo_9862" data-name="Grupo 9862">
            <path id="Trazado_20015" data-name="Trazado 20015" d="M1008.989,474.174a2,2,0,0,1-.96-3.756l65.7-35.835a2,2,0,0,1,1.917,3.512l-65.7,35.835A1.991,1.991,0,0,1,1008.989,474.174Z" fill="#03abf2"/>
            <g id="Grupo_9861" data-name="Grupo 9861">
              <path id="Trazado_20016" data-name="Trazado 20016" d="M1073.608,441.425l1.64-5.572-5.573-1.637,3.062-1.67,5.57,1.638-1.637,5.571Z" fill="#03abf2"/>
            </g>
          </g>
        </g>
        <g id="Grupo_9864" data-name="Grupo 9864">
          <path id="Trazado_20017" data-name="Trazado 20017" d="M1092.537,430.307h-2.508c-4.006,0-6.8-2.458-6.8-5.98,0-3.877,1.886-7.153,6.8-7.153h9.019a1.358,1.358,0,1,1,0,2.716h-9.019c-3.191.012-4.088,2.073-4.088,4.437,0,2.408,2.11,3.265,4.088,3.265h2.508a1.357,1.357,0,1,1,0,2.715Z" fill="#03abf2"/>
          <path id="Trazado_20018" data-name="Trazado 20018" d="M1094.932,440.724h-8.913a1.359,1.359,0,0,1,0-2.717h8.913c1.975,0,4.087-.857,4.087-3.262a1.625,1.625,0,0,1,.012-.2,3.4,3.4,0,0,0-.692-2.861,4.508,4.508,0,0,0-3.407-1.378h-3.7a1.357,1.357,0,0,1,0-2.715h3.7a7.235,7.235,0,0,1,5.464,2.321,6.074,6.074,0,0,1,1.337,4.936C1101.68,438.312,1098.9,440.724,1094.932,440.724Z" fill="#03abf2"/>
          <path id="Trazado_20019" data-name="Trazado 20019" d="M1091.885,419.24a1.359,1.359,0,0,1-1.357-1.359v-4.346a1.357,1.357,0,1,1,2.714,0v4.346A1.357,1.357,0,0,1,1091.885,419.24Z" fill="#03abf2"/>
          <path id="Trazado_20020" data-name="Trazado 20020" d="M1091.885,445.074a1.357,1.357,0,0,1-1.357-1.358v-3.7a1.357,1.357,0,1,1,2.714,0v3.7A1.356,1.356,0,0,1,1091.885,445.074Z" fill="#03abf2"/>
        </g>
      </g>
    </g>
    <g id="Grupo_9867" data-name="Grupo 9867">
      <path id="Trazado_20021" data-name="Trazado 20021" d="M988.461,468.9H954.5a2,2,0,0,1,0-4h31.963V444.111l-16.1-25.99a2.008,2.008,0,0,1-.3-1.053v-60.9c-.659-2.877-9.282-37.738-40.1-46.915a2,2,0,1,1,1.14-3.834c34.309,10.218,42.58,48.5,42.914,50.125a1.9,1.9,0,0,1,.042.4V416.5l16.1,25.99a2,2,0,0,1,.3,1.053V466.9A2,2,0,0,1,988.461,468.9Z" fill="#5f3bbf"/>
    </g>
    <g id="Grupo_9868" data-name="Grupo 9868">
      <path id="Trazado_20022" data-name="Trazado 20022" d="M907.653,468.9h-36.3a2,2,0,0,1-2-2V443.542a2,2,0,0,1,.233-.938L883.4,416.57V355.952a1.894,1.894,0,0,1,.031-.343c.064-.376,6.963-37.763,43.861-50.5a2,2,0,0,1,1.3,3.781c-33.508,11.563-40.69,44.681-41.2,47.246v60.928a2.005,2.005,0,0,1-.233.938l-13.82,26.034V464.9h34.3a2,2,0,0,1,0,4Z" fill="#5f3bbf"/>
    </g>
    <path id="Trazado_20023" data-name="Trazado 20023" d="M928.863,397.479a20.848,20.848,0,1,1,20.453-20.843A20.673,20.673,0,0,1,928.863,397.479Z" fill="#5f3bbf"/>
    <g id="Grupo_9869" data-name="Grupo 9869">
      <path id="Trazado_20024" data-name="Trazado 20024" d="M932.246,495.842a2,2,0,0,1-2-2V428.258a2,2,0,1,1,4,0v65.584A2,2,0,0,1,932.246,495.842Z" fill="#5f3bbf"/>
    </g>
    <g id="Grupo_9870" data-name="Grupo 9870">
      <path id="Trazado_20025" data-name="Trazado 20025" d="M962.7,488.815a2,2,0,0,1-2-2V466.9a2,2,0,0,1,4,0v19.91A2,2,0,0,1,962.7,488.815Z" fill="#5f3bbf"/>
    </g>
    <path id="Trazado_20026" data-name="Trazado 20026" d="M966.109,552.093a2,2,0,0,1-2-2c0-19.822-14.261-35.948-31.791-35.948s-31.788,16.126-31.788,35.948a2,2,0,0,1-4,0c0-22.028,16.055-39.948,35.788-39.948s35.791,17.92,35.791,39.948A2,2,0,0,1,966.109,552.093Z" fill="#03abf2"/>
    <path id="Trazado_20027" data-name="Trazado 20027" d="M864.109,550.821a2,2,0,0,1-2-2c0-16.52,13.178-29.961,29.375-29.961a2,2,0,0,1,0,4c-13.992,0-25.375,11.647-25.375,25.961A2,2,0,0,1,864.109,550.821Z" fill="#03abf2"/>
    <path id="Trazado_20028" data-name="Trazado 20028" d="M1003.929,550.821a2,2,0,0,1-2-2c0-14.314-11.386-25.961-25.38-25.961a2,2,0,0,1,0-4c16.2,0,29.38,13.441,29.38,29.961A2,2,0,0,1,1003.929,550.821Z" fill="#03abf2"/>
    <path id="Trazado_20029" data-name="Trazado 20029" d="M944.577,355.667a2.169,2.169,0,0,1-1.211-.369,26.217,26.217,0,0,0-6.076-3.018,2.177,2.177,0,0,1,1.414-4.119,30.606,30.606,0,0,1,7.089,3.52,2.178,2.178,0,0,1-1.216,3.986Z" fill="#5f3bbf"/>
    <path id="Trazado_20030" data-name="Trazado 20030" d="M928.742,407.837a30.668,30.668,0,0,1-4.542-61,31.064,31.064,0,0,1,4.542-.333,2.178,2.178,0,0,1,0,4.355,26.28,26.28,0,0,0-26.31,26.309,26.31,26.31,0,1,0,51.141-8.72,2.178,2.178,0,1,1,4.109-1.444,30.686,30.686,0,0,1-28.94,40.83Z" fill="#5f3bbf"/>
    <path id="Trazado_20031" data-name="Trazado 20031" d="M922.67,382.8a2,2,0,0,1-1.589-3.212l11.613-15.242a2,2,0,1,1,3.182,2.424l-11.614,15.242A1.994,1.994,0,0,1,922.67,382.8Z" fill="#fff"/>
    <path id="Trazado_20032" data-name="Trazado 20032" d="M927.024,392.6a2,2,0,0,1-1.56-3.25l7.263-9.073a2,2,0,1,1,3.123,2.5l-7.263,9.073A2,2,0,0,1,927.024,392.6Z" fill="#fff"/>
  </g>
</svg>
