<svg xmlns="http://www.w3.org/2000/svg" width="1140" height="382" viewBox="0 0 1140 382">
  <g id="Grupo_10025" data-name="Grupo 10025" transform="translate(-390 -1016)">
    <rect id="Rectángulo_2513" data-name="Rectángulo 2513" width="1140" height="124" transform="translate(390 1253)" fill="#5f3bbf"/>
    <text id="Para_cualquiera_de_las_anteriores_sociedades_se_debe_tener_en_cuenta:" data-name="Para cualquiera de las anteriores sociedades se debe tener en cuenta:" transform="translate(618 1298)" fill="#fff" font-size="18" font-family="OpenSans-SemiBold, Open Sans" font-weight="600"><tspan x="38.966" y="19">Para cualquiera de las anteriores sociedades se debe tener en cuenta:</tspan></text>
    <path id="Polígono_6" data-name="Polígono 6" d="M16,0,32,22H0Z" transform="translate(976 1398) rotate(180)" fill="#5f3bbf"/>
    <g id="Grupo_9911" data-name="Grupo 9911" transform="translate(0 17)">
      <g id="Grupo_9910" data-name="Grupo 9910" transform="translate(-606.242 867.779)">
        <path id="Trazado_20165" data-name="Trazado 20165" d="M1660.079,249.37a80.771,80.771,0,1,1-80.77-80.769A80.771,80.771,0,0,1,1660.079,249.37Z" transform="translate(-20.752 -9.426)" fill="#f1f7f8" opacity="0.85"/>
        <path id="Trazado_20166" data-name="Trazado 20166" d="M1613.9,336.471a2.231,2.231,0,1,1-2.231-2.233A2.231,2.231,0,0,1,1613.9,336.471Z" transform="translate(-48.717 -51.194)" fill="#03abf2"/>
        <path id="Trazado_20167" data-name="Trazado 20167" d="M1579.893,177.45a2.231,2.231,0,1,1-2.232-2.232A2.23,2.23,0,0,1,1579.893,177.45Z" transform="translate(-40.142 -11.094)" fill="#03abf2"/>
        <path id="Trazado_20168" data-name="Trazado 20168" d="M1816.872,245.486a2.153,2.153,0,1,1-2.153-2.154A2.152,2.152,0,0,1,1816.872,245.486Z" transform="translate(-99.939 -28.27)" fill="#243640"/>
        <path id="Trazado_20169" data-name="Trazado 20169" d="M1433.587,334.44h-16.011a1.505,1.505,0,0,1,0-2.991h16.011a1.505,1.505,0,0,1,0,2.991Z" transform="translate(0 -50.49)" fill="#03abf2"/>
        <path id="Trazado_20170" data-name="Trazado 20170" d="M1534.825,241.441h-20.013a1.505,1.505,0,0,1,0-2.991h20.013a1.505,1.505,0,0,1,0,2.991Z" transform="translate(-24.519 -27.039)" fill="#243640"/>
        <path id="Trazado_20171" data-name="Trazado 20171" d="M1550.689,231.694h-10.008c-.736,0-1.333-.385-1.333-1.122s.6-1.122,1.333-1.122h10.008c.737,0,1.334.385,1.334,1.122S1551.426,231.694,1550.689,231.694Z" transform="translate(-31.043 -24.77)" fill="#243640"/>
        <path id="Trazado_20172" data-name="Trazado 20172" d="M1802.026,303.694h-10.674c-.737,0-1.334-.385-1.334-1.122s.6-1.122,1.334-1.122h10.674c.737,0,1.334.384,1.334,1.122S1802.763,303.694,1802.026,303.694Z" transform="translate(-94.253 -42.926)" fill="#03abf2"/>
        <path id="Trazado_20173" data-name="Trazado 20173" d="M1481.326,300.633a1.307,1.307,0,0,1-1.333-1.271l-.51-20.557a1.313,1.313,0,0,1,1.3-1.355h.034a1.339,1.339,0,0,1,1.333,1.3l.508,20.54a1.3,1.3,0,0,1-1.3,1.338Z" transform="translate(-15.947 -36.874)" fill="#243640"/>
        <path id="Trazado_20174" data-name="Trazado 20174" d="M1519.813,187.276a1.324,1.324,0,0,1-.444-.077l-8.477-2.991a1.334,1.334,0,1,1,.889-2.516l8.476,2.991a1.335,1.335,0,0,1-.444,2.593Z" transform="translate(-23.643 -12.707)" fill="#243640"/>
        <path id="Trazado_20175" data-name="Trazado 20175" d="M1724.08,235.38a1.336,1.336,0,0,1-1.235-.826l-1.916-4.653,8.481-32.177c-.215-.556-.618-1.591-.961-2.448a1.334,1.334,0,0,1,2.478-.992c.5,1.255,1.129,2.884,1.129,2.884l.154.4-8.471,32.144,1.574,3.824a1.334,1.334,0,0,1-.726,1.742A1.317,1.317,0,0,1,1724.08,235.38Z" transform="translate(-76.831 -15.69)" fill="#243640"/>
        <path id="Trazado_20176" data-name="Trazado 20176" d="M1735.693,231.438c-.037,0-.074,0-.112,0a1.334,1.334,0,0,1-1.219-1.44l2.667-32,2.706-2.1a1.334,1.334,0,1,1,1.637,2.106l-1.781,1.386-2.569,30.83A1.334,1.334,0,0,1,1735.693,231.438Z" transform="translate(-80.217 -16.237)" fill="#243640"/>
        <path id="Trazado_20177" data-name="Trazado 20177" d="M1540.1,411.511c-3.254,0-16.68-.085-16.815-.086l-1.113.009-.19-1.087c-.123-.706-12.243-70.325-20.326-101.6-.087,0-.17,0-.269,0-.8,7.153-1.962,19.127-3.421,34.107-1.674,17.185-3.753,38.516-5.971,59.638.345.181.665.34.978.5.617.308,1.2.6,1.809.977a4.438,4.438,0,0,1,1.772,4.695,3.1,3.1,0,0,1-2.673,2.546c-2.735.38-17.974-.025-18.621-.043l-1.358-.036.061-1.357c.032-.705,3.186-71.044,4.5-106.522a1.335,1.335,0,0,1,2.668.1c-1.209,32.75-3.99,95.191-4.435,105.184,5.051.123,14.94.295,16.88.026.265-.027.367-.423.387-.5a1.789,1.789,0,0,0-.583-1.82c-.5-.313-1.008-.563-1.593-.855-.533-.267-1.137-.568-1.861-.976l-.765-.429.092-.872c2.252-21.4,4.365-43.084,6.062-60.506,1.528-15.688,2.735-28.08,3.534-35.114l.071-.627.53-.343a4.589,4.589,0,0,1,2.68-.414c.171.007.318.016.415.01l1.18-.172.262,1.158c7.556,28.774,18.834,92.559,20.438,101.709,3.213.028,12.469.11,15.445.114a1.459,1.459,0,0,0,.254-.865,2.122,2.122,0,0,0-.887-1.782,8.787,8.787,0,0,0-2.2-1.232c-.329-.15-.723-.331-1.21-.558l-.643-.3-.111-.7c-3.25-20.641-8.534-58.6-11.69-81.282-.926-6.65-1.671-12-2.13-15.232a1.334,1.334,0,0,1,2.642-.375c.459,3.235,1.2,8.587,2.131,15.239,3.119,22.416,8.317,59.763,11.572,80.531l.548.251a11.3,11.3,0,0,1,2.691,1.525,4.8,4.8,0,0,1,1.834,4.933,3.039,3.039,0,0,1-2.3,2.46l-.239-.018Z" transform="translate(-14.541 -43.055)" fill="#243640"/>
        <path id="Trazado_20178" data-name="Trazado 20178" d="M1511.382,173.948a1.311,1.311,0,0,1-.162-.01,1.333,1.333,0,0,1-1.164-1.484l.739-6.14.649-.319c1.239-.613,3.865-2.347,4.068-3.788,1.188-8.484-1.078-17.855-1.1-17.948a1.334,1.334,0,0,1,2.591-.639c.1.4,2.415,9.952,1.153,18.958-.369,2.628-3.465,4.662-4.88,5.464l-.57,4.732A1.334,1.334,0,0,1,1511.382,173.948Z" transform="translate(-23.654 -2.87)" fill="#243640"/>
        <path id="Trazado_20179" data-name="Trazado 20179" d="M1485.4,149.761a1.334,1.334,0,0,1-1.3-1.026,19.288,19.288,0,0,1,.767-9.934c1.138-4.039,7.8-8.859,15.747-7.267,4.353.871,7.492,3.574,9.33,8.034l.188.459-.156.471c-1.078,3.229-4.192,3.791-7.8,4.441a42.478,42.478,0,0,0-5.718,1.326,3.341,3.341,0,0,0-2.2,1.729,1.346,1.346,0,0,1-1.7.8,1.319,1.319,0,0,1-.833-1.655,5.8,5.8,0,0,1,3.906-3.417,44.677,44.677,0,0,1,6.066-1.413c3.161-.571,4.854-.933,5.554-2.229a9.611,9.611,0,0,0-7.17-5.933c-6.588-1.316-11.943,2.745-12.661,5.4l-.029.092a16.9,16.9,0,0,0-.7,8.484,1.338,1.338,0,0,1-1.3,1.637Z" transform="translate(-17.031)" fill="#243640"/>
        <path id="Trazado_20180" data-name="Trazado 20180" d="M1507.995,310.623a1.335,1.335,0,0,1-.353-2.621l7.23-1.994a1.334,1.334,0,0,1,.709,2.573l-7.231,1.994A1.321,1.321,0,0,1,1507.995,310.623Z" transform="translate(-22.801 -44.063)" fill="#243640"/>
        <path id="Trazado_20181" data-name="Trazado 20181" d="M1511.557,247.481a4.043,4.043,0,0,1-.53-.035c-3.815-.5-9.453-1.412-9.51-1.421l-.07-.013-38.93-8.463L1466.829,193a8.9,8.9,0,0,1,6.717-8.015l7.273-2.692,2.685-1.066-.868-13.613a1.334,1.334,0,0,1,2.663-.17l.992,15.548-4.516,1.791-7.458,2.757a6.225,6.225,0,0,0-4.82,5.563l-.007.1-4.088,42.236,36.577,7.951c.479.078,5.774.931,9.393,1.4,1.5.2,2.123-2.863,2.128-2.895a1.334,1.334,0,0,1,2.629.455C1515.815,244.2,1514.463,247.48,1511.557,247.481Z" transform="translate(-11.669 -8.82)" fill="#243640"/>
        <path id="Trazado_20182" data-name="Trazado 20182" d="M1490.488,165.719a1.311,1.311,0,0,1-.169-.011c-2.835-.354-4.648-1.629-5.39-3.787a4.886,4.886,0,0,1,3.032-6.209,4.907,4.907,0,0,1,4.354.591,1.334,1.334,0,1,1-1.508,2.2,2.219,2.219,0,0,0-3.354,2.55c.248.72.849,1.712,3.2,2.006a1.334,1.334,0,0,1-.164,2.659Z" transform="translate(-17.253 -6.109)" fill="#243640"/>
        <path id="Trazado_20183" data-name="Trazado 20183" d="M1500.709,288.694H1482.7c-.736,0-1.333-.385-1.333-1.122s.6-1.122,1.333-1.122h18.012c.738,0,1.335.384,1.335,1.122S1501.446,288.694,1500.709,288.694Z" transform="translate(-16.421 -39.143)" fill="#243640"/>
        <path id="Trazado_20184" data-name="Trazado 20184" d="M1769.686,298.023a1.335,1.335,0,0,1-1.331-1.266l-.913-14.592c0-.022-.167-.046-.167-.068V268.649a1.505,1.505,0,0,1,2.991,0v13.413l.749,14.557a1.332,1.332,0,0,1-1.262,1.4Z" transform="translate(-88.518 -34.318)" fill="#243640"/>
        <path id="Trazado_20185" data-name="Trazado 20185" d="M1699.871,254.482c-3.065,0-4.185-1.431-4.9-3.819a6.933,6.933,0,0,0-.456-1.248,1.334,1.334,0,0,1,2.354-1.258,9.164,9.164,0,0,1,.661,1.744c.482,1.617.773,2.593,5.837,1.411,8.424-1.965,23.293-5.156,34.151-7.485,3.049-.654,5.712-1.226,7.715-1.659,1.135-4.064,2.646-8.976,4.239-14.159,2.3-7.479,4.676-15.212,6-20.678.008-.031.017-.063.026-.093,2.024-6.3.711-8.195-2.546-10.76a48.57,48.57,0,0,0-5.877-3.643c-1.536-.862-3.124-1.754-4.72-2.751a1.335,1.335,0,0,1,1.414-2.264c1.543.964,3.1,1.84,4.612,2.688a50.147,50.147,0,0,1,6.222,3.874c4.044,3.184,5.793,6.3,3.451,13.626-1.346,5.541-3.728,13.291-6.031,20.787-1.69,5.5-3.287,10.693-4.433,14.862a1.334,1.334,0,0,1-1,.95c-2.065.449-5.037,1.087-8.508,1.831-10.236,2.2-25.7,5.515-34.105,7.475A18.558,18.558,0,0,1,1699.871,254.482Z" transform="translate(-70.131 -14.221)" fill="#243640"/>
        <path id="Trazado_20186" data-name="Trazado 20186" d="M1705.028,198.5a1.334,1.334,0,0,1-1.058-2.146l5.734-7.479a1.33,1.33,0,0,1,.688-.47l12.964-3.74a1.335,1.335,0,0,1,.741,2.565l-12.543,3.617-5.467,7.131A1.33,1.33,0,0,1,1705.028,198.5Z" transform="translate(-72.485 -13.464)" fill="#243640"/>
        <path id="Trazado_20187" data-name="Trazado 20187" d="M1695.266,411.511h-.026l-.237.019a3.23,3.23,0,0,1-2.406-2.582,4.621,4.621,0,0,1,1.661-4.806,10.739,10.739,0,0,1,2.632-1.531c.148-.07.31-.142.488-.227,2.045-19.284,4.636-49.564,6.358-69.688.7-8.148,1.248-14.583,1.611-18.555a1.334,1.334,0,1,1,2.657.243c-.362,3.964-.913,10.4-1.609,18.54-1.745,20.395-4.382,51.217-6.443,70.49l-.079.74-.672.322c-.475.227-.859.406-1.181.556a8.17,8.17,0,0,0-2.121,1.223,1.959,1.959,0,0,0-.766,1.738,1.531,1.531,0,0,0,.344.924c2.935,0,12.134-.085,15.4-.114,1.17-9.379,9.2-72.939,15.286-101.647l.259-1.223,1.238.18c.055,0,.2-.008.373-.015a4.667,4.667,0,0,1,2.674.4l.526.33.086.616c2.25,16.158,5.007,42.305,7.44,65.375,1.191,11.3,2.317,21.971,3.256,30.266l.1.868-.755.438c-.705.408-1.3.71-1.817.976-.568.291-1.058.541-1.543.852a1.664,1.664,0,0,0-.467,1.7c.015.06.152.6.443.624,1.985.274,10.848.106,15.449-.014-.338-9.792-2.453-70.635-3.953-105.179a1.334,1.334,0,0,1,2.666-.116c1.627,37.467,3.977,105.859,4,106.546l.046,1.339-1.339.039c-.586.018-14.372.42-17.179.037a3.231,3.231,0,0,1-2.726-2.649,4.25,4.25,0,0,1,1.62-4.575,20.176,20.176,0,0,1,1.767-.98c.3-.155.607-.311.938-.489-.921-8.173-2.009-18.5-3.16-29.4-2.383-22.608-5.08-48.176-7.3-64.352-.088,0-.169,0-.252,0-6.5,31.3-15.086,100.834-15.174,101.54l-.143,1.161-1.168-.028C1711.94,411.426,1698.521,411.511,1695.266,411.511Z" transform="translate(-69.652 -43.055)" fill="#243640"/>
        <path id="Trazado_20188" data-name="Trazado 20188" d="M1736.863,179.875a11.342,11.342,0,0,1-7.535-3l-.422-.422.033-.6c0-.031.163-3.012.024-6.409-2.982-2.762-4.667-6.754-5.008-11.878-.82-12.289.714-15.586.892-15.921a1.334,1.334,0,1,1,2.358,1.248h0s-1.35,3.089-.589,14.495c.31,4.625,1.829,8.13,4.519,10.417l.44.374.028.576c.141,2.828.075,5.415.029,6.588a8.423,8.423,0,0,0,8.158,1.323,1.334,1.334,0,0,1,.906,2.51A11.243,11.243,0,0,1,1736.863,179.875Z" transform="translate(-77.533 -2.451)" fill="#243640"/>
        <path id="Trazado_20189" data-name="Trazado 20189" d="M1749.2,148.673a1.335,1.335,0,0,1-1.32-1.539h0a17.51,17.51,0,0,0-1.6-9.135c-1.619-2.639-5.771-4.946-12.619-3.563a8.669,8.669,0,0,0-6.243,6.228c1.309,2.515,5.558,2.723,10.938,2.723,4.162,0,5.383,2.543,5.447,3.888a1.334,1.334,0,0,1-2.666.127c-.024-.191-.284-1.347-2.781-1.347-5.235,0-11.749,0-13.586-4.782l-.141-.368.081-.385a11.308,11.308,0,0,1,8.421-8.7c8.257-1.667,13.406,1.417,15.47,4.861l.06.112a19.906,19.906,0,0,1,1.858,10.754A1.334,1.334,0,0,1,1749.2,148.673Z" transform="translate(-77.763 -0.034)" fill="#243640"/>
        <path id="Trazado_20190" data-name="Trazado 20190" d="M1739.851,310.132c-.04,0-.081,0-.122-.005l-5.485-.5a1.334,1.334,0,1,1,.241-2.657l5.485.5a1.334,1.334,0,0,1-.12,2.663Z" transform="translate(-79.883 -44.316)" fill="#243640"/>
        <path id="Trazado_20191" data-name="Trazado 20191" d="M1758.48,185.382a1.329,1.329,0,0,1-.711-.206l-5.312-3.356-.9-14.2a1.334,1.334,0,0,1,1.247-1.416,1.349,1.349,0,0,1,1.417,1.247l.817,12.845,4.162,2.628a1.335,1.335,0,0,1-.715,2.463Z" transform="translate(-84.553 -8.82)" fill="#243640"/>
        <path id="Trazado_20192" data-name="Trazado 20192" d="M1751.122,165.719a1.335,1.335,0,0,1-.165-2.659c2.293-.289,2.83-1.25,3.036-1.949a2.392,2.392,0,0,0-1.581-2.874,2.14,2.14,0,0,0-1.944.254,1.334,1.334,0,0,1-1.545-2.176,4.841,4.841,0,0,1,4.344-.606,5.086,5.086,0,0,1,3.286,6.153c-.443,1.507-1.715,3.4-5.263,3.845A1.27,1.27,0,0,1,1751.122,165.719Z" transform="translate(-83.748 -6.109)" fill="#243640"/>
        <path id="Trazado_20193" data-name="Trazado 20193" d="M1760.052,288.694h-26.685c-.737,0-1.334-.385-1.334-1.122s.6-1.122,1.334-1.122h26.685c.737,0,1.334.384,1.334,1.122S1760.789,288.694,1760.052,288.694Z" transform="translate(-79.631 -39.143)" fill="#243640"/>
        <path id="Trazado_20194" data-name="Trazado 20194" d="M1598.85,211.785c-3.942-.086-7.49,2.1-10.341,3.863a25.8,25.8,0,0,1-3.145,1.772,6.446,6.446,0,0,1-5.937-.441,4.422,4.422,0,0,1-2.113-3.655l.342-15.545a1.332,1.332,0,0,0-.374-.955,1.442,1.442,0,0,0-.941-.506l-52.891-.869h-.021a1.421,1.421,0,0,0-1.333,1.41l-.595,38.967a1.464,1.464,0,0,0,1.315,1.5h.02a1.423,1.423,0,0,0,1.334-1.413l-.392,22.164a1.356,1.356,0,0,0-1.282-1.154,1.306,1.306,0,0,0-1.368,1.288l-.1,4.133a1.326,1.326,0,0,0,.371.956,1.243,1.243,0,0,0,.942.295l52.587.654h.02a1.241,1.241,0,0,0,1.333-1.191c0-.129.289-12.942.449-15.966a5.058,5.058,0,0,1,2.3-4.364,7.634,7.634,0,0,1,6.822-.006,22.551,22.551,0,0,1,2.922,1.757c2.481,1.643,5.567,3.691,9.161,3.782a18.245,18.245,0,1,0,.923-36.478Z" transform="translate(-26.422 -16.196)" fill="#03abf2" style="mix-blend-mode: multiply;isolation: isolate"/>
        <path id="Trazado_20195" data-name="Trazado 20195" d="M1708.337,248.941a1.328,1.328,0,0,1-.6-.141l-6.976-3.486a1.334,1.334,0,0,1,1.191-2.387l6.506,3.251,27.722-8.246,7.278-24.36a1.334,1.334,0,1,1,2.556.764l-7.484,25.051a1.332,1.332,0,0,1-.9.9l-28.919,8.6A1.321,1.321,0,0,1,1708.337,248.941Z" transform="translate(-71.56 -20.526)" fill="#243640"/>
        <path id="Trazado_20196" data-name="Trazado 20196" d="M1691.027,265.038a1.334,1.334,0,0,1-.505-2.57l5.485-2.244a1.334,1.334,0,1,1,1.01,2.469l-5.485,2.244A1.319,1.319,0,0,1,1691.027,265.038Z" transform="translate(-68.954 -32.505)" fill="#243640"/>
        <path id="Trazado_20197" data-name="Trazado 20197" d="M1534.108,261.973a1.4,1.4,0,0,1-.221-.018l-5.609-.935a1.334,1.334,0,0,1,.44-2.632l5.609.935a1.334,1.334,0,0,1-.218,2.65Z" transform="translate(-27.971 -32.062)" fill="#243640"/>
        <path id="Trazado_20198" data-name="Trazado 20198" d="M1715.019,271.861a1.335,1.335,0,0,1-1.3-1.029l-1-4.239a1.335,1.335,0,0,1,2.6-.61l1,4.238a1.334,1.334,0,0,1-.994,1.6A1.353,1.353,0,0,1,1715.019,271.861Z" transform="translate(-74.753 -33.722)" fill="#243640"/>
        <path id="Trazado_20199" data-name="Trazado 20199" d="M1511.664,268.941a1.322,1.322,0,0,1-.263-.026,1.335,1.335,0,0,1-1.047-1.57l1-4.987a1.334,1.334,0,1,1,2.617.523l-1,4.987A1.336,1.336,0,0,1,1511.664,268.941Z" transform="translate(-23.725 -32.797)" fill="#243640"/>
        <path id="Trazado_20200" data-name="Trazado 20200" d="M1734.635,179.26a10.683,10.683,0,0,1-3.011-.417,1.334,1.334,0,1,1,.816-2.541,7.522,7.522,0,0,0,5.4-.5,1.334,1.334,0,0,1,1.345,2.3A8.992,8.992,0,0,1,1734.635,179.26Z" transform="translate(-79.294 -11.194)" fill="#243640"/>
        <path id="Trazado_20201" data-name="Trazado 20201" d="M1508.545,246.255a1.363,1.363,0,0,1-.367-.051l-26.547-7.6a1.333,1.333,0,0,1-.957-1.44l3.154-26.6a1.334,1.334,0,0,1,2.65.314l-3.022,25.472,25.059,7.174,6.34-2.113a1.335,1.335,0,0,1,.844,2.532l-6.732,2.244A1.336,1.336,0,0,1,1508.545,246.255Z" transform="translate(-16.245 -19.71)" fill="#243640"/>
        <g id="Grupo_9906" data-name="Grupo 9906" transform="translate(1597.091 163.197)">
          <path id="Trazado_20202" data-name="Trazado 20202" d="M1659.08,181a1,1,0,0,1-.708-1.708l5-5.017a1,1,0,0,1,1.418,1.413l-5.005,5.017A1,1,0,0,1,1659.08,181Z" transform="translate(-1658.073 -173.979)" fill="#03abf2"/>
          <path id="Trazado_20203" data-name="Trazado 20203" d="M1664.088,180.993a1,1,0,0,1-.707-.292l-5.016-5a1,1,0,0,1,1.414-1.417l5.017,5a1,1,0,0,1-.708,1.71Z" transform="translate(-1658.071 -173.981)" fill="#03abf2"/>
        </g>
        <g id="Grupo_9907" data-name="Grupo 9907" transform="translate(1559.153 136.497)">
          <path id="Trazado_20204" data-name="Trazado 20204" d="M1608.358,149.044a1,1,0,0,1-.709-1.707l8.743-8.766a1,1,0,1,1,1.418,1.413l-8.743,8.767A1,1,0,0,1,1608.358,149.044Z" transform="translate(-1607.346 -138.277)" fill="#03abf2"/>
          <path id="Trazado_20205" data-name="Trazado 20205" d="M1617.107,149.036a1,1,0,0,1-.707-.292L1607.635,140a1,1,0,0,1,1.414-1.416l8.765,8.742a1,1,0,0,1-.707,1.71Z" transform="translate(-1607.342 -138.28)" fill="#03abf2"/>
        </g>
        <g id="Grupo_9908" data-name="Grupo 9908" transform="translate(1524.196 267.671)">
          <path id="Trazado_20206" data-name="Trazado 20206" d="M1561.61,322.058a1,1,0,0,1-.709-1.707l6.359-6.375a1,1,0,1,1,1.418,1.413l-6.359,6.376A1,1,0,0,1,1561.61,322.058Z" transform="translate(-1560.6 -313.681)" fill="#03abf2"/>
          <path id="Trazado_20207" data-name="Trazado 20207" d="M1567.973,322.052a1,1,0,0,1-.707-.292l-6.375-6.359a1,1,0,0,1,1.414-1.416l6.375,6.359a1,1,0,0,1-.707,1.709Z" transform="translate(-1560.597 -313.684)" fill="#03abf2"/>
        </g>
        <path id="Trazado_20208" data-name="Trazado 20208" d="M1499.407,191a1.333,1.333,0,0,1-.944-.391l-1.838-1.839-4.349-.915a1.334,1.334,0,0,1,.55-2.611l4.738,1a1.342,1.342,0,0,1,.669.363l2.118,2.119a1.335,1.335,0,0,1-.943,2.278Z" transform="translate(-18.906 -13.616)" fill="#243640"/>
        <g id="Grupo_9909" data-name="Grupo 9909" transform="translate(1563.763 187.473)" style="mix-blend-mode: multiply;isolation: isolate">
          <path id="Trazado_20209" data-name="Trazado 20209" d="M1683.067,281.348h-.023l-68.226-1.172a1.335,1.335,0,0,1-1.312-1.352c.008-.577.191-14.171.348-17.5a8.211,8.211,0,0,1,3.782-7.023c2.691-1.671,6.523-1.766,10-.249a26.133,26.133,0,0,1,3.595,2.106c2.533,1.657,5.4,3.534,8.508,3.6.113,0,.226,0,.338,0a17.044,17.044,0,0,0,.337-34.084h-.164c-3.394,0-6.639,2.036-9.507,3.836a29.884,29.884,0,0,1-3.793,2.147,9.806,9.806,0,0,1-9.04-.654,7.641,7.641,0,0,1-3.6-6.3l.3-16.952a1.334,1.334,0,0,1,1.334-1.31h.01l67.758.564a1.333,1.333,0,0,1,1.323,1.348l-.3,29.475a1.335,1.335,0,0,1-1.334,1.321h-.014a1.335,1.335,0,0,1-1.32-1.348l.288-28.138-65.1-.542-.277,15.571a4.92,4.92,0,0,0,2.374,4.059,7.1,7.1,0,0,0,6.55.448,28.056,28.056,0,0,0,3.425-1.953c3.071-1.927,6.879-4.352,11.141-4.242a19.712,19.712,0,0,1-.389,39.421c-.131,0-.26,0-.391,0-3.872-.076-7.223-2.269-9.916-4.031a24.533,24.533,0,0,0-3.2-1.894,8.294,8.294,0,0,0-7.521.071,5.662,5.662,0,0,0-2.525,4.881c-.126,2.681-.274,12.49-.326,16.083l65.551,1.125.115-13.056a1.335,1.335,0,0,1,1.334-1.323h.012a1.335,1.335,0,0,1,1.323,1.346l-.127,14.4a1.334,1.334,0,0,1-1.334,1.322Z" transform="translate(-1613.506 -206.441)" fill="#03abf2"/>
        </g>
      </g>
    </g>
  </g>
</svg>
