<svg xmlns="http://www.w3.org/2000/svg" width="1140" height="329.362" viewBox="0 0 1140 329.362">
  <g id="Grupo_10024" data-name="Grupo 10024" transform="translate(-390 -2428.638)">
    <rect id="Rectángulo_2513" data-name="Rectángulo 2513" width="1140" height="124" transform="translate(390 2613)" fill="#5f3bbf"/>
    <text id="De_acuerdo_con_lo_anterior_los_documentos_a_tener_en_cuenta_son:" data-name="De acuerdo con lo anterior, los documentos a tener en cuenta son:" transform="translate(618 2658)" fill="#fff" font-size="18" font-family="OpenSans-SemiBold, Open Sans" font-weight="600"><tspan x="53.336" y="19">De acuerdo con lo anterior, los documentos a tener en cuenta son:</tspan></text>
    <path id="Polígono_6" data-name="Polígono 6" d="M16,0,32,22H0Z" transform="translate(976 2758) rotate(180)" fill="#5f3bbf"/>
    <g id="Grupo_9903" data-name="Grupo 9903" transform="translate(701.005 2213.882)">
      <circle id="Elipse_615" data-name="Elipse 615" cx="35.223" cy="35.223" r="35.223" transform="translate(221.765 239.964)" fill="#f1f7f8" opacity="0.85"/>
      <path id="Trazado_20074" data-name="Trazado 20074" d="M399.443,338.632a2.31,2.31,0,1,1,2.311-2.31A2.312,2.312,0,0,1,399.443,338.632Zm0-3.771a1.461,1.461,0,1,0,1.462,1.461A1.462,1.462,0,0,0,399.443,334.861Z" transform="translate(-137.411 -63.977)" fill="#243640"/>
      <path id="Trazado_20075" data-name="Trazado 20075" d="M170.12,537.37a2.847,2.847,0,1,1,2.847-2.847A2.849,2.849,0,0,1,170.12,537.37Zm0-4.844a2,2,0,1,0,2,2A2,2,0,0,0,170.12,532.527Z" transform="translate(-14.098 -170.019)" fill="#03abf2"/>
      <g id="Grupo_9889" data-name="Grupo 9889" transform="translate(140.995 318.155)">
        <path id="Trazado_20076" data-name="Trazado 20076" d="M141.518,444.886a.506.506,0,0,1-.523-.5.528.528,0,0,1,.522-.53l5.8-.013h0a.537.537,0,0,1,.523.539.513.513,0,0,1-.522.511l-5.8,0Z" transform="translate(-140.995 -441.052)" fill="#243640"/>
        <path id="Trazado_20077" data-name="Trazado 20077" d="M147.778,444.447a.463.463,0,0,1-.522-.446l-.007-5.728a.463.463,0,0,1,.522-.446h0a.491.491,0,0,1,.523.483l.007,5.709c0,.289-.234.428-.522.428Z" transform="translate(-144.35 -437.826)" fill="#243640"/>
      </g>
      <path id="Trazado_20078" data-name="Trazado 20078" d="M339.256,440.958a.7.7,0,0,1-.689-.6l-2.539-17.827.1-.195c.024-.047.58-1.159.984-1.849a.7.7,0,0,1,1.2.7c-.285.486-.666,1.229-.843,1.576l2.477,17.4a.7.7,0,0,1-.591.788A.709.709,0,0,1,339.256,440.958Z" transform="translate(-104.63 -110.184)" fill="#243640"/>
      <path id="Trazado_20079" data-name="Trazado 20079" d="M329.007,441.563h0a.706.706,0,0,1-.695-.709c0-.128.036-12.822-.075-17.6l-1.112-2.121a.7.7,0,0,1,1.234-.65l1.264,2.407,0,.163c.115,4.667.079,17.677.079,17.808A.705.705,0,0,1,329.007,441.563Z" transform="translate(-99.81 -110.166)" fill="#243640"/>
      <path id="Trazado_20080" data-name="Trazado 20080" d="M288.907,452.9h-.02a.714.714,0,0,1-.677-.743c.006-.207.586-20.879,1.175-28.425.238-3.044,1.293-5.01,6.643-7.907.2-.11.611-.346,1.105-.627,1.15-.654,2.726-1.55,3.332-1.826a.7.7,0,1,1,.577,1.268c-.55.25-2.157,1.163-3.221,1.767-.505.287-.924.525-1.131.636-5.232,2.835-5.74,4.527-5.916,6.784-.586,7.511-1.165,28.162-1.171,28.369A.72.72,0,0,1,288.907,452.9Z" transform="translate(-78.976 -106.516)" fill="#243640"/>
      <path id="Trazado_20081" data-name="Trazado 20081" d="M371.715,447.239a.691.691,0,0,1-.492-.2l-1.3-1.3-3.263.885a.7.7,0,0,1-.42-.017l-11.508-4.159a.7.7,0,0,1-.444-.507c-.044-.206-4.439-20.35-6.469-24.871a73.053,73.053,0,0,0-8.146-3.464.7.7,0,0,1,.468-1.313,70.489,70.489,0,0,1,8.557,3.671.7.7,0,0,1,.285.3c1.929,3.983,5.94,22.06,6.585,25l10.939,3.953,3.44-.934a.7.7,0,0,1,.675.18l1.584,1.584a.7.7,0,0,1-.493,1.189Z" transform="translate(-106.338 -105.95)" fill="#243640"/>
      <path id="Trazado_20082" data-name="Trazado 20082" d="M334.945,391.941a.7.7,0,0,1-.517-1.163,7.107,7.107,0,0,1,2.034-1.544,25.534,25.534,0,0,1-.065-3.527l.02-.391.344-.187c1.516-.821,2.434-3,2.654-6.3.464-6.961-.368-8.826-.377-8.844a.7.7,0,0,1,.316-.927.69.69,0,0,1,.924.29c.106.2,1.022,2.169.527,9.574-.242,3.623-1.261,6.049-3.031,7.221a22.373,22.373,0,0,0,.126,3.42l.077.558-.528.193a5.68,5.68,0,0,0-1.984,1.4A.7.7,0,0,1,334.945,391.941Z" transform="translate(-103.675 -82.739)" fill="#243640"/>
      <path id="Trazado_20083" data-name="Trazado 20083" d="M319.784,369.137h-.034a.7.7,0,0,1-.663-.73c.038-.777.751-2.248,3.185-2.248.416,0,.82.005,1.213.01,2.861.033,4.444-.01,5.071-1.3a6.116,6.116,0,0,0-4.55-4.169,6.271,6.271,0,0,0-7.2,2.795,8.794,8.794,0,0,0-.729,4.431.7.7,0,0,1-1.381.187,10.068,10.068,0,0,1,.856-5.225c1.192-2.463,4.678-4.541,8.787-3.541a7.4,7.4,0,0,1,5.634,5.444l.043.2-.074.192c-.94,2.447-3.505,2.417-6.47,2.381-.386,0-.786-.009-1.2-.009-1.729,0-1.792.911-1.793.92A.7.7,0,0,1,319.784,369.137Z" transform="translate(-93.154 -77.43)" fill="#243640"/>
      <path id="Trazado_20084" data-name="Trazado 20084" d="M314.219,404.291a.7.7,0,0,1-.342-1.3l1.451-.816.155-7.717a.7.7,0,0,1,1.394.028l-.172,8.514L314.56,404.2A.7.7,0,0,1,314.219,404.291Z" transform="translate(-92.556 -96.036)" fill="#243640"/>
      <path id="Trazado_20085" data-name="Trazado 20085" d="M317.469,389.125a.711.711,0,0,1-.088-.006,3.278,3.278,0,0,1-3.091-2.249,2.965,2.965,0,0,1,1.917-3.587,2.822,2.822,0,0,1,2.529.351.7.7,0,0,1-.806,1.137,1.408,1.408,0,0,0-1.277-.167,1.558,1.558,0,0,0-1.026,1.875c.133.452.477,1.074,1.928,1.258a.7.7,0,0,1-.086,1.388Z" transform="translate(-92.907 -90.329)" fill="#243640"/>
      <path id="Trazado_20086" data-name="Trazado 20086" d="M324.992,460.748a.7.7,0,0,1-.076,0l-19.071-2.093a.7.7,0,0,1-.619-.744l1.357-18.329a.7.7,0,0,1,1.39.1l-1.308,17.659,17.988,1.974,1.048-1.523a.7.7,0,1,1,1.148.79l-1.285,1.866A.7.7,0,0,1,324.992,460.748Z" transform="translate(-88.104 -120.264)" fill="#243640"/>
      <path id="Trazado_20087" data-name="Trazado 20087" d="M333.462,404.8a5.333,5.333,0,0,1-2.7-.687.7.7,0,0,1,.7-1.2,4.667,4.667,0,0,0,3.36.316.7.7,0,0,1,.424,1.328A6.346,6.346,0,0,1,333.462,404.8Z" transform="translate(-101.62 -100.889)" fill="#243640"/>
      <g id="Grupo_9890" data-name="Grupo 9890" transform="translate(262.27 216.764)">
        <path id="Trazado_20088" data-name="Trazado 20088" d="M433.406,219.089a30.643,30.643,0,0,0-9.39,1.471,11.1,11.1,0,0,1,.486,1.308,29.528,29.528,0,1,1-19.841,22.008c-.281-.143-.565-.279-.854-.4-.16-.025-.319-.054-.479-.078a30.773,30.773,0,1,0,30.078-24.305Z" transform="translate(-402.63 -219.089)" fill="#03abf2"/>
        <path id="Trazado_20089" data-name="Trazado 20089" d="M450.007,286.886a.7.7,0,0,0-.978.128l-17.974,23.421c.356.3.705.609,1.077.887l18-23.459A.7.7,0,0,0,450.007,286.886Z" transform="translate(-417.88 -255.383)" fill="#03abf2"/>
        <path id="Trazado_20090" data-name="Trazado 20090" d="M435.589,276.407a.687.687,0,0,1-.2-.031L408.6,268.241a.7.7,0,1,1,.405-1.334l26.787,8.135a.7.7,0,0,1-.2,1.364Z" transform="translate(-405.567 -244.726)" fill="#03abf2"/>
      </g>
      <g id="Grupo_9891" data-name="Grupo 9891" transform="translate(257.801 214.756)">
        <path id="Trazado_20091" data-name="Trazado 20091" d="M416.417,215.926a21.758,21.758,0,0,0-21.758,21.758l35.523,11.5Z" transform="translate(-393.884 -215.384)" fill="#03abf2" opacity="0.41"/>
        <path id="Trazado_20092" data-name="Trazado 20092" d="M405.464,268.875c-3.476,10.314.632,26.342,11.241,31.983l18.232-23.486Z" transform="translate(-399.033 -243.789)" fill="#03abf2" opacity="0.13"/>
        <path id="Trazado_20093" data-name="Trazado 20093" d="M429.209,249.411a.7.7,0,0,1-.215-.034l-35.524-11.5a.7.7,0,0,1-.482-.663,22.481,22.481,0,0,1,22.456-22.456.7.7,0,0,1,.643.431l13.766,33.261a.7.7,0,0,1-.644.963Zm-34.82-12.7,33.6,10.88L414.98,216.155A21.087,21.087,0,0,0,394.388,236.706Z" transform="translate(-392.988 -214.756)" fill="#03abf2"/>
      </g>
      <g id="Grupo_9892" data-name="Grupo 9892" transform="translate(333.23 221.981)">
        <path id="Trazado_20094" data-name="Trazado 20094" d="M556.239,238.9a.538.538,0,0,1-.523-.54.512.512,0,0,1,.522-.51l7.153,0h0a.5.5,0,0,1,.522.5.528.528,0,0,1-.522.53l-7.152.015Z" transform="translate(-555.716 -234.371)" fill="#03abf2"/>
        <path id="Trazado_20095" data-name="Trazado 20095" d="M563.952,238.357a.5.5,0,0,1-.522-.5l-.009-7.073a.461.461,0,0,1,.522-.445h0a.471.471,0,0,1,.523.457l.008,7.093a.476.476,0,0,1-.522.465Z" transform="translate(-559.85 -230.343)" fill="#03abf2"/>
      </g>
      <g id="Grupo_9894" data-name="Grupo 9894" transform="translate(356.418 239.301)">
        <path id="Trazado_20096" data-name="Trazado 20096" d="M618.259,307.013a.7.7,0,0,1-.7-.7V284.532l-5.923-4.693v-10.46a.7.7,0,1,1,1.394,0v9.786l5.923,4.694v22.457A.7.7,0,0,1,618.259,307.013Z" transform="translate(-608.904 -268.23)" fill="#3a4a53"/>
        <g id="Grupo_9893" data-name="Grupo 9893">
          <path id="Trazado_20097" data-name="Trazado 20097" d="M605.741,271.385l.612.571,2.807-3.021,2.807,3.021.613-.571-3.42-3.678Z" transform="translate(-605.741 -267.708)" fill="#3a4a53"/>
        </g>
      </g>
      <g id="Grupo_9896" data-name="Grupo 9896" transform="translate(332.981 351.7)">
        <path id="Trazado_20098" data-name="Trazado 20098" d="M560.464,535.193a.7.7,0,0,1-.7-.7v-22.3a.7.7,0,0,1,1.394,0v22.3A.7.7,0,0,1,560.464,535.193Z" transform="translate(-557.64 -510.893)" fill="#3a4a53"/>
        <g id="Grupo_9895" data-name="Grupo 9895" transform="translate(0)">
          <path id="Trazado_20099" data-name="Trazado 20099" d="M555.178,513.259l.51.475,2.339-2.517,2.34,2.517.51-.475-2.85-3.065Z" transform="translate(-555.178 -510.193)" fill="#3a4a53"/>
        </g>
      </g>
      <path id="Trazado_20100" data-name="Trazado 20100" d="M250.684,265.177l-4.727-4.727,4.727-4.727,4.728,4.727Zm-2.756-4.727,2.756,2.756,2.757-2.756-2.757-2.756Z" transform="translate(-56.309 -21.978)" fill="#243640"/>
      <path id="Trazado_20101" data-name="Trazado 20101" d="M590.084,483.352l-5.232-5.232,5.232-5.231,5.231,5.231Zm-3.261-5.232,3.261,3.261,3.26-3.261-3.26-3.26Z" transform="translate(-238.117 -138.481)" fill="#03abf2"/>
      <g id="Grupo_9898" data-name="Grupo 9898" transform="translate(161.828 333.753)">
        <path id="Trazado_20102" data-name="Trazado 20102" d="M191.354,487.39a.7.7,0,0,1-.7-.7V473.1a.7.7,0,1,1,1.394,0v13.59A.7.7,0,0,1,191.354,487.39Z" transform="translate(-188.47 -471.975)" fill="#3a4a53"/>
        <g id="Grupo_9897" data-name="Grupo 9897">
          <path id="Trazado_20103" data-name="Trazado 20103" d="M185.939,474.542l.51.475,2.339-2.518,2.34,2.518.51-.475-2.85-3.065Z" transform="translate(-185.939 -471.477)" fill="#3a4a53"/>
        </g>
      </g>
      <path id="Trazado_20104" data-name="Trazado 20104" d="M647.933,408.645a1.323,1.323,0,1,1-1.322-1.323A1.323,1.323,0,0,1,647.933,408.645Z" transform="translate(-270.538 -103.306)" fill="#243640"/>
      <path id="Trazado_20105" data-name="Trazado 20105" d="M445.011,420.894h-55.8c-2.224,0-4.6-1.664-4.6-4.142V382.225a4.817,4.817,0,0,1,4.6-4.539h28.5a.7.7,0,1,1,0,1.394h-28.5A3.442,3.442,0,0,0,386,382.225v34.528c0,1.62,1.692,2.748,3.211,2.748h55.8c2.153,0,2.32-2.1,2.32-2.748V408a.7.7,0,1,1,1.394,0v8.751C448.725,419.231,447.233,420.894,445.011,420.894Z" transform="translate(-130.692 -87.407)" fill="#243640"/>
      <path id="Trazado_20106" data-name="Trazado 20106" d="M448.324,424.014a3.5,3.5,0,1,1,3.5-3.5A3.5,3.5,0,0,1,448.324,424.014Zm0-5.6a2.1,2.1,0,1,0,2.1,2.1A2.106,2.106,0,0,0,448.324,418.413Z" transform="translate(-162.998 -108.509)" fill="#243640"/>
      <path id="Trazado_20107" data-name="Trazado 20107" d="M469.5,478.056a.7.7,0,0,1-.7-.7v-8.015a.7.7,0,0,1,1.394,0v8.015A.7.7,0,0,1,469.5,478.056Z" transform="translate(-175.861 -136.206)" fill="#243640"/>
      <path id="Trazado_20108" data-name="Trazado 20108" d="M436.426,478.056a.7.7,0,0,1-.7-.7v-8.015a.7.7,0,0,1,1.393,0v8.015A.7.7,0,0,1,436.426,478.056Z" transform="translate(-158.116 -136.206)" fill="#243640"/>
      <path id="Trazado_20109" data-name="Trazado 20109" d="M422.41,491.405a.7.7,0,0,1-.7-.7,4.711,4.711,0,0,1,4.754-4.77H429.6a.7.7,0,0,1,0,1.394h-3.136a3.333,3.333,0,0,0-3.361,3.376A.7.7,0,0,1,422.41,491.405Z" transform="translate(-150.597 -145.481)" fill="#243640"/>
      <path id="Trazado_20110" data-name="Trazado 20110" d="M468.894,491.411a.7.7,0,0,1-.7-.7,3.559,3.559,0,0,0-3.628-3.383h-7.095a.7.7,0,0,1,0-1.394h7.095a4.91,4.91,0,0,1,5.023,4.777A.7.7,0,0,1,468.894,491.411Z" transform="translate(-169.408 -145.481)" fill="#243640"/>
      <path id="Trazado_20111" data-name="Trazado 20111" d="M237.212,554.616a.7.7,0,0,1-.7-.7V506.18a.7.7,0,0,1,1.394,0v47.739A.7.7,0,0,1,237.212,554.616Z" transform="translate(-51.244 -155.967)" fill="#243640"/>
      <path id="Trazado_20112" data-name="Trazado 20112" d="M504.834,554.616a.7.7,0,0,1-.7-.7V506.18a.7.7,0,0,1,1.394,0v47.739A.7.7,0,0,1,504.834,554.616Z" transform="translate(-194.815 -155.967)" fill="#243640"/>
      <path id="Trazado_20113" data-name="Trazado 20113" d="M253.921,558.943a.768.768,0,0,1-.7-.773l-.147-45.182a.741.741,0,0,1,.2-.514.719.719,0,0,1,.493-.224H362.83a.7.7,0,0,1,.7.7v44.6a.7.7,0,0,1-1.393,0V513.643H254.473l.145,44.522a.767.767,0,0,1-.695.777Z" transform="translate(-60.129 -159.597)" fill="#243640"/>
      <path id="Trazado_20114" data-name="Trazado 20114" d="M251.059,478.607h-9.544a.7.7,0,0,1-.7-.655l-.924-15.332a.7.7,0,0,1,.7-.74H252.6a.7.7,0,0,1,.693.767l-1.539,15.333A.7.7,0,0,1,251.059,478.607Zm-8.888-1.393h8.257l1.4-13.938h-10.5Z" transform="translate(-53.057 -132.576)" fill="#3a4a53"/>
      <path id="Trazado_20115" data-name="Trazado 20115" d="M255.712,444.938a.7.7,0,0,1-.644-.429l-.021-.051c-.846-2.031-.861-2.578.837-4.893.7-.953.054-3.062-.227-3.727a.7.7,0,1,1,1.284-.543c.143.337,1.354,3.341.068,5.094-1.369,1.867-1.343,1.93-.674,3.534l.021.051a.7.7,0,0,1-.375.911A.687.687,0,0,1,255.712,444.938Z" transform="translate(-60.885 -118.084)" fill="#03abf2"/>
      <path id="Trazado_20116" data-name="Trazado 20116" d="M359.414,500.937h-11.5a.7.7,0,1,1,0-1.393h10.8V497.1h-136.6v2.44h67.252a.7.7,0,1,1,0,1.393H221.425a.7.7,0,0,1-.7-.7v-3.832a.7.7,0,0,1,.7-.7H359.414a.7.7,0,0,1,.7.7v3.832A.7.7,0,0,1,359.414,500.937Z" transform="translate(-42.774 -150.724)" fill="#243640"/>
      <path id="Trazado_20117" data-name="Trazado 20117" d="M385.738,560.417a.7.7,0,0,1-.669-.506l-.529-1.852-2.934-1.955a.7.7,0,0,1-.3-.485L376.056,517.4a.7.7,0,1,1,1.381-.19l5.2,37.908,2.886,1.924a.7.7,0,0,1,.284.389l.6,2.1a.7.7,0,0,1-.671.889Z" transform="translate(-126.1 -161.934)" fill="#243640"/>
      <path id="Trazado_20118" data-name="Trazado 20118" d="M425.463,561.268a.7.7,0,0,1-.641-.423L424.03,559l-5.146-2.287a.7.7,0,0,1-.391-.462l-9.441-36.344a.7.7,0,0,1,1.349-.351l9.357,36.02,5.089,2.261a.7.7,0,0,1,.357.362l.9,2.1a.7.7,0,0,1-.64.971Z" transform="translate(-143.793 -163.236)" fill="#243640"/>
      <path id="Trazado_20119" data-name="Trazado 20119" d="M329.987,558.2a.7.7,0,0,1-.688-.595l-4.707-31.627c-3.01.005-16.395.031-19.382.031-6.981,0-7.374-7.147-7.377-7.219a.7.7,0,0,1,.666-.727h.031a.7.7,0,0,1,.7.665c.012.251.353,5.809,5.985,5.809,3.372,0,19.982-.11,19.982-.11h0a.77.77,0,0,1,.69.672l4.8,32.262a.716.716,0,0,1-.586.811A.979.979,0,0,1,329.987,558.2Z" transform="translate(-84.138 -162.717)" fill="#243640"/>
      <path id="Trazado_20120" data-name="Trazado 20120" d="M314.306,530.182H295.949c-.093,0-9.26-.62-9.26-12.386a.7.7,0,1,1,1.393,0c0,10.321,7.416,10.962,7.923,10.993h18.3a.7.7,0,0,1,0,1.394Z" transform="translate(-78.161 -162.198)" fill="#243640"/>
      <path id="Trazado_20121" data-name="Trazado 20121" d="M345.248,575.563a.7.7,0,0,1-.691-.613l-3.747-30.725a.7.7,0,0,1,1.384-.168l3.747,30.725a.7.7,0,0,1-.608.776A.664.664,0,0,1,345.248,575.563Z" transform="translate(-107.192 -176.332)" fill="#243640"/>
      <path id="Trazado_20122" data-name="Trazado 20122" d="M297.207,575.042c-.022,0-.044,0-.068,0a.7.7,0,0,1-.627-.761l3-31.174a.7.7,0,0,1,1.388.133l-3,31.174A.7.7,0,0,1,297.207,575.042Z" transform="translate(-83.429 -175.811)" fill="#243640"/>
      <path id="Trazado_20123" data-name="Trazado 20123" d="M400.809,572.236a.7.7,0,0,1-.673-.517L391.593,539.8a.7.7,0,1,1,1.346-.361l8.543,31.924a.7.7,0,0,1-.674.878Z" transform="translate(-134.426 -173.903)" fill="#243640"/>
      <g id="Grupo_9899" data-name="Grupo 9899" transform="translate(314.467 273.901)">
        <path id="Trazado_20124" data-name="Trazado 20124" d="M564.222,392.943a.7.7,0,0,1-.7-.7V382.141a.7.7,0,1,1,1.394,0v10.105A.7.7,0,0,1,564.222,392.943Z" transform="translate(-541.142 -363.325)" fill="#03abf2"/>
        <path id="Trazado_20125" data-name="Trazado 20125" d="M525.938,377.07a.7.7,0,0,1-.4-.129l-4.24-3.026-5.073,2.3a.7.7,0,1,1-.576-1.269l5.439-2.467a.7.7,0,0,1,.693.067l4.177,2.981,5.2-3.435a.7.7,0,0,1,.446-.112l2.905.259,7.7-7.148a.7.7,0,0,1,.474-.186h2.605a.7.7,0,0,1,0,1.394h-2.331l-7.731,7.173a.694.694,0,0,1-.536.184l-2.971-.265-5.4,3.564A.7.7,0,0,1,525.938,377.07Z" transform="translate(-515.236 -354.453)" fill="#03abf2"/>
        <path id="Trazado_20126" data-name="Trazado 20126" d="M545.729,404.639H516.11a.7.7,0,1,1,0-1.393h29.619a.7.7,0,1,1,0,1.393Z" transform="translate(-515.331 -375.021)" fill="#03abf2"/>
        <path id="Trazado_20127" data-name="Trazado 20127" d="M564.974,352.71a.7.7,0,0,1-.7-.7V342.89c0-.385.272-.536.657-.536h5.176c.385,0,.788.151.788.536v8.152a.7.7,0,0,1-1.394,0v-7.295h-3.833v8.266A.7.7,0,0,1,564.974,352.71Z" transform="translate(-541.545 -342.354)" fill="#03abf2"/>
        <path id="Trazado_20128" data-name="Trazado 20128" d="M564.222,394.049a.7.7,0,0,1-.7-.7V384.23a.7.7,0,1,1,1.394,0v9.122A.7.7,0,0,1,564.222,394.049Z" transform="translate(-541.142 -364.445)" fill="#03abf2"/>
        <path id="Trazado_20129" data-name="Trazado 20129" d="M575.5,388.021a.7.7,0,0,1-.7-.7V372.993a.7.7,0,1,1,1.394,0v14.331A.7.7,0,0,1,575.5,388.021Z" transform="translate(-547.192 -358.417)" fill="#03abf2"/>
        <path id="Trazado_20130" data-name="Trazado 20130" d="M552.946,396.314a.7.7,0,0,1-.7-.7v-7.165a.7.7,0,1,1,1.394,0v7.165A.7.7,0,0,1,552.946,396.314Z" transform="translate(-535.093 -366.71)" fill="#03abf2"/>
        <path id="Trazado_20131" data-name="Trazado 20131" d="M564.222,394.049a.7.7,0,0,1-.7-.7V384.23a.7.7,0,1,1,1.394,0v9.122A.7.7,0,0,1,564.222,394.049Z" transform="translate(-541.142 -364.445)" fill="#03abf2"/>
        <path id="Trazado_20132" data-name="Trazado 20132" d="M542.422,359.4a.7.7,0,0,1-.7-.7V344.44c0-.385.373-.583.758-.583h5.177c.385,0,.686.2.686.583v8.153a.7.7,0,0,1-1.394,0v-7.342h-3.833v13.456A.7.7,0,0,1,542.422,359.4Z" transform="translate(-529.447 -343.16)" fill="#03abf2"/>
        <path id="Trazado_20133" data-name="Trazado 20133" d="M519.869,365.376a.7.7,0,0,1-.7-.7V353.566c0-.385.475-.688.86-.688h5.176c.385,0,.585.3.585.688v8.152a.7.7,0,1,1-1.394,0v-7.447h-3.833v10.407A.7.7,0,0,1,519.869,365.376Z" transform="translate(-517.348 -348)" fill="#03abf2"/>
        <path id="Trazado_20134" data-name="Trazado 20134" d="M531.145,373.039a.7.7,0,0,1-.7-.7V367.7c0-.385.424-.538.809-.538h5.176c.385,0,.636.153.636.538v3.51a.7.7,0,1,1-1.394,0v-2.654h-3.833v3.787A.7.7,0,0,1,531.145,373.039Z" transform="translate(-523.397 -355.662)" fill="#03abf2"/>
        <path id="Trazado_20135" data-name="Trazado 20135" d="M553.7,364.079a.7.7,0,0,1-.7-.7v-8.347a.671.671,0,0,1,.708-.655h5.176a.7.7,0,0,1,.737.655v4.747a.7.7,0,0,1-1.394,0v-4.008h-3.833v7.607A.7.7,0,0,1,553.7,364.079Z" transform="translate(-535.496 -348.806)" fill="#03abf2"/>
        <path id="Trazado_20136" data-name="Trazado 20136" d="M542.422,399.425a.7.7,0,0,1-.7-.7V394.07a.7.7,0,0,1,1.394,0v4.658A.7.7,0,0,1,542.422,399.425Z" transform="translate(-529.447 -369.725)" fill="#03abf2"/>
        <path id="Trazado_20137" data-name="Trazado 20137" d="M531.145,399.425a.7.7,0,0,1-.7-.7V394.07a.7.7,0,0,1,1.394,0v4.658A.7.7,0,0,1,531.145,399.425Z" transform="translate(-523.397 -369.725)" fill="#03abf2"/>
        <path id="Trazado_20138" data-name="Trazado 20138" d="M519.869,397.84a.7.7,0,0,1-.7-.7v-6.028a.7.7,0,0,1,1.394,0v6.028A.7.7,0,0,1,519.869,397.84Z" transform="translate(-517.348 -368.139)" fill="#03abf2"/>
      </g>
      <g id="Grupo_9901" data-name="Grupo 9901" transform="translate(216.68 241.17)">
        <path id="Trazado_20139" data-name="Trazado 20139" d="M320.324,332.153a.7.7,0,0,1-.129-1.382l6.3-1.193a.7.7,0,0,1,.26,1.369l-6.3,1.193A.731.731,0,0,1,320.324,332.153Z" transform="translate(-312.512 -302.763)" fill="#243640"/>
        <path id="Trazado_20140" data-name="Trazado 20140" d="M320.324,338.249a.7.7,0,0,1-.129-1.382l6.3-1.193a.7.7,0,0,1,.26,1.37l-6.3,1.192A.692.692,0,0,1,320.324,338.249Z" transform="translate(-312.512 -306.033)" fill="#243640"/>
        <path id="Trazado_20141" data-name="Trazado 20141" d="M322.4,344.274a.7.7,0,0,1-.129-1.382l4.47-.845a.7.7,0,0,1,.26,1.37l-4.47.846A.7.7,0,0,1,322.4,344.274Z" transform="translate(-313.626 -309.451)" fill="#243640"/>
        <path id="Trazado_20142" data-name="Trazado 20142" d="M311.348,298.066a.909.909,0,0,1-.534-.172.786.786,0,0,1-.314-.525v-2.023c0-.027.077-.054.08-.081.006-.063.171-1.747-1.945-3.393a10.933,10.933,0,0,1-4.359-8.986,11.144,11.144,0,1,1,22.288,0c0,4.432-1.539,7.223-5.315,9.625a4.751,4.751,0,0,0-1.759,3.8.7.7,0,0,1-.6.727l-7.448,1.023A.707.707,0,0,1,311.348,298.066Zm.546-2.693v1.2l6.149-.834a6.09,6.09,0,0,1,2.359-4.359c.013-.01.047-.02.061-.029,3.377-2.142,4.7-4.515,4.7-8.463a9.74,9.74,0,1,0-19.479,0,9.509,9.509,0,0,0,3.741,7.868C312.027,292.776,312.242,295,311.894,295.373Z" transform="translate(-304.276 -271.741)" fill="#243640"/>
        <g id="Grupo_9900" data-name="Grupo 9900" transform="translate(7.317 4.394)">
          <path id="Trazado_20143" data-name="Trazado 20143" d="M323.808,291.951H322.8a2.455,2.455,0,0,1-2.738-2.377,2.824,2.824,0,0,1,2.738-2.849h3.628a.523.523,0,1,1,0,1.045H322.8a1.783,1.783,0,0,0-1.645,1.8c0,.967.85,1.332,1.645,1.332h1.01a.523.523,0,1,1,0,1.045Z" transform="translate(-320.061 -284.173)" fill="#243640"/>
          <path id="Trazado_20144" data-name="Trazado 20144" d="M324.839,300.972h-4.106a.523.523,0,1,1,0-1.045h4.106c.794,0,1.643-.348,1.643-1.314a.7.7,0,0,1,.005-.083,1.409,1.409,0,0,0-.279-1.168,1.825,1.825,0,0,0-1.37-.572h-1.487a.523.523,0,1,1,0-1.045h1.487a2.9,2.9,0,0,1,2.2.928,2.392,2.392,0,0,1,.537,1.96A2.459,2.459,0,0,1,324.839,300.972Z" transform="translate(-320.129 -289.013)" fill="#243640"/>
          <path id="Trazado_20145" data-name="Trazado 20145" d="M327.247,284.581a.527.527,0,0,1-.522-.546v-2.268a.523.523,0,1,1,1.045,0v2.268A.527.527,0,0,1,327.247,284.581Z" transform="translate(-323.636 -281.221)" fill="#243640"/>
          <path id="Trazado_20146" data-name="Trazado 20146" d="M327.247,308.683a.527.527,0,0,1-.522-.547v-2.269a.523.523,0,1,1,1.045,0v2.269A.528.528,0,0,1,327.247,308.683Z" transform="translate(-323.636 -294.15)" fill="#243640"/>
        </g>
      </g>
      <path id="Trazado_20147" data-name="Trazado 20147" d="M542.349,369.924h-57.1c-.385,0-.654-.483-.654-.868V340.167a.7.7,0,1,1,1.394,0V368.53h55.753V320.443H511.378a.7.7,0,0,1,0-1.394h30.972c.385,0,.784.162.784.547v49.46A.94.94,0,0,1,542.349,369.924Z" transform="translate(-184.33 -55.95)" fill="#243640"/>
      <path id="Trazado_20148" data-name="Trazado 20148" d="M585.849,269.042a.522.522,0,0,1-.523-.522v-8.712a.523.523,0,1,1,1.045,0v8.712A.522.522,0,0,1,585.849,269.042Z" transform="translate(-238.371 -23.889)" fill="#243640"/>
      <g id="Grupo_9902" data-name="Grupo 9902" transform="translate(147.986 253.613)">
        <path id="Trazado_20149" data-name="Trazado 20149" d="M202.834,355.989H160.608a4.229,4.229,0,0,1-4.531-4.195V309.568a4.735,4.735,0,0,1,4.531-4.8h1.741a.7.7,0,1,1,0,1.394h-1.741a3.367,3.367,0,0,0-3.137,3.408v42.227a2.854,2.854,0,0,0,3.137,2.8h42.226a2.818,2.818,0,0,0,3.073-2.8V309.568a3.339,3.339,0,0,0-3.073-3.408H200.91a.7.7,0,1,1,0-1.394h1.924a4.705,4.705,0,0,1,4.467,4.8v42.227A4.194,4.194,0,0,1,202.834,355.989Z" transform="translate(-156.077 -301.901)" fill="#03abf2"/>
        <path id="Trazado_20150" data-name="Trazado 20150" d="M197.653,327.961H158.277a.7.7,0,1,1,0-1.394h39.376a.7.7,0,0,1,0,1.394Z" transform="translate(-156.883 -313.597)" fill="#03abf2"/>
        <path id="Trazado_20151" data-name="Trazado 20151" d="M199.983,356.527H156.774a.7.7,0,0,1,0-1.394h43.209a.7.7,0,0,1,0,1.394Z" transform="translate(-156.077 -328.921)" fill="#03abf2"/>
        <path id="Trazado_20152" data-name="Trazado 20152" d="M196.5,384.342H156.774a.7.7,0,0,1,0-1.394H196.5a.7.7,0,0,1,0,1.394Z" transform="translate(-156.077 -343.843)" fill="#03abf2"/>
        <path id="Trazado_20153" data-name="Trazado 20153" d="M192.106,367.685a.7.7,0,0,1-.7-.7V327.264a.7.7,0,0,1,1.394,0v39.724A.7.7,0,0,1,192.106,367.685Z" transform="translate(-175.032 -313.597)" fill="#03abf2"/>
        <path id="Trazado_20154" data-name="Trazado 20154" d="M228.19,362.11a.7.7,0,0,1-.7-.7V327.264a.7.7,0,0,1,1.394,0v34.149A.7.7,0,0,1,228.19,362.11Z" transform="translate(-194.39 -313.597)" fill="#03abf2"/>
        <path id="Trazado_20155" data-name="Trazado 20155" d="M170.966,308.509h-.494a2.369,2.369,0,0,1-2.366-2.366v-5.024a2.369,2.369,0,0,1,2.366-2.366h.494a2.369,2.369,0,0,1,2.366,2.366v5.024A2.369,2.369,0,0,1,170.966,308.509Zm-.494-8.363a.974.974,0,0,0-.972.972v5.024a.973.973,0,0,0,.972.972h.494a.973.973,0,0,0,.972-.972v-5.024a.973.973,0,0,0-.972-.972Z" transform="translate(-162.53 -298.675)" fill="#03abf2"/>
        <path id="Trazado_20156" data-name="Trazado 20156" d="M245.388,308.509h-.494a2.369,2.369,0,0,1-2.367-2.366v-5.024a2.369,2.369,0,0,1,2.367-2.366h.494a2.369,2.369,0,0,1,2.367,2.366v5.024A2.369,2.369,0,0,1,245.388,308.509Zm-.494-8.363a.974.974,0,0,0-.973.972v5.024a.974.974,0,0,0,.973.972h.494a.974.974,0,0,0,.973-.972v-5.024a.974.974,0,0,0-.973-.972Z" transform="translate(-202.456 -298.675)" fill="#03abf2"/>
        <path id="Trazado_20157" data-name="Trazado 20157" d="M208.469,308.509h-.494a2.369,2.369,0,0,1-2.367-2.366v-5.024a2.369,2.369,0,0,1,2.367-2.366h.494a2.369,2.369,0,0,1,2.366,2.366v5.024A2.369,2.369,0,0,1,208.469,308.509Zm-.494-8.363a.974.974,0,0,0-.973.972v5.024a.974.974,0,0,0,.973.972h.494a.974.974,0,0,0,.972-.972v-5.024a.974.974,0,0,0-.972-.972Z" transform="translate(-182.649 -298.675)" fill="#03abf2"/>
        <path id="Trazado_20158" data-name="Trazado 20158" d="M189.6,308.342H189.1a2.369,2.369,0,0,1-2.366-2.366v-5.024a2.369,2.369,0,0,1,2.366-2.366h.494a2.369,2.369,0,0,1,2.367,2.366v5.024A2.369,2.369,0,0,1,189.6,308.342Zm-.494-8.363a.974.974,0,0,0-.973.973v5.024a.973.973,0,0,0,.973.972h.494a.974.974,0,0,0,.973-.972v-5.024a.974.974,0,0,0-.973-.973Z" transform="translate(-172.525 -298.585)" fill="#03abf2"/>
        <path id="Trazado_20159" data-name="Trazado 20159" d="M227.346,308.509h-.493a2.369,2.369,0,0,1-2.367-2.366v-5.024a2.369,2.369,0,0,1,2.367-2.366h.493a2.369,2.369,0,0,1,2.367,2.366v5.024A2.369,2.369,0,0,1,227.346,308.509Zm-.493-8.363a.974.974,0,0,0-.973.972v5.024a.974.974,0,0,0,.973.972h.493a.974.974,0,0,0,.973-.972v-5.024a.974.974,0,0,0-.973-.972Z" transform="translate(-192.776 -298.675)" fill="#03abf2"/>
        <path id="Trazado_20160" data-name="Trazado 20160" d="M206.29,368.562a.7.7,0,0,1-.48-.191l-3.241-3.078a.7.7,0,0,1,.96-1.011l2.685,2.55,3.578-4.579a.7.7,0,0,1,1.1.858l-4.052,5.184a.7.7,0,0,1-.5.266Z" transform="translate(-180.902 -332.597)" fill="#03abf2"/>
        <path id="Trazado_20161" data-name="Trazado 20161" d="M184,306.16h-2.768a.7.7,0,0,1,0-1.394H184a.7.7,0,0,1,0,1.394Z" transform="translate(-169.24 -301.901)" fill="#03abf2"/>
        <path id="Trazado_20162" data-name="Trazado 20162" d="M201.284,306.326h-4.047a.7.7,0,0,1,0-1.393h4.047a.7.7,0,0,1,0,1.393Z" transform="translate(-177.824 -301.991)" fill="#03abf2"/>
        <path id="Trazado_20163" data-name="Trazado 20163" d="M219.244,306.16h-3.833a.7.7,0,0,1,0-1.394h3.833a.7.7,0,1,1,0,1.394Z" transform="translate(-187.534 -301.901)" fill="#03abf2"/>
        <path id="Trazado_20164" data-name="Trazado 20164" d="M237.634,306.16h-4.182a.7.7,0,0,1,0-1.394h4.182a.7.7,0,0,1,0,1.394Z" transform="translate(-197.213 -301.901)" fill="#03abf2"/>
      </g>
    </g>
  </g>
</svg>
