<svg xmlns="http://www.w3.org/2000/svg" width="1920" height="369.001" viewBox="0 0 1920 369.001">
  <g id="Grupo_8652" data-name="Grupo 8652" transform="translate(0 0.001)">
    <path id="Trazado_11108" data-name="Trazado 11108" d="M0,0H1920V369H0Z" fill="#5f3bbf" opacity="0.992"/>
    <g id="Grupo_8385" data-name="Grupo 8385" transform="translate(0 288.088)">
      <path id="Trazado_12331" data-name="Trazado 12331" d="M463.839,435.531a5.546,5.546,0,1,1,5.546-5.547A5.553,5.553,0,0,1,463.839,435.531Zm0-8.845a3.3,3.3,0,1,0,3.3,3.3A3.3,3.3,0,0,0,463.839,426.686Z" transform="translate(-228.646 -398.435)" fill="#3a1b8d"/>
      <path id="Trazado_12332" data-name="Trazado 12332" d="M452.026,459.969H429.548c-.827,0-1.5-.432-1.5-1.26s.671-1.26,1.5-1.26h22.477c.827,0,1.5.433,1.5,1.26S452.853,459.969,452.026,459.969Z" transform="translate(-223.804 -403.72)" fill="#3a1b8d"/>
      <path id="Trazado_12333" data-name="Trazado 12333" d="M208.844,453.809H186.366a1.691,1.691,0,0,1,0-3.36h22.477a1.691,1.691,0,0,1,0,3.36Z" transform="translate(-184.868 -402.599)" fill="#3a1b8d"/>
      <g id="Grupo_8384" data-name="Grupo 8384" transform="translate(320 44.035)">
        <path id="Trazado_12334" data-name="Trazado 12334" d="M454.754,404.81H355.962c-.586,0-1.062-.852-1.062-1.68s.476-1.68,1.062-1.68h98.791c.587,0,1.063.852,1.063,1.68S455.341,404.81,454.754,404.81Z" transform="translate(-354.9 -393.8)" fill="#3a1b8d"/>
        <g id="Grupo_8383" data-name="Grupo 8383" transform="translate(92.473)">
          <path id="Trazado_12335" data-name="Trazado 12335" d="M515.771,412.6l-1.431-1.712,7.577-7.848-7.577-7.85,1.431-1.713L525,403.041Z" transform="translate(-514.34 -393.478)" fill="#3a1b8d"/>
        </g>
      </g>
      <path id="Trazado_12336" data-name="Trazado 12336" d="M280.944,424.127H265.407a1.691,1.691,0,0,1,0-3.36h14.105l15.75-19.318h19.595a1.691,1.691,0,0,1,0,3.36H296.694Z" transform="translate(-197.523 -394.754)" fill="#3a1b8d"/>
      <path id="Trazado_12374" data-name="Trazado 12374" d="M280.944,424.127H134.8a1.691,1.691,0,0,1,0-3.36H279.513l15.75-19.318h19.595a1.691,1.691,0,0,1,0,3.36H296.694Z" transform="translate(323.477 -368.754)" fill="#3a1b8d"/>
    </g>
    <g id="Grupo_8392" data-name="Grupo 8392" transform="translate(0 203.906)">
      <g id="Grupo_8391" data-name="Grupo 8391" transform="translate(820)">
        <path id="Trazado_12343" data-name="Trazado 12343" d="M1048.842,450.471a9.972,9.972,0,1,1,9.97-9.975A9.987,9.987,0,0,1,1048.842,450.471Zm0-16.926a6.954,6.954,0,1,0,6.951,6.951A6.962,6.962,0,0,0,1048.842,433.545Z" transform="translate(-813.96 -346.555)" fill="#3a1b8d"/>
        <path id="Trazado_12344" data-name="Trazado 12344" d="M738.585,421.161a7.554,7.554,0,1,1,7.554-7.554A7.562,7.562,0,0,1,738.585,421.161Zm0-12.153a4.6,4.6,0,1,0,4.6,4.6A4.6,4.6,0,0,0,738.585,409.008Z" transform="translate(-663.033 -286.414)" fill="#3bdcf0"/>
        <path id="Trazado_12345" data-name="Trazado 12345" d="M842.723,501.184a4.941,4.941,0,1,1-4.939-4.941A4.942,4.942,0,0,1,842.723,501.184Z" transform="translate(-797.271 -412.271)" fill="#3a1b8d"/>
      </g>
    </g>
    <g id="Grupo_8393" data-name="Grupo 8393" transform="translate(1414.781 185.055)">
      <path id="Trazado_12337" data-name="Trazado 12337" d="M773.5,474.05a1.447,1.447,0,0,1-.741-2.689l64.1-38.192a1.447,1.447,0,0,1,1.482,2.487l-64.1,38.189A1.44,1.44,0,0,1,773.5,474.05Z" transform="translate(-711.4 -333.963)" fill="#3a1b8d"/>
      <g id="Grupo_8387" data-name="Grupo 8387" transform="translate(310.492 8.698)">
        <path id="Trazado_12338" data-name="Trazado 12338" d="M1081.542,362.409a1.448,1.448,0,0,1-.759-2.681l57.9-35.551a1.447,1.447,0,0,1,1.514,2.466l-57.9,35.552A1.441,1.441,0,0,1,1081.542,362.409Z" transform="translate(-1080.094 -322.066)" fill="#3a1b8d"/>
        <g id="Grupo_8386" data-name="Grupo 8386" transform="translate(52.688)">
          <path id="Trazado_12339" data-name="Trazado 12339" d="M1151.536,331.71l-1.4-.387,1.913-6.874-7-1.406.287-1.419,8.519,1.713Z" transform="translate(-1145.057 -321.624)" fill="#3a1b8d"/>
        </g>
      </g>
      <g id="Grupo_8389" data-name="Grupo 8389" transform="translate(0 0)">
        <path id="Trazado_12340" data-name="Trazado 12340" d="M698.718,457.553a1.447,1.447,0,0,1-.77-2.672L757.4,417.558l34.312,28.237L959.381,343.959l52.978,41.95,120.783-72.3a1.447,1.447,0,0,1,1.534,2.454l-122.514,73.386-53-41.967L791.455,449.335l-34.287-28.217-57.682,36.213A1.438,1.438,0,0,1,698.718,457.553Z" transform="translate(-697.27 -311.369)" fill="#3a1b8d"/>
        <g id="Grupo_8388" data-name="Grupo 8388" transform="translate(426.171)">
          <path id="Trazado_12341" data-name="Trazado 12341" d="M1231.893,324.946l-1.959-.525,2.6-9.645-9.809-1.887.384-1.99,11.948,2.3Z" transform="translate(-1222.722 -310.899)" fill="#3a1b8d"/>
        </g>
      </g>
      <path id="Trazado_12342" data-name="Trazado 12342" d="M956.552,408.653a1.447,1.447,0,0,1-.75-2.686L997.3,380.917l17.857,14.119,33.252-19.994a1.447,1.447,0,0,1,1.49,2.48l-34.966,21.026-17.854-14.116L957.3,408.444A1.446,1.446,0,0,1,956.552,408.653Z" transform="translate(-745.986 -322.98)" fill="#3a1b8d"/>
    </g>
    <g id="Grupo_8404" data-name="Grupo 8404" transform="translate(719.358 -204.163)">
      <path id="Trazado_12355" data-name="Trazado 12355" d="M995.569,280.9a1.318,1.318,0,0,1,0-2.635l21.425-.031h0a1.318,1.318,0,0,1,0,2.637l-21.422.03Z" transform="translate(0 3.886)" fill="#3bdcf0"/>
      <path id="Trazado_12356" data-name="Trazado 12356" d="M1002.405,295.482a1.316,1.316,0,0,1-1.316-1.318l-.025-21.422a1.319,1.319,0,0,1,1.316-1.319h0a1.317,1.317,0,0,1,1.316,1.318l.025,21.422a1.319,1.319,0,0,1-1.316,1.319Z" transform="translate(3.888 0)" fill="#3bdcf0"/>
    </g>
    <g id="Grupo_8405" data-name="Grupo 8405" transform="translate(781.358 -157.423)">
      <path id="Trazado_12357" data-name="Trazado 12357" d="M896.822,309.619a1.5,1.5,0,0,1-1.5-1.492v-17.9a1.5,1.5,0,0,1,3,0v17.9A1.5,1.5,0,0,1,896.822,309.619Z" fill="#3a1b8d"/>
      <g id="Grupo_8399" data-name="Grupo 8399">
        <path id="Trazado_12358" data-name="Trazado 12358" d="M890.642,294.415l1.093,1.018,5.007-5.388,5.009,5.388,1.093-1.018-6.1-6.561Z" fill="#3a1b8d"/>
      </g>
    </g>
    <g id="Grupo_8407" data-name="Grupo 8407" transform="translate(-219.304 -159.924)">
      <rect id="Rectángulo_1865" data-name="Rectángulo 1865" width="61" height="3" transform="translate(350.321 423.122)" fill="#3a1b8d"/>
      <rect id="Rectángulo_1866" data-name="Rectángulo 1866" width="52" height="3" transform="translate(359.321 434.122)" fill="#3a1b8d"/>
      <rect id="Rectángulo_1867" data-name="Rectángulo 1867" width="66" height="3" transform="translate(332.321 411.122)" fill="#3a1b8d"/>
      <path id="Trazado_12361" data-name="Trazado 12361" d="M415.732,410.122l-.005-64.36-119.011.056-.062,37.313-2.984.018.112-38.744a1.422,1.422,0,0,1,1.539-1.481v0l121.944.039a1.325,1.325,0,0,1,1.469,1.3l-.019,65.852Z" fill="#3a1b8d"/>
      <g id="Grupo_8406" data-name="Grupo 8406">
        <path id="Trazado_12362" data-name="Trazado 12362" d="M348.072,379.348a6.548,6.548,0,0,1-4.793-1.686c-1.952-1.9-2.215-5.042-2.215-7.865v-.7c.278-5.646,2.935-8.242,8.363-8.242h16.487a1.492,1.492,0,0,1,0,2.984H349.427c-3.319,0-5.159.849-5.382,5.332l0,.625c0,3.077.4,4.844,1.312,5.726a3.943,3.943,0,0,0,2.994.837h5.57a1.492,1.492,0,1,1,0,2.984h-5.53C348.286,379.347,348.177,379.348,348.072,379.348Z" fill="#3a1b8d"/>
        <path id="Trazado_12363" data-name="Trazado 12363" d="M360.422,394.849H343.587a1.492,1.492,0,0,1,0-2.984h16.835c3.412,0,5.449-1.83,5.449-4.9V384.2c0-3.089-1.987-4.86-5.449-4.86h-6.5a1.492,1.492,0,0,1,0-2.984h6.5c5.123,0,8.432,3.079,8.432,7.844v2.765C368.854,391.682,365.465,394.849,360.422,394.849Z" fill="#3a1b8d"/>
        <rect id="Rectángulo_1868" data-name="Rectángulo 1868" width="2.984" height="7.03" transform="translate(353.812 393.647)" fill="#3a1b8d"/>
        <rect id="Rectángulo_1869" data-name="Rectángulo 1869" width="2.984" height="8.021" transform="translate(353.812 354.646)" fill="#3a1b8d"/>
      </g>
      <rect id="Rectángulo_1870" data-name="Rectángulo 1870" width="2.982" height="22.103" transform="translate(283.304 351.272)" fill="#3a1b8d"/>
      <path id="Trazado_12364" data-name="Trazado 12364" d="M319.251,380.421a4.234,4.234,0,1,1-4.234-4.234A4.233,4.233,0,0,1,319.251,380.421Z" fill="#3a1b8d"/>
      <path id="Trazado_12365" data-name="Trazado 12365" d="M397.57,381.507a4.234,4.234,0,1,1-4.234-4.234A4.233,4.233,0,0,1,397.57,381.507Z" fill="#3a1b8d"/>
      <path id="Trazado_12366" data-name="Trazado 12366" d="M296.212,366.574l-.22-3.06c.772-.058,18.922-1.392,18.922-20.392H317.9C317.9,365.122,296.429,366.558,296.212,366.574Z" fill="#3a1b8d"/>
      <path id="Trazado_12367" data-name="Trazado 12367" d="M417.4,369.56c-.216-.016-21.684-1.438-21.684-23.438H398.7c0,19,18.148,20.327,18.921,20.386Z" fill="#3a1b8d"/>
    </g>
    <path id="Sustracción_4" data-name="Sustracción 4" d="M2968.391,1623.648a30.168,30.168,0,0,1-6.775-.776L2883,1604.722V1482h141.927l-27.332,118.39a30.012,30.012,0,0,1-29.2,23.259Z" transform="translate(-2883 -1482)" fill="#3bdcf0"/>
    <path id="Sustracción_2" data-name="Sustracción 2" d="M2721.556,1559h-86.663l-25.374-47.723a29.976,29.976,0,0,1,12.4-40.573l99.632-52.975V1559Z" transform="translate(-801.556 -1190)" fill="#3bdcf0"/>
    <path id="Trazado_12368" data-name="Trazado 12368" d="M226.663,360.3l-5.06-5.06,5.06-5.06,5.062,5.06Zm-3.442-5.06,3.442,3.442,3.443-3.442-3.443-3.442Z" transform="translate(-160.603 -180.513)" fill="#3a1b8d"/>
    <g id="Grupo_8408" data-name="Grupo 8408" transform="translate(-209.646 -376.316)">
      <path id="Trazado_12369" data-name="Trazado 12369" d="M416.765,539.766a1.12,1.12,0,0,1,0-2.239l14.4-.018a1.131,1.131,0,0,1,1.12,1.117,1.119,1.119,0,0,1-1.118,1.12l-14.4.02Z" fill="#3bdcf0"/>
      <path id="Trazado_12370" data-name="Trazado 12370" d="M423.974,546.956a1.119,1.119,0,0,1-1.118-1.118l-.017-14.4a1.121,1.121,0,0,1,1.118-1.122h0a1.12,1.12,0,0,1,1.12,1.119l.015,14.4a1.119,1.119,0,0,1-1.117,1.12Z" fill="#3bdcf0"/>
    </g>
    <g id="Grupo_8410" data-name="Grupo 8410" transform="translate(-43.111 -172.745)">
      <g id="Grupo_8409" data-name="Grupo 8409" transform="translate(1024.111 473.526)">
        <path id="Trazado_12371" data-name="Trazado 12371" d="M1048.138,525.35a24.023,24.023,0,1,1,24.021-24.023A24.052,24.052,0,0,1,1048.138,525.35Zm0-45.988a21.965,21.965,0,1,0,21.963,21.965A21.99,21.99,0,0,0,1048.138,479.362Z" transform="translate(-1024.111 -477.304)" fill="#3a1b8d"/>
      </g>
      <path id="Trazado_12372" data-name="Trazado 12372" d="M1052,512.985l-10.55-8.536a1.029,1.029,0,1,1,1.293-1.6l8.93,7.225,11.947-15.148a1.029,1.029,0,0,1,1.616,1.274Z" transform="translate(-5.259 -9.122)" fill="#3a1b8d"/>
      <path id="Trazado_12373" data-name="Trazado 12373" d="M1058.351,467.192h-6.175a1.035,1.035,0,0,1,0-2.07h6.175a1.035,1.035,0,0,1,0,2.07Z" transform="translate(-8.384)" fill="#3a1b8d"/>
    </g>
    <g id="Grupo_8411" data-name="Grupo 8411" transform="translate(405.354 -200.316)">
      <path id="Trazado_12369-2" data-name="Trazado 12369" d="M416.765,539.766a1.12,1.12,0,0,1,0-2.239l14.4-.018a1.131,1.131,0,0,1,1.12,1.117,1.119,1.119,0,0,1-1.118,1.12l-14.4.02Z" fill="#3a1b8d"/>
      <path id="Trazado_12370-2" data-name="Trazado 12370" d="M423.974,546.956a1.119,1.119,0,0,1-1.118-1.118l-.017-14.4a1.121,1.121,0,0,1,1.118-1.122h0a1.12,1.12,0,0,1,1.12,1.119l.015,14.4a1.119,1.119,0,0,1-1.117,1.12Z" fill="#3a1b8d"/>
    </g>
  </g>
</svg>
