<svg xmlns="http://www.w3.org/2000/svg" width="395.104" height="308.187" viewBox="0 0 395.104 308.187">
  <g id="Grupo_9846" data-name="Grupo 9846" transform="translate(-1061 -31.641)">
    <path id="Trazado_18009" data-name="Trazado 18009" d="M1918.207,339.472c-112.292-15.742-107.284,46.565-182.313,52.756-128.941,10.638-166.02,195.179,2.691,234.618,110.882,25.921,192.127-3.843,223.488-28.484C2054.1,526.057,2035.429,355.9,1918.207,339.472Z" transform="translate(-564.25 -305.291)" fill="#3a1b8d" opacity="0.144" style="mix-blend-mode: multiply;isolation: isolate"/>
    <g id="Grupo_9845" data-name="Grupo 9845" transform="translate(2598 1653)">
      <g id="_ÎÓÈ_3" data-name="—ÎÓÈ_3" transform="translate(-1491.354 -1614.869)">
        <rect id="Rectángulo_2500" data-name="Rectángulo 2500" width="73.749" height="48.607" transform="translate(263.989 156.717)" fill="#c4d1f7"/>
        <path id="Trazado_19918" data-name="Trazado 19918" d="M427.713,438.841a8.81,8.81,0,0,1-10.656,6.443l-30.74-6.849a8.81,8.81,0,0,1-6.91-10.359l11.7-52.505a8.81,8.81,0,0,1,10.656-6.444l30.739,6.851a8.808,8.808,0,0,1,6.91,10.358Z" transform="translate(-200.758 -258.636)" fill="#f2f5e0"/>
        <path id="Trazado_19919" data-name="Trazado 19919" d="M448.418,533.177a17.6,17.6,0,1,1-17.6-17.6A17.6,17.6,0,0,1,448.418,533.177Z" transform="translate(-206.266 -282.39)" fill="#c2e88f"/>
        <path id="Trazado_19920" data-name="Trazado 19920" d="M351.258,297.16l-15.328-.312s-10.755,6.793-9.638,11.889c.322,1.466,4.19,4.246,4.19,4.246l.279,17.834s6.592,3.171,8.94,1.982,7.067-3.661,7.067-3.661l-.554-7.255s4.223-.713,5.4-6.419C353.347,307.015,352.448,306.992,351.258,297.16Z" transform="translate(-192.175 -246.968)" fill="#ffd4cd"/>
        <path id="Trazado_19921" data-name="Trazado 19921" d="M352.5,287.308s-6.076-6.37-9.853-6.684c-4.222-.352-8.445.351-13.02,4.925-3.079,3.079-4.876,14.062-3.7,17.581,3.754-2.346,5.028-.486,7.129-1.252.838-2.235,1.55-5.3,3.9-6.24,3.609-1.443,12.032-.939,14.5-3.051S352.5,287.308,352.5,287.308Z" transform="translate(-192.07 -244.328)" fill="#7e8192"/>
        <path id="Trazado_19922" data-name="Trazado 19922" d="M359.24,433.9,312.8,432.5,302.69,568.546l22.323,1.39-.533-5.022-5.028-3.631,15.764-105.875,1.676.28,22.768,113.277,19.694-.977s.978-5.168-.7-5.168-3.771-2.514-3.771-2.514Z" transform="translate(-188.366 -268.936)" fill="#4f5e8a"/>
        <path id="Trazado_19923" data-name="Trazado 19923" d="M359.587,340.095l-15.972-7.345s-2.351,4.124-8.8,3.562c-2.827-.247-6.18-1.881-7.752-1.467a38.478,38.478,0,0,0-20.373,13.9l6.425,45.814.539,5.447-.629,19.485,47.35-.629-.21-15.5,11.942-7.333,2.724-2.1,3.562-16.761-8.8-6.914Z" transform="translate(-189.014 -252.782)" fill="#dde8fb"/>
        <path id="Trazado_19924" data-name="Trazado 19924" d="M332.052,294.644c3.519-6.333,11.629-1.3,14.621-5.88,2.793-2.234.733-5.064,1.116-5.447,2.655,1.257,4.383,4.5,4.383,4.5s1.408,3.17-1.054,5.28-7.838,3.284-11.709,2.932-5.611,6.088-5.611,6.088l-3.143-.629C330.188,299.812,330.644,297.811,332.052,294.644Z" transform="translate(-192.866 -244.777)" fill="#525468" opacity="0.72"/>
        <path id="Trazado_19925" data-name="Trazado 19925" d="M360.789,422.038s-35.064-2.1-44.912-8.176c-.279-3.352-1.81,6.57-1.391,8.8l46.722,3.352Z" transform="translate(-190.265 -265.807)" fill="#b4c9ea"/>
        <path id="Trazado_19926" data-name="Trazado 19926" d="M351.239,454.087l-6.772,2.928,21.189,109.928s.468-.486,5.028-1.048c-3.771-19.694-20.155-104.129-20.016-105.515C351.02,456.862,351.239,454.087,351.239,454.087Z" transform="translate(-195.132 -272.432)" fill="#3a4a7c"/>
        <path id="Trazado_19927" data-name="Trazado 19927" d="M334.341,309.46a4.047,4.047,0,1,1-4.048-4.046A4.047,4.047,0,0,1,334.341,309.46Z" transform="translate(-192.181 -248.356)" fill="#f9b6b2"/>
        <path id="Trazado_19928" data-name="Trazado 19928" d="M384.871,409.03l.075-2.089-3.352-4.19-9.428,3.562s-3.637,12.286-2.933,12.99,10.327,1.77,13.583,1.478c1.37-.121,2.743-2.958,4.779-5.255,1.608-1.817,2.509-2.16,3.428-3.556C392.117,410.306,384.871,409.03,384.871,409.03Z" transform="translate(-199.128 -264.118)" fill="#ffd4cd"/>
        <path id="Trazado_19929" data-name="Trazado 19929" d="M336.75,341.974s2.467-2.764,3.981-2.724c1.014.029,5.518,3.283,5.518,3.283l.252,5.54,4.077,31.824-5.447,6.076-6.495-6.285.858-33.092Z" transform="translate(-193.882 -253.835)" fill="#419edd"/>
        <rect id="Rectángulo_2501" data-name="Rectángulo 2501" width="26.818" height="29.332" transform="translate(0 28.494)" fill="#f08c70"/>
        <rect id="Rectángulo_2502" data-name="Rectángulo 2502" width="31.008" height="34.36" transform="translate(210.353)" fill="#ffd982"/>
      </g>
      <g id="_ÎÓÈ_1" data-name="—ÎÓÈ_1" transform="translate(-1532 -1616.42)">
        <g id="Grupo_9835" data-name="Grupo 9835" transform="translate(146.109 6.87)">
          <path id="Trazado_19930" data-name="Trazado 19930" d="M293.667,254.688a1.55,1.55,0,0,1,0-3.1l13.244-.017h0a1.55,1.55,0,0,1,0,3.1l-13.244.017Z" transform="translate(-292.117 -244.956)" fill="#17202e"/>
          <path id="Trazado_19931" data-name="Trazado 19931" d="M301.575,260.023a1.55,1.55,0,0,1-1.55-1.549l-.017-13.243a1.552,1.552,0,0,1,1.549-1.553h0a1.552,1.552,0,0,1,1.551,1.549l.016,13.244a1.55,1.55,0,0,1-1.549,1.552Z" transform="translate(-293.395 -243.678)" fill="#17202e"/>
        </g>
        <path id="Trazado_19932" data-name="Trazado 19932" d="M123.839,422.409a6.067,6.067,0,1,1,6.068-6.066A6.072,6.072,0,0,1,123.839,422.409Zm0-9.033a2.966,2.966,0,1,0,2.966,2.968A2.968,2.968,0,0,0,123.839,413.376Z" transform="translate(-117.775 -263.786)" fill="#17202e"/>
        <path id="Trazado_19933" data-name="Trazado 19933" d="M486.3,347.746a8.942,8.942,0,1,1,8.943-8.941A8.949,8.949,0,0,1,486.3,347.746Zm0-14.783a5.84,5.84,0,1,0,5.842,5.841A5.844,5.844,0,0,0,486.3,332.964Z" transform="translate(-176.007 -250.764)" fill="#17202e"/>
        <g id="Grupo_9836" data-name="Grupo 9836" transform="translate(25.168 192.436)">
          <path id="Trazado_19934" data-name="Trazado 19934" d="M149.356,473.407a1.55,1.55,0,0,1,0-3.1l8.717-.012h0a1.55,1.55,0,0,1,0,3.1l-8.718.012Z" transform="translate(-147.806 -465.942)" fill="#17202e"/>
          <path id="Trazado_19935" data-name="Trazado 19935" d="M154.562,476.918a1.55,1.55,0,0,1-1.55-1.549L153,466.652a1.55,1.55,0,0,1,1.549-1.551h0a1.55,1.55,0,0,1,1.55,1.548l.009,8.718a1.55,1.55,0,0,1-1.549,1.551Z" transform="translate(-148.647 -465.101)" fill="#17202e"/>
        </g>
        <g id="Grupo_9837" data-name="Grupo 9837" transform="translate(337.631 110.296)">
          <path id="Trazado_19936" data-name="Trazado 19936" d="M522.2,375.4a1.551,1.551,0,0,1,0-3.1l8.717-.011h0a1.55,1.55,0,0,1,0,3.1l-8.718.012Z" transform="translate(-520.647 -367.93)" fill="#17202e"/>
          <path id="Trazado_19937" data-name="Trazado 19937" d="M527.4,378.908a1.551,1.551,0,0,1-1.55-1.549l-.01-8.718a1.552,1.552,0,0,1,1.549-1.552h0a1.552,1.552,0,0,1,1.551,1.549l.009,8.718a1.551,1.551,0,0,1-1.549,1.552Z" transform="translate(-521.488 -367.089)" fill="#17202e"/>
        </g>
        <g id="Grupo_9838" data-name="Grupo 9838" transform="translate(246.012 228.283)">
          <path id="Trazado_19938" data-name="Trazado 19938" d="M429.71,550.532c-.25,0-.5-.005-.749-.015a18.378,18.378,0,1,1,9-34.785,1.551,1.551,0,0,1-1.4,2.77,15.146,15.146,0,0,0-6.249-1.613,15.263,15.263,0,1,0,13.689,9.892,1.55,1.55,0,1,1,2.9-1.092,18.388,18.388,0,0,1-17.2,24.843Z" transform="translate(-411.325 -508.83)" fill="#17202e"/>
          <path id="Trazado_19939" data-name="Trazado 19939" d="M432.039,537.385l-8.77-10a1.551,1.551,0,0,1,2.332-2.044l6.316,7.2,19.076-24.082a1.55,1.55,0,1,1,2.43,1.925Z" transform="translate(-413.197 -507.874)" fill="#17202e"/>
        </g>
        <path id="Trazado_19940" data-name="Trazado 19940" d="M405.867,487.754a2.5,2.5,0,1,1-2.5-2.5A2.5,2.5,0,0,1,405.867,487.754Z" transform="translate(-163.619 -275.928)" fill="#17202e"/>
        <path id="Trazado_19941" data-name="Trazado 19941" d="M351.228,379.61a1.551,1.551,0,0,1-1.529-1.3l-5.1-31.662.111-.352a23.614,23.614,0,0,1,1.6-3.873A1.55,1.55,0,0,1,349,343.981a19.307,19.307,0,0,0-1.215,2.908l4.977,30.924a1.549,1.549,0,0,1-1.284,1.777A1.572,1.572,0,0,1,351.228,379.61Z" transform="translate(-154.508 -252.673)" fill="#17202e"/>
        <path id="Trazado_19942" data-name="Trazado 19942" d="M338.683,380.728h-.014a1.551,1.551,0,0,1-1.536-1.565c0-.226.2-22.385,0-31.3l-2.484-3.822a1.55,1.55,0,1,1,2.6-1.69l2.963,4.558.012.439c.213,8.65.011,31.607.009,31.838A1.551,1.551,0,0,1,338.683,380.728Z" transform="translate(-152.855 -252.673)" fill="#17202e"/>
        <path id="Trazado_19943" data-name="Trazado 19943" d="M340.229,457.424A1.551,1.551,0,0,1,340,454.34l5.586-.838a1.55,1.55,0,1,1,.46,3.066l-5.587.838A1.46,1.46,0,0,1,340.229,457.424Z" transform="translate(-153.548 -270.783)" fill="#17202e"/>
        <path id="Trazado_19944" data-name="Trazado 19944" d="M312.545,452.831c-.026,0-.053,0-.08,0A1.55,1.55,0,0,1,311,451.2l.838-16.48a1.55,1.55,0,1,1,3.1.157l-.838,16.48A1.55,1.55,0,0,1,312.545,452.831Z" transform="translate(-149.065 -267.507)" fill="#17202e"/>
        <path id="Trazado_19945" data-name="Trazado 19945" d="M370.981,411.388a1.638,1.638,0,0,1-.2-.013l-57.407-7.543a1.551,1.551,0,0,1-1.3-1.165c-.078-.317-7.851-31.828-10.087-47.5-.943-6.611,2.337-11.293,11.323-16.159.369-.2,1.111-.622,2.01-1.132,2.146-1.219,5.085-2.89,6.224-3.408a1.55,1.55,0,0,1,1.283,2.823c-1.012.46-4,2.158-5.975,3.281-.924.525-1.687.958-2.066,1.163-9.923,5.374-10.247,9.366-9.73,12.994,1.987,13.932,8.42,40.615,9.775,46.171l55.531,7.3,4.923-5.661A1.551,1.551,0,0,1,376.3,402l1.245-.124.94-1.88-4.035-1.494a1.551,1.551,0,1,1,1.077-2.908l5.657,2.1a1.55,1.55,0,0,1,.848,2.147l-2.1,4.19a1.55,1.55,0,0,1-1.233.85l-1.483.148-5.066,5.826A1.553,1.553,0,0,1,370.981,411.388Z" transform="translate(-147.58 -251.487)" fill="#17202e"/>
        <path id="Trazado_19946" data-name="Trazado 19946" d="M379.694,374.125a1.545,1.545,0,0,1-1.02-.384l-3.352-2.933a1.546,1.546,0,0,1-.463-.717c-.06-.2-5.995-19.787-6.709-22.222-.988-3.371-1.745-4.272-3.066-5.017-5.309-3-13.731-6.593-13.815-6.628a1.55,1.55,0,0,1,1.215-2.853c.351.149,8.662,3.7,14.122,6.78,2.53,1.426,3.54,3.506,4.52,6.846.651,2.221,5.7,18.882,6.571,21.77l3.018,2.642a1.55,1.55,0,0,1-1.022,2.717Z" transform="translate(-155.434 -251.312)" fill="#17202e"/>
        <path id="Trazado_19947" data-name="Trazado 19947" d="M318.509,573.453c-5.6,0-12.93-.214-13.377-.226l-1.56-.047.056-1.559c.025-.711,2.576-71.639,6.161-120.268a1.55,1.55,0,0,1,3.092.227c-3.285,44.557-5.7,107.879-6.1,118.589,5.172.135,15.025.318,17.185.023.294-.03.452-.432.509-.665a1.814,1.814,0,0,0-.5-1.847c-.54-.346-1.087-.626-1.722-.95-.585-.3-1.248-.639-2.04-1.1l-.878-.508.114-1.007c1.743-15.379,4.062-33.179,6.748-53.789,2.247-17.24,4.57-35.068,6.911-54.192l.09-.734.627-.392a5.3,5.3,0,0,1,3.027-.46c.187.008.349.018.459.012l1.437-.208.251,1.426c6.819,32.164,19.414,103.451,21.245,113.853,3.651.033,14,.123,17.288.127a2.048,2.048,0,0,0,.323-1.031,2.14,2.14,0,0,0-.838-1.852,9.109,9.109,0,0,0-2.368-1.364c-.36-.169-.791-.37-1.322-.624l-.782-.373-.092-.862c-1.689-15.8-5.185-40.867-8.269-62.983-2.813-20.175-5.243-37.6-5.935-45.161a1.55,1.55,0,1,1,3.087-.283c.686,7.49,3.111,24.88,5.919,45.017,3.031,21.738,6.461,46.327,8.188,62.216l.519.243a12.039,12.039,0,0,1,2.962,1.728,5.249,5.249,0,0,1,1.881,5.452,3.694,3.694,0,0,1-2.74,2.952l-.274.024h-.064c-3.708,0-18.65-.137-18.8-.139l-1.291-.012-.223-1.271c-.138-.791-13.809-78.676-21.192-113.806h-.173c-2.3,18.743-4.676,36.975-6.777,53.1-2.624,20.139-4.9,37.594-6.625,52.711.359.191.691.362,1.018.53a22.652,22.652,0,0,1,1.983,1.1,4.821,4.821,0,0,1,1.84,5.187,3.689,3.689,0,0,1-3.164,3.016C323.346,573.406,321.115,573.453,318.509,573.453Z" transform="translate(-147.863 -270.205)" fill="#17202e"/>
        <path id="Trazado_19948" data-name="Trazado 19948" d="M347.7,330.552a1.551,1.551,0,0,1-.375-3.056,10.569,10.569,0,0,0,2.157-.87,47.407,47.407,0,0,1-.114-6.488l.044-.87.766-.415c2.725-1.479,4.377-5.439,4.779-11.452.852-12.762-.657-16.219-.673-16.252a1.53,1.53,0,0,1,.655-2.075,1.57,1.57,0,0,1,2.106.665c.2.378,1.927,4.084,1.007,17.869-.448,6.717-2.337,11.251-5.618,13.5a41.233,41.233,0,0,0,.236,6.157l.136.989-.843.534a15.563,15.563,0,0,1-3.883,1.721A1.586,1.586,0,0,1,347.7,330.552Z" transform="translate(-154.758 -244.13)" fill="#17202e"/>
        <path id="Trazado_19949" data-name="Trazado 19949" d="M334.946,297.922l-.075,0A1.55,1.55,0,0,1,333.4,296.3c.073-1.525,1.453-4.41,6.158-4.41.772,0,1.524.009,2.25.018,5.129.064,7.977-.011,9.109-2.176a11.086,11.086,0,0,0-8.211-7.439c-6.912-1.68-11.67,2.2-13.044,5.036a16.011,16.011,0,0,0-1.325,8.058,1.551,1.551,0,0,1-3.073.416,18.955,18.955,0,0,1,1.607-9.825c2.252-4.653,8.823-8.581,16.568-6.7,5.418,1.317,9.589,5.353,10.627,10.279l.094.448-.164.427c-1.8,4.7-6.631,4.645-12.224,4.573-.715-.008-1.454-.017-2.213-.017-2.91,0-3.06,1.441-3.061,1.457A1.551,1.551,0,0,1,334.946,297.922Z" transform="translate(-151.358 -242.494)" fill="#17202e"/>
        <path id="Trazado_19950" data-name="Trazado 19950" d="M325.565,334.32a1.55,1.55,0,0,1-.762-2.9l2.557-1.439.285-14.142a1.55,1.55,0,1,1,3.1.062l-.319,15.913-4.1,2.308A1.549,1.549,0,0,1,325.565,334.32Z" transform="translate(-151.173 -248.247)" fill="#17202e"/>
        <path id="Trazado_19951" data-name="Trazado 19951" d="M331.04,315.039a1.564,1.564,0,0,1-.2-.013c-4.006-.505-5.442-2.643-5.942-4.348a5.755,5.755,0,0,1,3.717-6.963,5.477,5.477,0,0,1,4.917.686,1.55,1.55,0,1,1-1.793,2.528,2.349,2.349,0,0,0-2.131-.277,2.625,2.625,0,0,0-1.733,3.153c.225.768.817,1.824,3.354,2.144a1.551,1.551,0,0,1-.192,3.089Z" transform="translate(-151.282 -246.482)" fill="#17202e"/>
        <path id="Trazado_19952" data-name="Trazado 19952" d="M368.051,400.956a1.531,1.531,0,0,1-.3-.028l-40.234-7.822a1.55,1.55,0,0,1-1.231-1.256L320.7,359.723a1.55,1.55,0,1,1,3.055-.531l5.4,31.074,38.63,7.51,3.278-1.82a1.55,1.55,0,0,1,1.506,2.71l-3.771,2.1A1.549,1.549,0,0,1,368.051,400.956Z" transform="translate(-150.633 -255.306)" fill="#17202e"/>
        <path id="Trazado_19953" data-name="Trazado 19953" d="M369.539,421.41a1.633,1.633,0,0,1-.228-.017,1.551,1.551,0,0,1-1.307-1.76l.844-5.731a1.55,1.55,0,0,1,3.067.452l-.844,5.731A1.55,1.55,0,0,1,369.539,421.41Z" transform="translate(-158.294 -264.159)" fill="#17202e"/>
        <path id="Trazado_19954" data-name="Trazado 19954" d="M347.217,327.779a10.12,10.12,0,0,1-5.128-1.307,1.55,1.55,0,1,1,1.562-2.678,8.373,8.373,0,0,0,6.014.56,1.55,1.55,0,0,1,.943,2.954A12.03,12.03,0,0,1,347.217,327.779Z" transform="translate(-153.976 -249.747)" fill="#17202e"/>
        <path id="Trazado_19955" data-name="Trazado 19955" d="M387.781,396.693a1.555,1.555,0,0,1-1.515-1.886l4.836-21.869a8.655,8.655,0,0,1,10.322-6.583l3.744.828a1.551,1.551,0,1,1-.67,3.028l-3.743-.829a5.557,5.557,0,0,0-6.626,4.226l-4.836,21.869A1.55,1.55,0,0,1,387.781,396.693Z" transform="translate(-161.248 -256.64)" fill="#17202e"/>
        <path id="Trazado_19956" data-name="Trazado 19956" d="M420.116,448.293a8.775,8.775,0,0,1-1.888-.207l-34.37-7.6a8.656,8.656,0,0,1-6.583-10.324l1.736-7.847a1.551,1.551,0,0,1,3.028.67l-1.736,7.847a5.557,5.557,0,0,0,4.225,6.627l34.371,7.6a5.556,5.556,0,0,0,6.625-4.225l12.344-55.814a5.557,5.557,0,0,0-4.226-6.625l-2.141-.474a1.55,1.55,0,1,1,.67-3.027l2.141.474a8.657,8.657,0,0,1,6.583,10.323L428.551,441.5a8.666,8.666,0,0,1-8.435,6.79Z" transform="translate(-159.765 -258.051)" fill="#17202e"/>
        <path id="Trazado_19957" data-name="Trazado 19957" d="M194.345,301.075h-29.92V269.48h22.5a1.55,1.55,0,1,1,0,3.1h-19.4v25.393h23.716v-12.7a1.551,1.551,0,0,1,3.1,0Z" transform="translate(-125.329 -240.986)" fill="#17202e"/>
        <g id="Grupo_9839" data-name="Grupo 9839" transform="translate(48.314 108.11)">
          <rect id="Rectángulo_2503" data-name="Rectángulo 2503" width="44.417" height="47.769" transform="translate(1.551 1.55)" fill="#70ccf0"/>
          <path id="Trazado_19958" data-name="Trazado 19958" d="M222.944,415.35H175.425V364.48h47.519Zm-44.417-3.1h41.316V367.581H178.527Z" transform="translate(-175.425 -364.48)" fill="#17202e"/>
        </g>
        <path id="Trazado_19959" data-name="Trazado 19959" d="M449.373,273.779H414.425v-38.3h34.948Zm-31.846-3.1h28.745v-32.1H417.527Z" transform="translate(-165.814 -235.48)" fill="#17202e"/>
        <path id="Trazado_19960" data-name="Trazado 19960" d="M461.83,284.561H435.975a1.55,1.55,0,1,1,0-3.1h22.753V257.03a1.551,1.551,0,0,1,3.1,0Z" transform="translate(-169.053 -238.719)" fill="#17202e"/>
        <path id="Trazado_19961" data-name="Trazado 19961" d="M276.316,362.654h-3.692c-5.52,0-7.043-5.313-7.077-8.122v-55.47c0-4.835-3.4-8.481-7.9-8.481H215.975a1.55,1.55,0,1,1,0-3.1h41.668c6.171,0,11.005,5.087,11.005,11.582v55.451c.009.494.205,5.04,3.976,5.04h3.692a1.55,1.55,0,1,1,0,3.1Z" transform="translate(-133.426 -243.901)" fill="#17202e"/>
        <path id="Trazado_19962" data-name="Trazado 19962" d="M420.072,333.4h-29.1a1.55,1.55,0,1,1,0-3.1h29.1c4.506,0,7.9-3.579,7.9-8.324V305.03a1.551,1.551,0,0,1,3.1,0v16.944C431.077,328.487,426.346,333.4,420.072,333.4Z" transform="translate(-161.766 -246.492)" fill="#17202e"/>
        <path id="Trazado_19963" data-name="Trazado 19963" d="M209.765,383.581h-21.79a1.55,1.55,0,1,1,0-3.1h21.79a1.55,1.55,0,1,1,0,3.1Z" transform="translate(-128.892 -258.961)" fill="#17202e"/>
        <path id="Trazado_19964" data-name="Trazado 19964" d="M208.927,395.581H187.975a1.55,1.55,0,1,1,0-3.1h20.952a1.55,1.55,0,1,1,0,3.1Z" transform="translate(-128.892 -260.905)" fill="#17202e"/>
        <path id="Trazado_19965" data-name="Trazado 19965" d="M198.032,408.581H187.975a1.55,1.55,0,1,1,0-3.1h10.057a1.55,1.55,0,1,1,0,3.1Z" transform="translate(-128.892 -263.01)" fill="#17202e"/>
        <path id="Trazado_19966" data-name="Trazado 19966" d="M440.737,249.581H423.975a1.55,1.55,0,1,1,0-3.1h16.761a1.55,1.55,0,1,1,0,3.1Z" transform="translate(-167.11 -237.261)" fill="#17202e"/>
        <path id="Trazado_19967" data-name="Trazado 19967" d="M433.356,259.581h-8.381a1.55,1.55,0,1,1,0-3.1h8.381a1.55,1.55,0,1,1,0,3.1Z" transform="translate(-167.272 -238.881)" fill="#17202e"/>
        <path id="Trazado_19968" data-name="Trazado 19968" d="M182.3,291.43l-7.506-11.01a1.55,1.55,0,1,1,2.561-1.747l5.065,7.428,17.556-23.408a1.55,1.55,0,1,1,2.481,1.861Z" transform="translate(-126.964 -239.787)" fill="#17202e"/>
        <path id="Trazado_19969" data-name="Trazado 19969" d="M194.955,427.723h-27.53V401.03a1.551,1.551,0,0,1,3.1,0v23.591h24.429a1.55,1.55,0,1,1,0,3.1Z" transform="translate(-125.815 -262.038)" fill="#17202e"/>
        <path id="Trazado_19970" data-name="Trazado 19970" d="M285.5,408.581H251.975a1.55,1.55,0,1,1,0-3.1H285.5a1.55,1.55,0,1,1,0,3.1Z" transform="translate(-139.256 -263.01)" fill="#17202e"/>
        <path id="Trazado_19971" data-name="Trazado 19971" d="M197.6,508.581H174.975a1.55,1.55,0,1,1,0-3.1H197.6a1.55,1.55,0,1,1,0,3.1Z" transform="translate(-126.787 -279.204)" fill="#17202e"/>
        <g id="Grupo_9840" data-name="Grupo 9840" transform="translate(244.134 103.801)">
          <path id="Trazado_19972" data-name="Trazado 19972" d="M430.219,367.371a6.093,6.093,0,0,0-11.662-2.56l-5.595-1.229-2.028,9.24,23.006,5.051,2.028-9.24Z" transform="translate(-409.383 -359.638)" fill="#70ccf0"/>
          <path id="Trazado_19973" data-name="Trazado 19973" d="M433.641,379.125a1.544,1.544,0,0,1-.333-.036L410.3,374.038a1.55,1.55,0,0,1-1.182-1.846l2.027-9.241a1.552,1.552,0,0,1,1.847-1.182l4.468.981a7.64,7.64,0,0,1,6.358-3.41,7.649,7.649,0,0,1,7.559,6.466L436,366.82a1.551,1.551,0,0,1,1.183,1.847l-2.028,9.24a1.551,1.551,0,0,1-1.514,1.219Zm-21.16-7.783,19.979,4.386,1.363-6.212-4.235-.929a1.551,1.551,0,0,1-1.218-1.54,4.543,4.543,0,0,0-8.694-1.908,1.554,1.554,0,0,1-1.75.887l-4.081-.9Z" transform="translate(-409.084 -359.339)" fill="#17202e"/>
        </g>
        <g id="Grupo_9844" data-name="Grupo 9844" transform="translate(303.085 147.275)">
          <path id="Trazado_19974" data-name="Trazado 19974" d="M553.887,473.188H480.975a1.551,1.551,0,0,1-1.55-1.55V423.03a1.551,1.551,0,0,1,1.55-1.55h46.931a1.55,1.55,0,1,1,0,3.1h-45.38v45.507h69.81V443.144a1.551,1.551,0,0,1,3.1,0v28.494A1.551,1.551,0,0,1,553.887,473.188Z" transform="translate(-479.425 -412.876)" fill="#17202e"/>
          <g id="Grupo_9843" data-name="Grupo 9843" transform="translate(14.199)">
            <g id="Grupo_9842" data-name="Grupo 9842">
              <path id="Trazado_19975" data-name="Trazado 19975" d="M498.5,458.417l-2.128-2.256,22.538-21.26,11.036,10.034,31.728-29.224,2.1,2.281-33.815,31.147-11.012-10.011Z" transform="translate(-496.368 -411.942)" fill="#17202e"/>
              <g id="Grupo_9841" data-name="Grupo 9841" transform="translate(61.857)">
                <path id="Trazado_19976" data-name="Trazado 19976" d="M576.972,420.784l2.99-9.571-9.785,2.195Z" transform="translate(-570.178 -411.213)" fill="#17202e"/>
              </g>
            </g>
          </g>
        </g>
        <path id="Trazado_19977" data-name="Trazado 19977" d="M429.263,398.6a1.6,1.6,0,0,1-.353-.04l-24.024-5.587a1.55,1.55,0,0,1,.7-3.02l24.024,5.587a1.55,1.55,0,0,1-.349,3.061Z" transform="translate(-164.075 -260.488)" fill="#17202e"/>
        <path id="Trazado_19978" data-name="Trazado 19978" d="M420.263,436.6a1.6,1.6,0,0,1-.353-.04l-24.024-5.587a1.55,1.55,0,1,1,.7-3.02l24.024,5.587a1.55,1.55,0,0,1-.35,3.061Z" transform="translate(-162.618 -266.641)" fill="#17202e"/>
        <path id="Trazado_19979" data-name="Trazado 19979" d="M427.289,410.865a1.529,1.529,0,0,1-.34-.038l-18.716-4.189a1.55,1.55,0,1,1,.677-3.025l18.716,4.189a1.55,1.55,0,0,1-.337,3.063Z" transform="translate(-164.615 -262.701)" fill="#17202e"/>
        <path id="Trazado_19980" data-name="Trazado 19980" d="M424.289,423.865a1.528,1.528,0,0,1-.34-.038l-18.716-4.189a1.55,1.55,0,1,1,.677-3.025l18.716,4.189a1.55,1.55,0,0,1-.337,3.063Z" transform="translate(-164.13 -264.806)" fill="#17202e"/>
        <path id="Trazado_19981" data-name="Trazado 19981" d="M522.975,493.476a1.55,1.55,0,0,1-1.55-1.55V481.03a1.551,1.551,0,0,1,3.1,0v10.895A1.551,1.551,0,0,1,522.975,493.476Z" transform="translate(-183.142 -274.993)" fill="#17202e"/>
        <path id="Trazado_19982" data-name="Trazado 19982" d="M533.279,501.581h-24.3a1.55,1.55,0,1,1,0-3.1h24.3a1.55,1.55,0,1,1,0,3.1Z" transform="translate(-180.875 -278.07)" fill="#17202e"/>
      </g>
    </g>
  </g>
</svg>
